<mxfile host="Electron" agent="Mozilla/5.0 (Windows NT 10.0; Win64; x64) AppleWebKit/537.36 (KHTML, like Gecko) draw.io/24.7.5 Chrome/126.0.6478.183 Electron/31.3.0 Safari/537.36" version="24.7.5">
  <diagram id="WI9T0HZ2pTsCkuznbFz-" name="Page-1">
    <mxGraphModel dx="2963" dy="2021" grid="0" gridSize="10" guides="1" tooltips="1" connect="1" arrows="1" fold="1" page="1" pageScale="1" pageWidth="1169" pageHeight="827" math="0" shadow="0">
      <root>
        <mxCell id="0" />
        <mxCell id="1" parent="0" />
        <mxCell id="8N1gZI2geE5Co_WE50Yg-47" value="" style="edgeStyle=orthogonalEdgeStyle;rounded=0;orthogonalLoop=1;jettySize=auto;html=1;" parent="1" source="r8kyTGd4MDTlxssYAJR3-8" target="ZLGVQ2rk_Wr_WkTqdJoq-84" edge="1">
          <mxGeometry relative="1" as="geometry">
            <mxPoint x="230" y="-332.5" as="sourcePoint" />
            <mxPoint x="158" y="-333" as="targetPoint" />
            <Array as="points">
              <mxPoint x="207" y="-322" />
              <mxPoint x="207" y="-322" />
            </Array>
          </mxGeometry>
        </mxCell>
        <mxCell id="r8kyTGd4MDTlxssYAJR3-8" value="" style="rounded=0;whiteSpace=wrap;html=1;" parent="1" vertex="1">
          <mxGeometry x="230" y="-371" width="71" height="161" as="geometry" />
        </mxCell>
        <mxCell id="nSMH6S4gf7WrHXCQg2CD-1" value="" style="rounded=0;whiteSpace=wrap;html=1;" parent="1" vertex="1">
          <mxGeometry x="941" y="40" width="219" height="112" as="geometry" />
        </mxCell>
        <mxCell id="ZLGVQ2rk_Wr_WkTqdJoq-90" value="" style="rounded=0;whiteSpace=wrap;html=1;" parent="1" vertex="1">
          <mxGeometry x="710" y="-702" width="144" height="135" as="geometry" />
        </mxCell>
        <mxCell id="r8kyTGd4MDTlxssYAJR3-11" value="" style="edgeStyle=orthogonalEdgeStyle;rounded=0;orthogonalLoop=1;jettySize=auto;html=1;strokeColor=#009900;" parent="1" source="ZLGVQ2rk_Wr_WkTqdJoq-84" target="ZLGVQ2rk_Wr_WkTqdJoq-13" edge="1">
          <mxGeometry relative="1" as="geometry">
            <Array as="points">
              <mxPoint x="123" y="-178" />
              <mxPoint x="123" y="-178" />
            </Array>
            <mxPoint x="132" y="-156" as="targetPoint" />
          </mxGeometry>
        </mxCell>
        <mxCell id="ZLGVQ2rk_Wr_WkTqdJoq-84" value="" style="rounded=0;whiteSpace=wrap;html=1;" parent="1" vertex="1">
          <mxGeometry x="87" y="-372" width="75" height="162" as="geometry" />
        </mxCell>
        <mxCell id="ZLGVQ2rk_Wr_WkTqdJoq-34" value="" style="rounded=0;whiteSpace=wrap;html=1;" parent="1" vertex="1">
          <mxGeometry x="963" y="-694" width="337" height="522" as="geometry" />
        </mxCell>
        <mxCell id="ZLGVQ2rk_Wr_WkTqdJoq-64" value="" style="rounded=1;whiteSpace=wrap;html=1;absoluteArcSize=1;arcSize=14;strokeWidth=2;strokeColor=#007FFF;" parent="1" vertex="1">
          <mxGeometry x="1058" y="-665" width="213" height="420" as="geometry" />
        </mxCell>
        <mxCell id="ZLGVQ2rk_Wr_WkTqdJoq-35" value="" style="rounded=0;whiteSpace=wrap;html=1;" parent="1" vertex="1">
          <mxGeometry x="370" y="-208" width="485" height="364" as="geometry" />
        </mxCell>
        <mxCell id="k0CTzh7-vUOgCoUulJSG-58" value="" style="rounded=0;whiteSpace=wrap;html=1;" parent="1" vertex="1">
          <mxGeometry x="370" y="-548" width="485" height="325" as="geometry" />
        </mxCell>
        <mxCell id="k0CTzh7-vUOgCoUulJSG-6" value="" style="rounded=0;whiteSpace=wrap;html=1;" parent="1" vertex="1">
          <mxGeometry x="463" y="-763" width="190" height="197" as="geometry" />
        </mxCell>
        <mxCell id="x5Qx7wWfgq4q1o_DWIzA-21" value="" style="edgeStyle=orthogonalEdgeStyle;rounded=0;orthogonalLoop=1;jettySize=auto;html=1;strokeColor=#007FFF;" parent="1" source="AcxdMaKK0mU5kZiv2lnr-37" target="x5Qx7wWfgq4q1o_DWIzA-1" edge="1">
          <mxGeometry relative="1" as="geometry">
            <Array as="points">
              <mxPoint x="404" y="-642" />
            </Array>
            <mxPoint x="422.33333333333326" y="-611.9999999999999" as="targetPoint" />
          </mxGeometry>
        </mxCell>
        <mxCell id="AcxdMaKK0mU5kZiv2lnr-37" value="" style="shape=image;verticalLabelPosition=bottom;labelBackgroundColor=none;verticalAlign=top;aspect=fixed;imageAspect=0;image=data:image/svg+xml,PHN2ZyB4bWxuczpkYz0iaHR0cDovL3B1cmwub3JnL2RjL2VsZW1lbnRzLzEuMS8iIHhtbG5zOmNjPSJodHRwOi8vY3JlYXRpdmVjb21tb25zLm9yZy9ucyMiIHhtbG5zOnJkZj0iaHR0cDovL3d3dy53My5vcmcvMTk5OS8wMi8yMi1yZGYtc3ludGF4LW5zIyIgeG1sbnM6c3ZnPSJodHRwOi8vd3d3LnczLm9yZy8yMDAwL3N2ZyIgeG1sbnM9Imh0dHA6Ly93d3cudzMub3JnLzIwMDAvc3ZnIiB4bWxuczp4bGluaz0iaHR0cDovL3d3dy53My5vcmcvMTk5OS94bGluayIgeG1sbnM6c29kaXBvZGk9Imh0dHA6Ly9zb2RpcG9kaS5zb3VyY2Vmb3JnZS5uZXQvRFREL3NvZGlwb2RpLTAuZHRkIiB4bWxuczppbmtzY2FwZT0iaHR0cDovL3d3dy5pbmtzY2FwZS5vcmcvbmFtZXNwYWNlcy9pbmtzY2FwZSIgdmVyc2lvbj0iMS4xIiBpZD0iTGF5ZXJfMSIgeD0iMHB4IiB5PSIwcHgiIHZpZXdCb3g9IjAgMCA1MC44NDk5OTggNTEuMDkiIHhtbDpzcGFjZT0icHJlc2VydmUiIHNvZGlwb2RpOmRvY25hbWU9InZpc3VhbF9zdHVkaW9fY29kZS5zdmciIHdpZHRoPSI1MC44NDk5OTgiIGhlaWdodD0iNTEuMDkiIGlua3NjYXBlOnZlcnNpb249IjAuOTIuMyAoMjQwNTU0NiwgMjAxOC0wMy0xMSkiPjxtZXRhZGF0YSBpZD0ibWV0YWRhdGE0MzE4OSI+PHJkZjpSREY+PGNjOldvcmsgcmRmOmFib3V0PSIiPjxkYzpmb3JtYXQ+aW1hZ2Uvc3ZnK3htbDwvZGM6Zm9ybWF0PjxkYzp0eXBlIHJkZjpyZXNvdXJjZT0iaHR0cDovL3B1cmwub3JnL2RjL2RjbWl0eXBlL1N0aWxsSW1hZ2UiLz48ZGM6dGl0bGUvPjwvY2M6V29yaz48L3JkZjpSREY+PC9tZXRhZGF0YT48ZGVmcyBpZD0iZGVmczQzMTg3Ii8+PHNvZGlwb2RpOm5hbWVkdmlldyBwYWdlY29sb3I9IiNmZmZmZmYiIGJvcmRlcmNvbG9yPSIjNjY2NjY2IiBib3JkZXJvcGFjaXR5PSIxIiBvYmplY3R0b2xlcmFuY2U9IjEwIiBncmlkdG9sZXJhbmNlPSIxMCIgZ3VpZGV0b2xlcmFuY2U9IjEwIiBpbmtzY2FwZTpwYWdlb3BhY2l0eT0iMCIgaW5rc2NhcGU6cGFnZXNoYWRvdz0iMiIgaW5rc2NhcGU6d2luZG93LXdpZHRoPSIxOTIwIiBpbmtzY2FwZTp3aW5kb3ctaGVpZ2h0PSIxMDE3IiBpZD0ibmFtZWR2aWV3NDMxODUiIHNob3dncmlkPSJmYWxzZSIgZml0LW1hcmdpbi10b3A9IjAiIGZpdC1tYXJnaW4tbGVmdD0iMCIgZml0LW1hcmdpbi1yaWdodD0iMCIgZml0LW1hcmdpbi1ib3R0b209IjAiIGlua3NjYXBlOnpvb209IjEuMDMwMzAzIiBpbmtzY2FwZTpjeD0iLTYuNTU1IiBpbmtzY2FwZTpjeT0iLTI5Ni4wNyIgaW5rc2NhcGU6d2luZG93LXg9Ii04IiBpbmtzY2FwZTp3aW5kb3cteT0iLTgiIGlua3NjYXBlOndpbmRvdy1tYXhpbWl6ZWQ9IjEiIGlua3NjYXBlOmN1cnJlbnQtbGF5ZXI9IkxheWVyXzEiLz4mI3hhOyYjeGE7PGcgaWQ9Imc0MzE4MiIgdHJhbnNmb3JtPSJ0cmFuc2xhdGUoLTMwMy45MywtNzMuNTkpIj4mI3hhOwk8ZGVmcyBpZD0iZGVmczQzMTY3Ij4mI3hhOwkJPHJlY3QgaWQ9IlNWR0lEXzNfIiB4PSIzMDMuOTI5OTkiIHk9IjczLjU4OTk5NiIgd2lkdGg9IjUxLjI1IiBoZWlnaHQ9IjUxLjI1Ii8+JiN4YTsJPC9kZWZzPiYjeGE7CTxjbGlwUGF0aCBpZD0iU1ZHSURfNF8iPiYjeGE7CQk8dXNlIHhsaW5rOmhyZWY9IiNTVkdJRF8zXyIgc3R5bGU9Im92ZXJmbG93OnZpc2libGUiIGlkPSJ1c2U0MzE2OSIgeD0iMCIgeT0iMCIgd2lkdGg9IjEwMCUiIGhlaWdodD0iMTAwJSIvPiYjeGE7CTwvY2xpcFBhdGg+JiN4YTsJPGcgY2xpcC1wYXRoPSJ1cmwoI1NWR0lEXzRfKSIgaWQ9Imc0MzE4MCI+JiN4YTsJCTxkZWZzIGlkPSJkZWZzNDMxNzMiPiYjeGE7CQkJPHJlY3QgaWQ9IlNWR0lEXzVfIiB4PSIzMDMuOTI5OTkiIHk9IjczLjU4OTk5NiIgd2lkdGg9IjUxLjI1IiBoZWlnaHQ9IjUxLjI1Ii8+JiN4YTsJCTwvZGVmcz4mI3hhOwkJPGNsaXBQYXRoIGlkPSJTVkdJRF82XyI+JiN4YTsJCQk8dXNlIHhsaW5rOmhyZWY9IiNTVkdJRF81XyIgc3R5bGU9Im92ZXJmbG93OnZpc2libGUiIGlkPSJ1c2U0MzE3NSIgeD0iMCIgeT0iMCIgd2lkdGg9IjEwMCUiIGhlaWdodD0iMTAwJSIvPiYjeGE7CQk8L2NsaXBQYXRoPiYjeGE7CQk8cGF0aCBzdHlsZT0iZmlsbDojMDE3OWNiIiBkPSJtIDMwOS44NywxMDUuMDIgNi4yMywtNS42NiAtNi4yMywtNi4yMyBWIDEwNSBaIG0gMzEuNTEsMy4zIFYgODkuOTUgbCAtMTEuODksOS4xOSAxMS44Nyw5LjE3IGggMC4wMiB6IG0gLTE5LjM1LC0zLjQ0IC0xMi42LDkuNzggLTUuNSwtMi43IFYgODYuMzUgbCA1LjQ4LC0yLjc2IDEyLjUyLDkuODQgMTkuODIsLTE5Ljg0IDEzLjAzLDUuMjMgdiA0MC41OSBsIC0xMi45OCw1LjI3IHoiIGNsaXAtcGF0aD0idXJsKCNTVkdJRF82XykiIGlkPSJwYXRoNDMxNzgiIGlua3NjYXBlOmNvbm5lY3Rvci1jdXJ2YXR1cmU9IjAiLz4mI3hhOwk8L2c+JiN4YTs8L2c+JiN4YTs8L3N2Zz4=;" parent="1" vertex="1">
          <mxGeometry x="489" y="-670.63" width="51" height="51" as="geometry" />
        </mxCell>
        <mxCell id="ZLGVQ2rk_Wr_WkTqdJoq-26" value="" style="edgeStyle=orthogonalEdgeStyle;rounded=0;orthogonalLoop=1;jettySize=auto;html=1;strokeColor=#009900;" parent="1" source="ZLGVQ2rk_Wr_WkTqdJoq-7" target="AcxdMaKK0mU5kZiv2lnr-38" edge="1">
          <mxGeometry relative="1" as="geometry" />
        </mxCell>
        <mxCell id="AcxdMaKK0mU5kZiv2lnr-38" value="SRE" style="shape=image;verticalLabelPosition=bottom;labelBackgroundColor=none;verticalAlign=top;aspect=fixed;imageAspect=0;image=data:image/svg+xml,PHN2ZyB4bWxuczpjYz0iaHR0cDovL2NyZWF0aXZlY29tbW9ucy5vcmcvbnMjIiB4bWxuczpkYz0iaHR0cDovL3B1cmwub3JnL2RjL2VsZW1lbnRzLzEuMS8iIHhtbG5zOmlua3NjYXBlPSJodHRwOi8vd3d3Lmlua3NjYXBlLm9yZy9uYW1lc3BhY2VzL2lua3NjYXBlIiB4bWxuczpyZGY9Imh0dHA6Ly93d3cudzMub3JnLzE5OTkvMDIvMjItcmRmLXN5bnRheC1ucyMiIHhtbG5zOnNvZGlwb2RpPSJodHRwOi8vc29kaXBvZGkuc291cmNlZm9yZ2UubmV0L0RURC9zb2RpcG9kaS0wLmR0ZCIgeG1sbnM6c3ZnPSJodHRwOi8vd3d3LnczLm9yZy8yMDAwL3N2ZyIgeG1sbnM9Imh0dHA6Ly93d3cudzMub3JnLzIwMDAvc3ZnIiB4bWxuczp4bGluaz0iaHR0cDovL3d3dy53My5vcmcvMTk5OS94bGluayIgdmVyc2lvbj0iMS4xIiBpZD0ic3ZnMzExODM2IiBpbmtzY2FwZTp2ZXJzaW9uPSIwLjkyLjMgKDI0MDU1NDYsIDIwMTgtMDMtMTEpIiBzb2RpcG9kaTpkb2NuYW1lPSJkZXZlbG9wZXJfNS5zdmciIHg9IjBweCIgeT0iMHB4IiB2aWV3Qm94PSIwIDAgMTkuMjkgNDguMDciIHN0eWxlPSJlbmFibGUtYmFja2dyb3VuZDpuZXcgMCAwIDE5LjI5IDQ4LjA3OyIgeG1sOnNwYWNlPSJwcmVzZXJ2ZSI+JiN4YTs8c29kaXBvZGk6bmFtZWR2aWV3IGJvcmRlcmNvbG9yPSIjNjY2NjY2IiBib3JkZXJvcGFjaXR5PSIxIiBmaXQtbWFyZ2luLWJvdHRvbT0iMCIgZml0LW1hcmdpbi1sZWZ0PSIwIiBmaXQtbWFyZ2luLXJpZ2h0PSIwIiBmaXQtbWFyZ2luLXRvcD0iMCIgZ3JpZHRvbGVyYW5jZT0iMTAiIGd1aWRldG9sZXJhbmNlPSIxMCIgaWQ9Im5hbWVkdmlldzMxMTgzOCIgaW5rc2NhcGU6Y3VycmVudC1sYXllcj0ic3ZnMzExODM2IiBpbmtzY2FwZTpjeD0iMTIuODYzMjIyIiBpbmtzY2FwZTpjeT0iMzIuMDQ4MDkyIiBpbmtzY2FwZTpwYWdlb3BhY2l0eT0iMCIgaW5rc2NhcGU6cGFnZXNoYWRvdz0iMiIgaW5rc2NhcGU6d2luZG93LWhlaWdodD0iMTAxNyIgaW5rc2NhcGU6d2luZG93LW1heGltaXplZD0iMSIgaW5rc2NhcGU6d2luZG93LXdpZHRoPSIxOTIwIiBpbmtzY2FwZTp3aW5kb3cteD0iLTgiIGlua3NjYXBlOndpbmRvdy15PSItOCIgaW5rc2NhcGU6em9vbT0iMTMuNTI3NzczIiBvYmplY3R0b2xlcmFuY2U9IjEwIiBwYWdlY29sb3I9IiNmZmZmZmYiIHNob3dncmlkPSJmYWxzZSI+JiN4YTsJPC9zb2RpcG9kaTpuYW1lZHZpZXc+JiN4YTs8ZyBpZD0iZzMxMTgzNCIgdHJhbnNmb3JtPSJ0cmFuc2xhdGUoLTAuMDAxNzcxNzcsMC4wMDM0KSI+JiN4YTsJPHRpdGxlIGlkPSJ0aXRsZTMxMTYyOSI+UGFnZS0xPC90aXRsZT4mI3hhOwk8ZyBpZD0iZ3JvdXA3MDY1LTEiPiYjeGE7CQk8dGl0bGUgaWQ9InRpdGxlMzExNjMxIj5EZXZlbG9wZXIgIzU8L3RpdGxlPiYjeGE7CQk8ZyBpZD0ic2hhcGU3MDY2LTIiIHRyYW5zZm9ybT0idHJhbnNsYXRlKDExLjQ3MzcsLTEuMzYyMjQpIj4mI3hhOwkJCTx0aXRsZSBpZD0idGl0bGUzMTE2MzMiPlNoZWV0LjcwNjY8L3RpdGxlPiYjeGE7CQkJPHBhdGggaWQ9InBhdGgzMTE2MzUiIGlua3NjYXBlOmNvbm5lY3Rvci1jdXJ2YXR1cmU9IjAiIGQ9Ik0wLDQ3Ljk3bDIuMzEsMC4xbDAuMDItMi45MmgtMi4xTDAsNDcuOTd6Ii8+JiN4YTsJCTwvZz4mI3hhOwkJPGcgaWQ9InNoYXBlNzA2Ny00IiB0cmFuc2Zvcm09InRyYW5zbGF0ZSgxMC44OTA0KSI+JiN4YTsJCQk8dGl0bGUgaWQ9InRpdGxlMzExNjM4Ij5TaGVldC43MDY3PC90aXRsZT4mI3hhOwkJCTxwYXRoIGlkPSJwYXRoMzExNjQwIiBpbmtzY2FwZTpjb25uZWN0b3ItY3VydmF0dXJlPSIwIiBzdHlsZT0iZmlsbDojNUMyRDkxOyIgZD0iTTAsNDcuODZjMi4xNiwwLjExLDIuMTYsMC4xMSwyLjE2LDAuMTEgICAgIGMwLjEyLTAuMzMsMC4xMi0wLjMzLDAuMTItMC4zM2MwLjcxLDAuMTEsMi4xNiwwLjMzLDIuOTgsMC40M2MwLjU2LDAsMS4zNCwwLDEuNzktMC4yMWMwLDAsMC4xNC0wLjExLDAuMTQtMC4yMiAgICAgYzAtMC44Ni0zLjQyLTEuMzItNC4zMS0yLjNjLTAuMTIsMC0wLjEyLDAtMC4xMiwwQzIuNSw0NS41NiwyLjI4LDQ2LDEuNzMsNDZjLTAuNTYsMC0xLjAxLTAuNTUtMS4yNC0wLjY2ICAgICBDMC4xMiw0NS41NiwwLDQ3Ljc1LDAsNDcuODZ6Ii8+JiN4YTsJCTwvZz4mI3hhOwkJPGcgaWQ9InNoYXBlNzA2OC02IiB0cmFuc2Zvcm09InRyYW5zbGF0ZSgzLjExMjg1LC0wLjM4OTIxMykiPiYjeGE7CQkJPHRpdGxlIGlkPSJ0aXRsZTMxMTY0MyI+U2hlZXQuNzA2ODwvdGl0bGU+JiN4YTsJCQk8cGF0aCBpZD0icGF0aDMxMTY0NSIgaW5rc2NhcGU6Y29ubmVjdG9yLWN1cnZhdHVyZT0iMCIgc3R5bGU9ImZpbGw6IzVDMkQ5MTsiIGQ9Ik0xLjE1LDQ1LjM0YzAsMC40OCwwLDAuNDgsMCwwLjQ4ICAgICBDMCw0Ny4zNSwwLDQ3LjM1LDAsNDcuMzVjMCwwLjUxLDAsMC41MSwwLDAuNTFjMCwwLjExLDAuMTEsMC4yMSwwLjIyLDAuMjFjMi40NywwLDIuNDcsMCwyLjQ3LDBjMC4yNSwwLDAuNDItMC4yMSwwLjQyLTAuNDMgICAgIGMwLTEuNDksMC0xLjQ5LDAtMS40OWMwLTAuNDgsMC0wLjQ4LDAtMC40OGMwLTAuMzMsMC0wLjMzLDAtMC4zM0wxLjE1LDQ1LjM0eiIvPiYjeGE7CQk8L2c+JiN4YTsJCTxnIGlkPSJzaGFwZTcwNjktOCIgdHJhbnNmb3JtPSJ0cmFuc2xhdGUoNC4yNzk0OCwtMy4xMTM3KSI+JiN4YTsJCQk8dGl0bGUgaWQ9InRpdGxlMzExNjQ4Ij5TaGVldC43MDY5PC90aXRsZT4mI3hhOwkJCTxwYXRoIGlkPSJwYXRoMzExNjUwIiBpbmtzY2FwZTpjb25uZWN0b3ItY3VydmF0dXJlPSIwIiBzdHlsZT0iZmlsbDojMDA3OEQ3OyIgZD0iTTcuMyw0OC4wN2MtMC4xOC0xLjE3LDAuMjMtNi45NC0wLjAzLTExLjA4ICAgICBjLTAuMjYtNC4wNC0xLjI1LTUuNjktMS4yNS01LjY5cy0wLjMzLTAuMjItMC40MSwwLjFjLTAuMDMsMC4xNS0xLjg4LDUuMy0xLjg4LDUuM3MtMS4yMSw5LjM1LTEuNywxMS4zN2MtMi4wMywwLTIuMDMsMC0yLjAzLDAgICAgIGMwLjUyLTEyLjAxLDAuNTItMTIuMDEsMC41Mi0xMi4wMWMwLjg5LTguNjIsMC44OS04LjYyLDAuODktOC42MmM4LjM3LTMuMzEsOC4zNy0zLjMxLDguMzctMy4zMWMtMC4yMywxLjE4LDAuOTEsNy4yLDAuODgsMTIuNzUgICAgIGMtMC4wOCw0LjY5LTEuMTQsMTAuMzEtMS4xMSwxMS4xOUw3LjMsNDguMDd6Ii8+JiN4YTsJCTwvZz4mI3hhOwkJPGcgaWQ9InNoYXBlNzA3MC0xMCIgdHJhbnNmb3JtPSJ0cmFuc2xhdGUoMy44OTA2LC0yLjkxOTA5KSI+JiN4YTsJCQk8dGl0bGUgaWQ9InRpdGxlMzExNjUzIj5TaGVldC43MDcwPC90aXRsZT4mI3hhOwkJCTxwYXRoIGlkPSJwYXRoMzExNjU1IiBpbmtzY2FwZTpjb25uZWN0b3ItY3VydmF0dXJlPSIwIiBzdHlsZT0iZmlsbDojMDA3OEQ3OyIgZD0iTTIuNjEsNDguMDdjLTIuNjEsMC0yLjYxLDAtMi42MSwwICAgICBjMC41Ni0xMi4zNCwwLjU2LTEyLjM0LDAuNTYtMTIuMzRjMC44Ny04Ljc5LDAuODctOC43OSwwLjg3LTguNzljOS4wNS0zLjU5LDkuMDUtMy41OSw5LjA1LTMuNTljLTAuMTEsMC41Ni0wLjExLDAuNTYtMC4xMSwwLjU2ICAgICBjLTAuMDgsMC40OCwwLjA3LDEuOTQsMC4yNSwzLjYzYzAuMjksMi40NCwwLjY2LDUuODEsMC42Miw5LjAzYy0wLjA0LDMuMDgtMC41MSw2LjU2LTAuODQsOC44M2MtMC4xNCwxLjE3LTAuMjUsMi4wNS0wLjI1LDIuMzQgICAgIGMwLjAzLDAuMzMsMC4wMywwLjMzLDAuMDMsMC4zM2MtMi44MywwLTIuODMsMC0yLjgzLDBjLTAuMDctMC4yNi0wLjA3LTAuMjYtMC4wNy0wLjI2Yy0wLjA3LTAuNTQtMC4wNC0xLjkzLDAtMy43ICAgICBjMC4wNy0yLjI2LDAuMTEtNS4wOC0wLjA0LTcuNDNjLTAuMTgtMy4xOC0wLjg1LTQuODMtMS4wNy01LjM0Yy0wLjI5LDAuODEtMS41NCw0LjI5LTEuODMsNS4xMmMtMC4wNywwLjctMS4yMiw5LjM4LTEuNjksMTEuMzUgICAgIEwyLjYxLDQ4LjA3eiBNMC42Nyw0Ny40NWMxLjQzLDAsMS40MywwLDEuNDMsMGMwLjUxLTIuNDEsMS42Mi0xMS4wMiwxLjY2LTExLjFjMC0wLjA3LDAtMC4wNywwLTAuMDdjMC43Mi0yLDEuODMtNS4xMiwxLjg3LTUuMjYgICAgIGMwLjA3LTAuMjIsMC4yMi0wLjMsMC4yOS0wLjMzYzAuMjktMC4xMSwwLjU1LDAuMDMsMC41OSwwLjA3YzAuMDgsMC4wNCwwLjA4LDAuMDQsMC4wOCwwLjA0YzAuMDMsMC4wNywwLjAzLDAuMDcsMC4wMywwLjA3ICAgICBjMC4wNCwwLjA3LDAuOTksMS43NSwxLjI0LDUuNzhjMC4xNSwyLjM4LDAuMDgsNS4yLDAuMDQsNy40NmMtMC4wNCwxLjQ0LTAuMDcsMi43Mi0wLjA0LDMuMzRjMS42OSwwLDEuNjksMCwxLjY5LDAgICAgIGMwLTAuNDQsMC4xMS0xLjEzLDAuMjctMi4xMmMwLjI5LTIuMjcsMC43Ni01LjcyLDAuOC04Ljc2YzAuMDQtMy4xOC0wLjMzLTYuNTItMC41OC04Ljk2Yy0wLjE4LTEuNTEtMC4yOS0yLjYtMC4yOS0zLjMgICAgIGMtNy43MiwzLjA4LTcuNzIsMy4wOC03LjcyLDMuMDhjLTAuODUsOC4zOC0wLjg1LDguMzgtMC44NSw4LjM4TDAuNjcsNDcuNDV6Ii8+JiN4YTsJCTwvZz4mI3hhOwkJPGcgaWQ9InNoYXBlNzA3MS0xMiIgdHJhbnNmb3JtPSJ0cmFuc2xhdGUoNC44NjI3OSwtMjMuNzQyKSI+JiN4YTsJCQk8dGl0bGUgaWQ9InRpdGxlMzExNjU4Ij5TaGVldC43MDcxPC90aXRsZT4mI3hhOwkJCTxwYXRoIGlkPSJwYXRoMzExNjYwIiBpbmtzY2FwZTpjb25uZWN0b3ItY3VydmF0dXJlPSIwIiBzdHlsZT0iZmlsbDojRTZFN0U4OyIgZD0iTTcuNTgsNDguMDdIMC4zNmwtMC4xMy04Ljg4TDAsMzQuNTRsNi44OS0wLjQ4ICAgICBMNy41OCw0OC4wN3oiLz4mI3hhOwkJPC9nPiYjeGE7CQk8ZyBpZD0ic2hhcGU3MDcyLTE0IiB0cmFuc2Zvcm09InRyYW5zbGF0ZSg0Ljg2Mjc5LC0zNS44MDc2KSI+JiN4YTsJCQk8dGl0bGUgaWQ9InRpdGxlMzExNjYzIj5TaGVldC43MDcyPC90aXRsZT4mI3hhOwkJCTxwYXRoIGlkPSJwYXRoMzExNjY1IiBpbmtzY2FwZTpjb25uZWN0b3ItY3VydmF0dXJlPSIwIiBzdHlsZT0iZmlsbDojRTZFN0U4OyIgZD0iTTAuNjYsNDguMDdMMCw0NS4ybDQuNjQtMS4wMmwwLjYxLDIuODQgICAgIEwwLjY2LDQ4LjA3eiIvPiYjeGE7CQk8L2c+JiN4YTsJCTxnIGlkPSJzaGFwZTcwNzMtMTYiIHRyYW5zZm9ybT0idHJhbnNsYXRlKDkuOTE4MTgsLTIzLjc0MikiPiYjeGE7CQkJPHRpdGxlIGlkPSJ0aXRsZTMxMTY2OCI+U2hlZXQuNzA3MzwvdGl0bGU+JiN4YTsJCQk8cGF0aCBpZD0icGF0aDMxMTY3MCIgaW5rc2NhcGU6Y29ubmVjdG9yLWN1cnZhdHVyZT0iMCIgc3R5bGU9ImZpbGw6I0U2RTdFODsiIGQ9Ik0wLDQ4LjA3aDQuNjdsMC4xNy04Ljg0bDAuMjItNC42M0wwLDM0LjI1ICAgICBWNDguMDd6Ii8+JiN4YTsJCTwvZz4mI3hhOwkJPGcgaWQ9InNoYXBlNzA3NC0xOCIgdHJhbnNmb3JtPSJ0cmFuc2xhdGUoOS41MjkzMSwtMzUuODA3NikiPiYjeGE7CQkJPHRpdGxlIGlkPSJ0aXRsZTMxMTY3MyI+U2hlZXQuNzA3NDwvdGl0bGU+JiN4YTsJCQk8cGF0aCBpZD0icGF0aDMxMTY3NSIgaW5rc2NhcGU6Y29ubmVjdG9yLWN1cnZhdHVyZT0iMCIgc3R5bGU9ImZpbGw6I0U2RTdFODsiIGQ9Ik01LjA2LDQ4LjA3bC01LjA2LTFsMC42LTIuODlsNS4wNCwxLjA0ICAgICBMNS4wNiw0OC4wN3oiLz4mI3hhOwkJPC9nPiYjeGE7CQk8ZyBpZD0ic2hhcGU3MDc1LTIwIiB0cmFuc2Zvcm09InRyYW5zbGF0ZSg3LjE5NjA1LC0zMi4zMDQ2KSI+JiN4YTsJCQk8dGl0bGUgaWQ9InRpdGxlMzExNjc4Ij5TaGVldC43MDc1PC90aXRsZT4mI3hhOwkJCTxwYXRoIGlkPSJwYXRoMzExNjgwIiBpbmtzY2FwZTpjb25uZWN0b3ItY3VydmF0dXJlPSIwIiBzdHlsZT0iZmlsbDojMDBCMjk0OyIgZD0iTTQuNDEsNDYuMDJjLTAuMTgsMC0wLjM2LDAuMDQtMC41MiwwLjE1ICAgICBjMC0wLjExLTAuMDQtMC4xOC0wLjA3LTAuMjZjLTAuMDgtMC4xOC0wLjA4LTAuMTgtMC4wOC0wLjE4Yy0wLjAzLTAuMTgtMC4xMS0wLjMzLTAuMTEtMC40YzAuMDgtMC4xNCwwLjA4LTAuMTQsMC4wOC0wLjE0ICAgICBjMC0wLjA0LDAtMC4wNC0wLjA0LTAuMDhjLTAuMTEtMC4xMi0wLjExLTAuMTItMC4xMS0wLjEyYzAtMC4wNC0wLjA0LTAuMDQtMC4wNC0wLjA0Yy0wLjQxLDAtMC40MSwwLTAuNDEsMCAgICAgYy0wLjA0LDAtMC4wNywwLjA0LTAuMDcsMC4wOGMwLDAuMDUsMC4wMywwLjA4LDAuMDcsMC4wOGMwLjM4LDAsMC4zOCwwLDAuMzgsMGMwLjA3LDAuMDgsMC4wNywwLjA4LDAuMDcsMC4wOCAgICAgYy0wLjA3LDAuMTQtMC4wNywwLjE0LTAuMDcsMC4xNHMwLDAsMCwwLjA0YzAuMDMsMCwwLjA3LDAuMTQsMC4xNCwwLjMzYy0xLjUyLDAtMS41MiwwLTEuNTIsMGMtMC4wMy0wLjExLTAuMDMtMC4xMS0wLjAzLTAuMTEgICAgIGMwLjE0LTAuMDQsMC4zNC0wLjExLDAuNDEtMC4yMmMtMC45MywwLTAuOTMsMC0wLjkzLDBjMCwwLjE0LDAuMTUsMC4yNSwwLjM0LDAuMjVjMC4wMywwLDAuMDMsMCwwLjA3LDBsMCwwICAgICBjMC4wNCwwLjE1LDAuMDQsMC4xNSwwLjA0LDAuMTVjLTAuMzcsMC40NC0wLjM3LDAuNDQtMC4zNywwLjQ0Yy0wLjE5LTAuMTEtMC4zOC0wLjE5LTAuNTktMC4xOUMwLjQ5LDQ2LjAyLDAsNDYuNDYsMCw0Ny4wNSAgICAgYzAsMC41NCwwLjQ5LDEuMDIsMS4wNSwxLjAyYzAuNDcsMCwwLjg4LTAuMzMsMC45OS0wLjc3YzAuMjIsMC4wNCwwLjIyLDAuMDQsMC4yMiwwLjA0YzAsMC4wNywwLjA3LDAuMTgsMC4xNiwwLjIyICAgICBjLTAuMDQsMC4yMi0wLjA0LDAuMjItMC4wNCwwLjIyYy0wLjEyLDAtMC4xMiwwLTAuMTIsMGMtMC4wNCwwLTAuMDcsMC0wLjA3LDAuMDNjMCwwLjA0LDAuMDMsMC4wOCwwLjA3LDAuMDhjMC4zLDAsMC4zLDAsMC4zLDAgICAgIGMwLjA0LDAsMC4wNC0wLjA0LDAuMDQtMC4wOGMwLTAuMDMsMC0wLjAzLTAuMDQtMC4wM2MtMC4wNywwLTAuMDcsMC0wLjA3LDBjMC4wNC0wLjIyLDAuMDQtMC4yMiwwLjA0LTAuMjIgICAgIGMwLjE0LDAsMC4yNS0wLjExLDAuMjUtMC4yNmMwLTAuMDMtMC4wMy0wLjA3LTAuMDctMC4xMWMxLjAzLTEuMTMsMS4wMy0xLjEzLDEuMDMtMS4xM2MwLjA0LDAuMDQsMC4wNCwwLjExLDAuMDgsMC4xNSAgICAgYy0wLjI2LDAuMjItMC40NCwwLjQ3LTAuNDQsMC44NGMwLDAuNTQsMC40NCwxLjAyLDEuMDMsMS4wMmMwLjYsMCwxLjAzLTAuNDgsMS4wMy0xLjAyQzUuNDQsNDYuNDYsNS4wMSw0Ni4wMiw0LjQxLDQ2LjAyeiAgICAgIE0xLjA1LDQ3LjkyYy0wLjQ5LDAtMC44OS0wLjQtMC44OS0wLjg3YzAtMC40OCwwLjQtMC44OCwwLjg5LTAuODhjMC4xOCwwLDAuMzIsMC4wNywwLjQ3LDAuMTVjLTAuNDcsMC42Mi0wLjQ3LDAuNjItMC40NywwLjYyICAgICBsMCwwYy0wLjA0LDAtMC4xMSwwLjAzLTAuMTEsMC4xMWgwLjAzYy0wLjAzLDAuMDMtMC4wMywwLjAzLTAuMDMsMC4wM2MwLjA3LDAsMC4wNywwLDAuMDcsMGMwLDAuMDQsMCwwLjA4LDAuMDQsMC4wOCAgICAgYzAuMDMsMCwwLjAzLTAuMDQsMC4wMy0wLjA0YzAuODIsMC4xNSwwLjgyLDAuMTUsMC44MiwwLjE1QzEuNzksNDcuNjMsMS40NSw0Ny45MiwxLjA1LDQ3LjkyeiBNMS45Myw0Ny4wNWMwLDAuMDMsMCwwLjA3LDAsMC4xMSAgICAgYy0wLjc4LTAuMTUtMC43OC0wLjE1LTAuNzgtMC4xNWMwLjQ5LTAuNjIsMC40OS0wLjYyLDAuNDktMC42MkMxLjgyLDQ2LjU3LDEuOTMsNDYuNzksMS45Myw0Ny4wNXogTTEuNzUsNDYuMjggICAgIGMwLjI5LTAuNCwwLjI5LTAuNCwwLjI5LTAuNGMwLjM4LDEuMjQsMC4zOCwxLjI0LDAuMzgsMS4yNGMtMC4wOSwwLjA0LTAuMDksMC4wNC0wLjEyLDAuMTFjLTAuMjItMC4wNy0wLjIyLTAuMDctMC4yMi0wLjA3ICAgICBjMC0wLjA0LDAtMC4wOCwwLTAuMTFDMi4wOCw0Ni43MiwxLjk3LDQ2LjQ2LDEuNzUsNDYuMjh6IE0yLjY3LDQ3LjA1YzAuMDgtMC4yMiwwLjA4LTAuMjIsMC4wOC0wLjIyYzAuMDcsMCwwLjA3LDAsMC4wNywwICAgICBjMC4wNCwwLDAuMDctMC4wNCwwLjA3LTAuMDRjMC0wLjA0LTAuMDMtMC4wNy0wLjA3LTAuMDdjLTAuMjYsMC0wLjI2LDAtMC4yNiwwYy0wLjAzLDAtMC4wNywwLjAzLTAuMDcsMC4wNyAgICAgYzAsMCwwLjA0LDAuMDQsMC4wNywwLjA0YzAuMDQsMCwwLjA0LDAsMC4wNCwwYy0wLjA0LDAuMjUtMC4wNCwwLjI1LTAuMDQsMC4yNWMtMC4wMywwLTAuMDMsMC0wLjAzLDBsMCwwICAgICBjLTAuMzgtMS4yNy0wLjM4LTEuMjctMC4zOC0xLjI3YzEuNTIsMCwxLjUyLDAsMS41MiwwYzAsMC4wMywwLDAuMDcsMC4wNCwwLjFMMi42Nyw0Ny4wNXogTTQuNDEsNDcuOTIgICAgIGMtMC40NywwLTAuODktMC40LTAuODktMC44N2MwLTAuMywwLjE1LTAuNTEsMC4zMy0wLjY2YzAuMDQsMC4wNywwLjA5LDAuMTUsMC4wOSwwLjIyYzAuMTEsMC4xOCwwLjI5LDAuMzMsMC4zNiwwLjQ0bDAsMCAgICAgYzAsMC4wMywwLjA0LDAuMTEsMC4xMSwwLjExczAuMTEtMC4wOCwwLjExLTAuMTFjMC0wLjA4LTAuMDQtMC4xMS0wLjExLTAuMTFsMCwwYy0wLjExLTAuMDgtMC4yOS0wLjIyLTAuMzYtMC40ICAgICBjMC0wLjA0LTAuMDQtMC4xMS0wLjA4LTAuMjJjMC4xMS0wLjA4LDAuMjYtMC4xNSwwLjQ0LTAuMTVjMC40OSwwLDAuODksMC40LDAuODksMC44OEM1LjMsNDcuNTIsNC45LDQ3LjkyLDQuNDEsNDcuOTJ6Ii8+JiN4YTsJCTwvZz4mI3hhOwkJPGcgaWQ9InNoYXBlNzA3Ni0yMiIgdHJhbnNmb3JtPSJ0cmFuc2xhdGUoOS45MTgxOCwtMzguMzM3NCkiPiYjeGE7CQkJPHRpdGxlIGlkPSJ0aXRsZTMxMTY4MyI+U2hlZXQuNzA3NjwvdGl0bGU+JiN4YTsJCQk8cGF0aCBpZD0icGF0aDMxMTY4NSIgaW5rc2NhcGU6Y29ubmVjdG9yLWN1cnZhdHVyZT0iMCIgc3R5bGU9ImZpbGw6I0YyN0FCNDsiIGQ9Ik0wLjE5LDQ3Ljg3YzAsMC4xNC0wLjA5LDAuMi0wLjE0LDAuMiAgICAgYzAsMCwwLDAtMC4wNS0wLjA2QzAuMTksNDcuODcsMC4xOSw0Ny44NywwLjE5LDQ3Ljg3TDAuMTksNDcuODd6Ii8+JiN4YTsJCTwvZz4mI3hhOwkJPGcgaWQ9InNoYXBlNzA3Ny0yNCIgdHJhbnNmb3JtPSJ0cmFuc2xhdGUoOC4xNjgyNCwtMzcuNzUzNikiPiYjeGE7CQkJPHRpdGxlIGlkPSJ0aXRsZTMxMTY4OCI+U2hlZXQuNzA3NzwvdGl0bGU+JiN4YTsJCQk8cGF0aCBpZD0icGF0aDMxMTY5MCIgaW5rc2NhcGU6Y29ubmVjdG9yLWN1cnZhdHVyZT0iMCIgc3R5bGU9ImZpbGw6I0NFOUM1RTsiIGQ9Ik0xLjg1LDQ4LjA3QzAuODQsNDguMDcsMCw0Ny4zOSwwLDQ2LjMzICAgICBjMC0xLjM4LDAtMS4zOCwwLTEuMzhjMy42OSwwLDMuNjksMCwzLjY5LDBjMCwxLjM4LDAsMS4zOCwwLDEuMzhDMy42OSw0Ny4zOSwyLjg3LDQ4LjA3LDEuODUsNDguMDd6Ii8+JiN4YTsJCTwvZz4mI3hhOwkJPGcgaWQ9InNoYXBlNzA3OC0yNiIgdHJhbnNmb3JtPSJ0cmFuc2xhdGUoNy4wMDE2MSwtMzkuNjk5NykiPiYjeGE7CQkJPHRpdGxlIGlkPSJ0aXRsZTMxMTY5MyI+U2hlZXQuNzA3ODwvdGl0bGU+JiN4YTsJCQk8cGF0aCBpZD0icGF0aDMxMTY5NSIgaW5rc2NhcGU6Y29ubmVjdG9yLWN1cnZhdHVyZT0iMCIgc3R5bGU9ImZpbGw6I0NFOUM1RTsiIGQ9Ik01LjgzLDQ0LjE0YzAsMi4zMy0xLjI2LDMuOTMtMi45MywzLjkzICAgICBjLTEuNjYsMC0yLjktMS42LTIuOS0zLjkzYzAtMi4zNSwxLjI0LTQuMjUsMi45LTQuMjVDNS4wMSwzOS44OSw1LjgzLDQxLjc5LDUuODMsNDQuMTR6Ii8+JiN4YTsJCTwvZz4mI3hhOwkJPGcgaWQ9InNoYXBlNzA3OS0yOCIgdHJhbnNmb3JtPSJ0cmFuc2xhdGUoNi42MTI3MywtNDIuNDI0MikiPiYjeGE7CQkJPHRpdGxlIGlkPSJ0aXRsZTMxMTY5OCI+U2hlZXQuNzA3OTwvdGl0bGU+JiN4YTsJCQk8cGF0aCBpZD0icGF0aDMxMTcwMCIgaW5rc2NhcGU6Y29ubmVjdG9yLWN1cnZhdHVyZT0iMCIgc3R5bGU9ImZpbGw6I0NFOUM1RTsiIGQ9Ik0wLjU4LDQ2LjMyYy0wLjMyLDAtMC4zMiwwLTAuMzIsMCAgICAgQzAuMSw0Ni4zMiwwLDQ2LjQ2LDAsNDYuNjNjMCwxLjEzLDAsMS4xMywwLDEuMTNjMCwwLjE3LDAuMSwwLjMxLDAuMjYsMC4zMWMwLjIsMCwwLjIsMCwwLjIsMEwwLjU4LDQ2LjMyeiIvPiYjeGE7CQk8L2c+JiN4YTsJCTxnIGlkPSJzaGFwZTcwODAtMzAiIHRyYW5zZm9ybT0idHJhbnNsYXRlKDEyLjY0MDMsLTQyLjQyNDIpIj4mI3hhOwkJCTx0aXRsZSBpZD0idGl0bGUzMTE3MDMiPlNoZWV0LjcwODA8L3RpdGxlPiYjeGE7CQkJPHBhdGggaWQ9InBhdGgzMTE3MDUiIGlua3NjYXBlOmNvbm5lY3Rvci1jdXJ2YXR1cmU9IjAiIHN0eWxlPSJmaWxsOiNDRTlDNUU7IiBkPSJNMCw0Ni4zMmMwLjQ2LDAsMC40NiwwLDAuNDYsMCAgICAgYzAuMiwwLDAuMzIsMC4xNCwwLjMyLDAuMzFjMCwxLjEzLDAsMS4xMywwLDEuMTNjMCwwLjE3LTAuMTIsMC4zMS0wLjMyLDAuMzFjLTAuMjksMC0wLjI5LDAtMC4yOSwwTDAsNDYuMzJ6Ii8+JiN4YTsJCTwvZz4mI3hhOwkJPGcgaWQ9InNoYXBlNzA4MS0zMiIgdHJhbnNmb3JtPSJ0cmFuc2xhdGUoOC41NTcxMSwtNDMuNTkxOCkiPiYjeGE7CQkJPHRpdGxlIGlkPSJ0aXRsZTMxMTcwOCI+U2hlZXQuNzA4MTwvdGl0bGU+JiN4YTsJCQk8cGF0aCBpZD0icGF0aDMxMTcxMCIgaW5rc2NhcGU6Y29ubmVjdG9yLWN1cnZhdHVyZT0iMCIgc3R5bGU9ImZpbGw6IzIzMUYyMDsiIGQ9Ik0wLjE5LDQ4LjA3YzAuMSwwLDAuMi0wLjA5LDAuMi0wLjIxICAgICBjMC0wLjA4LTAuMS0wLjE4LTAuMi0wLjE4QzAuMDcsNDcuNjgsMCw0Ny43OCwwLDQ3LjlDMCw0Ny45OCwwLjEsNDguMDcsMC4xOSw0OC4wN3oiLz4mI3hhOwkJPC9nPiYjeGE7CQk8ZyBpZD0ic2hhcGU3MDgyLTM0IiB0cmFuc2Zvcm09InRyYW5zbGF0ZSgxMS4wODQ4LC00My4zOTcyKSI+JiN4YTsJCQk8dGl0bGUgaWQ9InRpdGxlMzExNzEzIj5TaGVldC43MDgyPC90aXRsZT4mI3hhOwkJCTxwYXRoIGlkPSJwYXRoMzExNzE1IiBpbmtzY2FwZTpjb25uZWN0b3ItY3VydmF0dXJlPSIwIiBzdHlsZT0iZmlsbDojMjMxRjIwOyIgZD0iTTAuMTksNDguMDdjMC4xLDAsMC4yLTAuMTQsMC4yLTAuMzEgICAgIGMwLTAuMTMtMC4xLTAuMjgtMC4yLTAuMjhDMC4xLDQ3LjQ4LDAsNDcuNjMsMCw0Ny44QzAsNDcuOTMsMC4xLDQ4LjA3LDAuMTksNDguMDd6Ii8+JiN4YTsJCTwvZz4mI3hhOwkJPGcgaWQ9InNoYXBlNzA4My0zNiIgdHJhbnNmb3JtPSJ0cmFuc2xhdGUoOC4xNjgyNCwtMzkuNTA1MSkiPiYjeGE7CQkJPHRpdGxlIGlkPSJ0aXRsZTMxMTcxOCI+U2hlZXQuNzA4MzwvdGl0bGU+JiN4YTsJCQk8cGF0aCBpZD0icGF0aDMxMTcyMCIgaW5rc2NhcGU6Y29ubmVjdG9yLWN1cnZhdHVyZT0iMCIgc3R5bGU9ImZpbGw6I0NFOUM1RTsiIGQ9Ik0wLDQ2LjcxYzMuNSwwLDMuNSwwLDMuNSwwICAgICBjLTAuNDQsMC44My0xLjAzLDEuMzYtMS43NSwxLjM2QzEuMDUsNDguMDcsMC40NSw0Ny41NCwwLDQ2LjcxeiIvPiYjeGE7CQk8L2c+JiN4YTsJCTxnIGlkPSJzaGFwZTcwODQtMzgiIHRyYW5zZm9ybT0idHJhbnNsYXRlKDguMTY4MjQsLTM5LjMxMDUpIj4mI3hhOwkJCTx0aXRsZSBpZD0idGl0bGUzMTE3MjMiPlNoZWV0LjcwODQ8L3RpdGxlPiYjeGE7CQkJPHBhdGggaWQ9InBhdGgzMTE3MjUiIGlua3NjYXBlOmNvbm5lY3Rvci1jdXJ2YXR1cmU9IjAiIHN0eWxlPSJmaWxsOiNCQThENTc7IiBkPSJNMy42OSw0Ni45YzAsMC4yOSwwLDAuMjksMCwwLjI5ICAgICBjMCwwLjI4LTEuMTksMC44OC0xLjg0LDAuODhDMS4yNCw0OC4wNywwLDQ3LjYyLDAsNDcuMTljMC0wLjI5LDAtMC4yOSwwLTAuMjljMC4yNiwwLjI2LDAuNTUsMC40NiwwLjg3LDAuNjEgICAgIGMwLjMsMC4yNCwwLjYyLDAuMzUsMC45OCwwLjM1czAuNjktMC4xMSwwLjk4LTAuMzVDMy4xNiw0Ny4zNiwzLjQ1LDQ3LjE2LDMuNjksNDYuOXoiLz4mI3hhOwkJPC9nPiYjeGE7CQk8ZyBpZD0ic2hhcGU3MDg1LTQwIiB0cmFuc2Zvcm09InRyYW5zbGF0ZSg4Ljc1MTU1LC00MS4wNjE5KSI+JiN4YTsJCQk8dGl0bGUgaWQ9InRpdGxlMzExNzI4Ij5TaGVldC43MDg1PC90aXRsZT4mI3hhOwkJCTxwYXRoIGlkPSJwYXRoMzExNzMwIiBpbmtzY2FwZTpjb25uZWN0b3ItY3VydmF0dXJlPSIwIiBzdHlsZT0iZmlsbDojRkZGRkZGOyIgZD0iTTEuMTcsNDguMDdjMC41NCwwLDAuOC0wLjEyLDEuMTYtMC4yICAgICBjLTAuMTgsMC4wNC0wLjYyLDAuMDgtMS4xNiwwLjA4Yy0wLjU5LDAtMC45OS0wLjA0LTEuMTctMC4wOEMwLjM2LDQ3Ljk1LDAuNjIsNDguMDcsMS4xNyw0OC4wN3oiLz4mI3hhOwkJPC9nPiYjeGE7CQk8ZyBpZD0ic2hhcGU3MDg2LTQyIiB0cmFuc2Zvcm09InRyYW5zbGF0ZSg4Ljc1MTU1LC00MC44NjczKSI+JiN4YTsJCQk8dGl0bGUgaWQ9InRpdGxlMzExNzMzIj5TaGVldC43MDg2PC90aXRsZT4mI3hhOwkJCTxwYXRoIGlkPSJwYXRoMzExNzM1IiBpbmtzY2FwZTpjb25uZWN0b3ItY3VydmF0dXJlPSIwIiBzdHlsZT0iZmlsbDojQkIxNDFBOyIgZD0iTTEuMjksNDguMDdjLTAuMzgsMC0wLjYxLTAuMS0wLjg2LTAuMTUgICAgIGMtMC4wOS0wLjA1LTAuMi0wLjEtMC4zMS0wLjE0Yy0wLjAzLDAtMC4wMywwLTAuMDcsMEwwLDQ3LjczYzAuMDUtMC4wNSwwLjA1LTAuMDUsMC4wOS0wLjA1YzAsMCwwLjAzLDAsMC4wNywwICAgICBjMC4xOCwwLjA1LDAuNjEsMC4xLDEuMTMsMC4xYzAuNDgsMCwwLjkxLTAuMDUsMS4xMy0wLjFjMC4wMywwLDAuMDMsMCwwLjA3LDBzMC4wNCwwLDAuMDQsMC4wNWMwLDAsMCwwLjA1LTAuMDQsMC4wNSAgICAgYzAsMC0wLjA0LDAtMC4wNywwYy0wLjA3LDAuMDQtMC4xOCwwLjA5LTAuMzEsMC4xNEMxLjksNDcuOTcsMS42Myw0OC4wNywxLjI5LDQ4LjA3eiBNMC42MSw0Ny44N2MwLjE5LDAuMDUsMC40MSwwLjEsMC42OCwwLjEgICAgIHMwLjQ4LTAuMDUsMC42OC0wLjFjLTAuMjMsMC0wLjQ1LDAtMC42OCwwQzEuMDIsNDcuODcsMC44LDQ3Ljg3LDAuNjEsNDcuODd6Ii8+JiN4YTsJCTwvZz4mI3hhOwkJPGcgaWQ9InNoYXBlNzA4Ny00NCIgdHJhbnNmb3JtPSJ0cmFuc2xhdGUoOS4zMzQ4NywtNDEuODQwNCkiPiYjeGE7CQkJPHRpdGxlIGlkPSJ0aXRsZTMxMTczOCI+U2hlZXQuNzA4NzwvdGl0bGU+JiN4YTsJCQk8cGF0aCBpZD0icGF0aDMxMTc0MCIgaW5rc2NhcGU6Y29ubmVjdG9yLWN1cnZhdHVyZT0iMCIgc3R5bGU9ImZpbGw6I0JBOEQ1NzsiIGQ9Ik0xLjE3LDQ3LjQ4YzAsMC4xNS0wLjEsMC4zLTAuMjEsMC4yNSAgICAgYy0wLjA0LDAtMC4wNywwLjA5LTAuMTUsMC4xNGMtMC4wNiwwLjEtMC4xMywwLjItMC4yNCwwLjJjLTAuMDcsMC0wLjE4LTAuMS0wLjI0LTAuMmMtMC4wNy0wLjA1LTAuMTEtMC4xNC0wLjExLTAuMTQgICAgIEMwLjA3LDQ3Ljc4LDAsNDcuNjMsMCw0Ny40OGwwLDBDMS4xNyw0Ny40OCwxLjE3LDQ3LjQ4LDEuMTcsNDcuNDhMMS4xNyw0Ny40OHoiLz4mI3hhOwkJPC9nPiYjeGE7CQk8ZyBpZD0ic2hhcGU3MDg4LTQ2IiB0cmFuc2Zvcm09InRyYW5zbGF0ZSg3LjAwMTYxLC00Mi44MTM0KSI+JiN4YTsJCQk8dGl0bGUgaWQ9InRpdGxlMzExNzQzIj5TaGVldC43MDg4PC90aXRsZT4mI3hhOwkJCTxwYXRoIGlkPSJwYXRoMzExNzQ1IiBpbmtzY2FwZTpjb25uZWN0b3ItY3VydmF0dXJlPSIwIiBzdHlsZT0iZmlsbDojRkZCOTAwOyIgZD0iTTYuMDMsNDUuNTRjMCwyLjUzLDAsMi41MywwLDIuNTMgICAgIGMtMC4yNiwwLTAuMjYsMC0wLjI2LDBjLTAuMTQtMy4wNC0wLjE0LTMuMDQtMC4xNC0zLjA0QzQuOCw0NS4xNyw0LjgsNDUuMTcsNC44LDQ1LjE3Yy0xLjE5LDAuMTUtMi4zOCwwLjE1LTMuNTYsMCAgICAgYy0wLjgzLTAuMTQtMC44My0wLjE0LTAuODMtMC4xNGMtMC4xOCwzLTAuMTgsMy0wLjE4LDNjLTAuMjMsMC0wLjIzLDAtMC4yMywwYzAtMi40OSwwLTIuNDksMC0yLjQ5YzAtMS41MSwxLjA1LTIuNzMsMi4zMS0yLjczICAgICBjMS4zOCwwLDEuMzgsMCwxLjM4LDBDNC45OSw0Mi44MSw2LjAzLDQ0LjAzLDYuMDMsNDUuNTR6Ii8+JiN4YTsJCTwvZz4mI3hhOwkJPGcgaWQ9InNoYXBlNzA4OS00OCIgdHJhbnNmb3JtPSJ0cmFuc2xhdGUoMTAuODkwNCwtNDQuMTc1NikiPiYjeGE7CQkJPHRpdGxlIGlkPSJ0aXRsZTMxMTc0OCI+U2hlZXQuNzA4OTwvdGl0bGU+JiN4YTsJCQk8cGF0aCBpZD0icGF0aDMxMTc1MCIgaW5rc2NhcGU6Y29ubmVjdG9yLWN1cnZhdHVyZT0iMCIgc3R5bGU9ImZpbGw6I0ZGQjkwMDsiIGQ9Ik0wLjk3LDQ4LjA3YzAsMC0wLjA2LTAuMDMtMC4xNi0wLjEgICAgIGMtMC4wMywwLTAuMDYtMC4wMi0wLjEzLTAuMDZjLTAuMDItMC4wNC0wLjA2LTAuMDQtMC4wNi0wLjA0cy0wLjA0LTAuMDItMC4wNi0wLjAyYzAsMCwwLDAtMC4wNCwwYy0wLjEzLTAuMDQtMC4yNSwwLTAuMzUsMCAgICAgYy0wLjA0LDAtMC4wNywwLTAuMSwwcy0wLjA3LDAtMC4wNywwbDAsMGMwLTAuMDQsMC0wLjA0LDAtMC4wNHMwLjA3LTAuMDMsMC4xNy0wLjA2YzAuMS0wLjAzLDAuMjItMC4wNywwLjM5LTAuMDMgICAgIGMwLDAsMC4wMiwwLDAuMDYsMGMwLDAsMCwwLDAuMDQsMC4wM2MwLjAyLDAsMC4wNiwwLjAzLDAuMDksMC4wM2MwLjA2LDAuMDcsMC4xLDAuMDksMC4xMiwwLjEzYzAuMDQsMC4wNCwwLjA4LDAuMSwwLjEsMC4xICAgICBDMC45Nyw0OC4wNCwwLjk3LDQ4LjA3LDAuOTcsNDguMDdMMC45Nyw0OC4wN0MwLjk3LDQ4LjA3LDAuOTcsNDguMDcsMC45Nyw0OC4wN3oiLz4mI3hhOwkJPC9nPiYjeGE7CQk8ZyBpZD0ic2hhcGU3MDkwLTUwIiB0cmFuc2Zvcm09InRyYW5zbGF0ZSg4LjE2ODI0LC00NC4xODE3KSI+JiN4YTsJCQk8dGl0bGUgaWQ9InRpdGxlMzExNzUzIj5TaGVldC43MDkwPC90aXRsZT4mI3hhOwkJCTxwYXRoIGlkPSJwYXRoMzExNzU1IiBpbmtzY2FwZTpjb25uZWN0b3ItY3VydmF0dXJlPSIwIiBzdHlsZT0iZmlsbDojRkZCOTAwOyIgZD0iTTAuOTUsNDcuODVjMCwwLTAuMDYsMC0wLjE2LTAuMDMgICAgIGMtMC4wNCwwLTAuMSwwLTAuMTYsMGMtMC4wMiwwLTAuMDYsMC0wLjEsMEgwLjUxSDAuNDdjLTAuMTIsMC4wMy0wLjIxLDAuMS0wLjMxLDAuMTZjLTAuMDMsMC4wMy0wLjA2LDAuMDMtMC4wOSwwLjA3ICAgICBjLTAuMDMsMC0wLjAzLDAtMC4wMywwYzAsMC4wMi0wLjA0LDAuMDItMC4wNCwwbDAsMGMwLDAsMC4wNC0wLjA3LDAuMS0wLjEzYzAuMDktMC4xLDAuMTktMC4xNiwwLjM1LTAuMjRoMC4wMiAgICAgYzAuMDQsMCwwLjA0LDAsMC4wNiwwYzAuMDQsMCwwLjEsMCwwLjE0LDBjMC4wNiwwLDAuMDgsMC4wNCwwLjE2LDAuMDRjMC4wMiwwLjA0LDAuMDgsMC4wNiwwLjA4LDAuMDYgICAgIGMwLjA0LDAuMDQsMC4wNiwwLjA0LDAuMDYsMC4wNHMwLDAsMCwwLjAzQzAuOTcsNDcuODUsMC45NSw0Ny44NSwwLjk1LDQ3Ljg1eiIvPiYjeGE7CQk8L2c+JiN4YTsJCTxnIGlkPSJzaGFwZTcwOTEtNTIiIHRyYW5zZm9ybT0idHJhbnNsYXRlKDkuMzM0ODcsLTQyLjQyNDIpIj4mI3hhOwkJCTx0aXRsZSBpZD0idGl0bGUzMTE3NTgiPlNoZWV0LjcwOTE8L3RpdGxlPiYjeGE7CQkJPHBhdGggaWQ9InBhdGgzMTE3NjAiIGlua3NjYXBlOmNvbm5lY3Rvci1jdXJ2YXR1cmU9IjAiIHN0eWxlPSJmaWxsOiNEOUIwN0Y7IiBkPSJNMC43OCw0Ni4zMmMwLDEuNzUsMCwxLjc1LDAsMS43NSAgICAgYy0wLjc4LDAtMC43OCwwLTAuNzgsMGMwLTAuMDQsMC4wNS0wLjExLDAuMS0wLjE1YzAuMTMtMC4xMSwwLjIzLTAuMywwLjI4LTAuNTNjMC4wMy0wLjc2LDAuMDMtMC43NiwwLjAzLTAuNzYgICAgIEMwLjQxLDQ2LjQsMC42OSw0Ni4zMiwwLjc4LDQ2LjMyeiIvPiYjeGE7CQk8L2c+JiN4YTsJCTxnIGlkPSJzaGFwZTcwOTItNTQiIHRyYW5zZm9ybT0idHJhbnNsYXRlKDIuMzM1MSwtMjQuNTIwNCkiPiYjeGE7CQkJPHRpdGxlIGlkPSJ0aXRsZTMxMTc2MyI+U2hlZXQuNzA5MjwvdGl0bGU+JiN4YTsJCQk8cGF0aCBpZD0icGF0aDMxMTc2NSIgaW5rc2NhcGU6Y29ubmVjdG9yLWN1cnZhdHVyZT0iMCIgc3R5bGU9ImZpbGw6I0U2MUUyNzsiIGQ9Ik00LjA2LDQ4LjA3bDYuMDUtNS45bC00LjEyLTQuMjJMMCw0My44OCAgICAgTDQuMDYsNDguMDd6Ii8+JiN4YTsJCTwvZz4mI3hhOwkJPGcgaWQ9InNoYXBlNzA5My01NiIgdHJhbnNmb3JtPSJ0cmFuc2xhdGUoMi4zMzUxLC0yNC41MjA0KSI+JiN4YTsJCQk8dGl0bGUgaWQ9InRpdGxlMzExNzY4Ij5TaGVldC43MDkzPC90aXRsZT4mI3hhOwkJCTxwYXRoIGlkPSJwYXRoMzExNzcwIiBpbmtzY2FwZTpjb25uZWN0b3ItY3VydmF0dXJlPSIwIiBzdHlsZT0iZmlsbDojRUQ0RTVBOyIgZD0iTTQuMDYsNDguMDdsNi4wNS01Ljg0TDAsNDMuOTNMNC4wNiw0OC4wN3oiLz4mI3hhOwkJPC9nPiYjeGE7CQk8ZyBpZD0ic2hhcGU3MDk0LTU4IiB0cmFuc2Zvcm09InRyYW5zbGF0ZSgwLjM5MDcxNSwtMzAuOTQyNCkiPiYjeGE7CQkJPHRpdGxlIGlkPSJ0aXRsZTMxMTc3MyI+U2hlZXQuNzA5NDwvdGl0bGU+JiN4YTsJCQk8cGF0aCBpZD0icGF0aDMxMTc3NSIgaW5rc2NhcGU6Y29ubmVjdG9yLWN1cnZhdHVyZT0iMCIgc3R5bGU9ImZpbGw6I0NFOUM1RTsiIGQ9Ik0wLDQ2LjRsMi4zNiwxLjY3bDQuMDYtNC42NGwtMy4yNC0yLjM3TDAsNDYuNCAgICAgeiIvPiYjeGE7CQk8L2c+JiN4YTsJCTxnIGlkPSJzaGFwZTcwOTUtNjAiIHRyYW5zZm9ybT0idHJhbnNsYXRlKDMuMTgyNzQsLTM0LjcxNzQpIj4mI3hhOwkJCTx0aXRsZSBpZD0idGl0bGUzMTE3NzgiPlNoZWV0LjcwOTU8L3RpdGxlPiYjeGE7CQkJPHBhdGggaWQ9InBhdGgzMTE3ODAiIGlua3NjYXBlOmNvbm5lY3Rvci1jdXJ2YXR1cmU9IjAiIHN0eWxlPSJmaWxsOiNFNkU3RTg7IiBkPSJNMC4zOCw0NC45NWMwLjYzLTAuODYsMS44Ni0xLjA5LDIuNzYtMC40MiAgICAgYzAuODksMC42NCwxLjA3LDEuODUsMC40NCwyLjc0Yy0wLjY3LDAuODUtMS44NiwxLjA3LTIuNzYsMC40NUMtMC4wNyw0Ny4wOS0wLjI2LDQ1Ljg3LDAuMzgsNDQuOTV6Ii8+JiN4YTsJCTwvZz4mI3hhOwkJPGcgaWQ9InNoYXBlNzA5Ni02MiIgdHJhbnNmb3JtPSJ0cmFuc2xhdGUoNS40NDYxMSwtMjYuNTQzMikiPiYjeGE7CQkJPHRpdGxlIGlkPSJ0aXRsZTMxMTc4MyI+U2hlZXQuNzA5NjwvdGl0bGU+JiN4YTsJCQk8cGF0aCBpZD0icGF0aDMxMTc4NSIgaW5rc2NhcGU6Y29ubmVjdG9yLWN1cnZhdHVyZT0iMCIgc3R5bGU9ImZpbGw6I0NEOUI1RTsiIGQ9Ik0xLjUzLDQ2Ljk1YzAuOTIsMC44NywxLjM3LDAuOTQsMi40MiwxLjA5ICAgICBjMC42MywwLjEsMC44NS0wLjA4LDAuNjMtMC4zYzAuNTUsMC4yNiwxLjExLTAuMTIsMC43MS0wLjNjMC4xNCwwLDAuNTEtMC4xMSwwLjUxLTAuMzRjMC4wMy0wLjE4LTAuMzctMC4yMi0wLjUxLTAuMjIgICAgIGMwLjE0LTAuMiwwLjExLTAuNDUtMC4zOC0wLjQ5Yy0wLjM4LTAuMDMtMC42LTAuMjMtMC42LTAuMjNjMC40NS0wLjExLDAuNi0wLjQxLDAuNDktMC41OWMtMC40OSwwLjAzLTEuMjMtMC4xNi0xLjgyLTAuMTEgICAgIGMtMC4xMSwwLTAuMjIsMC4wMy0wLjMzLDAuMDdjLTIuMzgtMS40Ny0yLjM4LTEuNDctMi4zOC0xLjQ3QzAsNDYuMTMsMCw0Ni4xMywwLDQ2LjEzTDEuNTMsNDYuOTV6Ii8+JiN4YTsJCTwvZz4mI3hhOwkJPGcgaWQ9InNoYXBlNzA5Ny02NCIgdHJhbnNmb3JtPSJ0cmFuc2xhdGUoMCwtMzAuMzY3MSkiPiYjeGE7CQkJPHRpdGxlIGlkPSJ0aXRsZTMxMTc4OCI+U2hlZXQuNzA5NzwvdGl0bGU+JiN4YTsJCQk8cGF0aCBpZD0icGF0aDMxMTc5MCIgaW5rc2NhcGU6Y29ubmVjdG9yLWN1cnZhdHVyZT0iMCIgc3R5bGU9ImZpbGw6I0NFOUM1RTsiIGQ9Ik0yLjI1LDQ1LjQyYzAuNjgsMC40MiwwLjg2LDEuMjgsMC40OSwxLjk5ICAgICBjLTAuNDIsMC42NC0xLjMzLDAuODYtMi4wMSwwLjQ1QzAsNDcuNDktMC4xOSw0Ni41OCwwLjIsNDUuOTFDMC42NSw0NS4xOSwxLjUyLDQ0Ljk2LDIuMjUsNDUuNDJ6Ii8+JiN4YTsJCTwvZz4mI3hhOwkJPGcgaWQ9InNoYXBlNzA5OC02NiIgdHJhbnNmb3JtPSJ0cmFuc2xhdGUoMC43Nzk1OTEsLTI3LjYzNDEpIj4mI3hhOwkJCTx0aXRsZSBpZD0idGl0bGUzMTE3OTMiPlNoZWV0LjcwOTg8L3RpdGxlPiYjeGE7CQkJPHBhdGggaWQ9InBhdGgzMTE3OTUiIGlua3NjYXBlOmNvbm5lY3Rvci1jdXJ2YXR1cmU9IjAiIHN0eWxlPSJmaWxsOiNDRTlDNUU7IiBkPSJNNi4yMiw0OC4wN2wwLjM5LTEuODNsLTUuMTMtMy40M0wwLDQ1LjE2ICAgICBMNi4yMiw0OC4wN3oiLz4mI3hhOwkJPC9nPiYjeGE7CQk8ZyBpZD0ic2hhcGU3MDk5LTY4IiB0cmFuc2Zvcm09InRyYW5zbGF0ZSgxLjE2ODQ3LC0zMi4zMDQ2KSI+JiN4YTsJCQk8dGl0bGUgaWQ9InRpdGxlMzExNzk4Ij5TaGVldC43MDk5PC90aXRsZT4mI3hhOwkJCTxwYXRoIGlkPSJwYXRoMzExODAwIiBpbmtzY2FwZTpjb25uZWN0b3ItY3VydmF0dXJlPSIwIiBzdHlsZT0iZmlsbDojRTZFN0U4OyIgZD0iTTAsNDUuOTVsMy4yMSwyLjEybDMuNC0zLjk4bC0yLjczLTEuNjdIMi40MiAgICAgTDAsNDUuOTV6Ii8+JiN4YTsJCTwvZz4mI3hhOwkJPGcgaWQ9InNoYXBlNzEwMC03MCIgdHJhbnNmb3JtPSJ0cmFuc2xhdGUoMTIuODM0OCwtMzEuMTM3KSI+JiN4YTsJCQk8dGl0bGUgaWQ9InRpdGxlMzExODAzIj5TaGVldC43MTAwPC90aXRsZT4mI3hhOwkJCTxwYXRoIGlkPSJwYXRoMzExODA1IiBpbmtzY2FwZTpjb25uZWN0b3ItY3VydmF0dXJlPSIwIiBzdHlsZT0iZmlsbDojQ0U5QzVFOyIgZD0iTTYuMjIsNDYuNzVsLTIuMzQsMS4zMkwwLDQzLjU0bDMuMTEtMi4yOCAgICAgTDYuMjIsNDYuNzV6Ii8+JiN4YTsJCTwvZz4mI3hhOwkJPGcgaWQ9InNoYXBlNzEwMS03MiIgdHJhbnNmb3JtPSJ0cmFuc2xhdGUoMTIuMzI5MSwtMzQuOTA3NSkiPiYjeGE7CQkJPHRpdGxlIGlkPSJ0aXRsZTMxMTgwOCI+U2hlZXQuNzEwMTwvdGl0bGU+JiN4YTsJCQk8cGF0aCBpZD0icGF0aDMxMTgxMCIgaW5rc2NhcGU6Y29ubmVjdG9yLWN1cnZhdHVyZT0iMCIgc3R5bGU9ImZpbGw6I0U2RTdFODsiIGQ9Ik0zLjYsNDQuOTFjLTAuNjYtMC44Ni0xLjg1LTEuMDUtMi43OS0wLjQxICAgICBjLTAuODksMC42Ny0xLjA4LDEuODYtMC40LDIuNzdjMC42MywwLjg4LDEuODYsMS4wNywyLjc2LDAuNDNDNC4wMiw0Ny4wNyw0LjIsNDUuODQsMy42LDQ0LjkxeiIvPiYjeGE7CQk8L2c+JiN4YTsJCTxnIGlkPSJzaGFwZTcxMDItNzQiIHRyYW5zZm9ybT0idHJhbnNsYXRlKDEzLjIyMzYsLTIyLjcwMSkiPiYjeGE7CQkJPHRpdGxlIGlkPSJ0aXRsZTMxMTgxMyI+U2hlZXQuNzEwMjwvdGl0bGU+JiN4YTsJCQk8cGF0aCBpZD0icGF0aDMxMTgxNSIgaW5rc2NhcGU6Y29ubmVjdG9yLWN1cnZhdHVyZT0iMCIgc3R5bGU9ImZpbGw6I0NEOUI1RTsiIGQ9Ik0zLjI5LDQ1LjEzYy0wLjE4LDEuMi0wLjQ3LDEuNTMtMS4xNCwyLjMgICAgIGMtMC40LDAuNDctMC42OCwwLjQ3LTAuNjQsMC4xOGMtMC4yNiwwLjU1LTAuOSwwLjU4LTAuNzIsMC4yMmMtMC4xMSwwLjA3LTAuNDMsMC4yNS0wLjU3LDAuMDdjLTAuMTUtMC4xMSwwLjExLTAuNCwwLjIyLTAuNDcgICAgIGMtMC4yMi0wLjA3LTAuMzctMC4yOSwwLTAuNjJjMC4yNC0wLjI2LDAuMzEtMC41NSwwLjMxLTAuNTVDMC4zMyw0Ni40NCwwLjA0LDQ2LjMzLDAsNDYuMTFjMC40LTAuMjUsMC44My0wLjg3LDEuMjktMS4yICAgICBjMC4xMS0wLjA3LDAuMjItMC4xNSwwLjMzLTAuMThjMC44NS0yLjU3LDAuODUtMi41NywwLjg1LTIuNTdjMS40MiwxLjM2LDEuNDIsMS4zNiwxLjQyLDEuMzZMMy4yOSw0NS4xM3oiLz4mI3hhOwkJPC9nPiYjeGE7CQk8ZyBpZD0ic2hhcGU3MTAzLTc2IiB0cmFuc2Zvcm09InRyYW5zbGF0ZSgxNy4wODA3LC0zMC43MjEyKSI+JiN4YTsJCQk8dGl0bGUgaWQ9InRpdGxlMzExODE4Ij5TaGVldC43MTAzPC90aXRsZT4mI3hhOwkJCTxwYXRoIGlkPSJwYXRoMzExODIwIiBpbmtzY2FwZTpjb25uZWN0b3ItY3VydmF0dXJlPSIwIiBzdHlsZT0iZmlsbDojQ0U5QzVFOyIgZD0iTTAuNTIsNDUuODZjLTAuNSwwLjM0LTAuNjgsMS4xMS0wLjM1LDEuNjYgICAgIGMwLjMxLDAuNTMsMC45OSwwLjcyLDEuNTMsMC4zOGMwLjUzLTAuMzEsMC42Ni0xLjA0LDAuMzUtMS42MUMxLjczLDQ1LjcxLDEuMDUsNDUuNTEsMC41Miw0NS44NnoiLz4mI3hhOwkJPC9nPiYjeGE7CQk8ZyBpZD0ic2hhcGU3MTA0LTc4IiB0cmFuc2Zvcm09InRyYW5zbGF0ZSgxNC45NzM2LC0yNS40OTM0KSI+JiN4YTsJCQk8dGl0bGUgaWQ9InRpdGxlMzExODIzIj5TaGVldC43MTA0PC90aXRsZT4mI3hhOwkJCTxwYXRoIGlkPSJwYXRoMzExODI1IiBpbmtzY2FwZTpjb25uZWN0b3ItY3VydmF0dXJlPSIwIiBzdHlsZT0iZmlsbDojQ0U5QzVFOyIgZD0iTTEuNTEsNDguMDdMMCw0Ni44OWwxLjctNi4wMmwyLjU4LDEuMDYgICAgIEwxLjUxLDQ4LjA3eiIvPiYjeGE7CQk8L2c+JiN4YTsJCTxnIGlkPSJzaGFwZTcxMDUtODAiIHRyYW5zZm9ybT0idHJhbnNsYXRlKDExLjg2MjYsLTMyLjQ5OTMpIj4mI3hhOwkJCTx0aXRsZSBpZD0idGl0bGUzMTE4MjgiPlNoZWV0LjcxMDU8L3RpdGxlPiYjeGE7CQkJPHBhdGggaWQ9InBhdGgzMTE4MzAiIGlua3NjYXBlOmNvbm5lY3Rvci1jdXJ2YXR1cmU9IjAiIHN0eWxlPSJmaWxsOiNFNkU3RTg7IiBkPSJNNi40Miw0NmwtMy4wOCwyLjA3TDAsNDQuMjZsMi42NC0xLjY0aDEuNDcgICAgIEw2LjQyLDQ2eiIvPiYjeGE7CQk8L2c+JiN4YTsJPC9nPiYjeGE7PC9nPiYjeGE7PC9zdmc+;fontStyle=1" parent="1" vertex="1">
          <mxGeometry x="335" y="-690" width="27" height="68" as="geometry" />
        </mxCell>
        <mxCell id="N_ae5W9qRV80UMjD5rNb-32" value="" style="edgeStyle=orthogonalEdgeStyle;rounded=0;orthogonalLoop=1;jettySize=auto;html=1;strokeColor=#007FFF;" parent="1" source="x5Qx7wWfgq4q1o_DWIzA-1" target="y0qvPJV9rAVOtY6p-ESk-3" edge="1">
          <mxGeometry relative="1" as="geometry">
            <Array as="points">
              <mxPoint x="406" y="-563" />
              <mxPoint x="406" y="-563" />
            </Array>
            <mxPoint x="404" y="-572" as="sourcePoint" />
          </mxGeometry>
        </mxCell>
        <mxCell id="x5Qx7wWfgq4q1o_DWIzA-1" value="" style="shape=image;verticalLabelPosition=bottom;labelBackgroundColor=default;verticalAlign=top;aspect=fixed;imageAspect=0;image=https://cdn.freebiesupply.com/logos/large/2x/git-icon-logo-png-transparent.png;" parent="1" vertex="1">
          <mxGeometry x="377" y="-610" width="54.74" height="54.74" as="geometry" />
        </mxCell>
        <mxCell id="x5Qx7wWfgq4q1o_DWIzA-3" value="" style="shape=image;verticalLabelPosition=bottom;labelBackgroundColor=default;verticalAlign=top;aspect=fixed;imageAspect=0;image=https://wiki.videolan.org/images/Windows_logo.png;" parent="1" vertex="1">
          <mxGeometry x="482" y="-751" width="60" height="60" as="geometry" />
        </mxCell>
        <mxCell id="k0CTzh7-vUOgCoUulJSG-21" value="" style="edgeStyle=orthogonalEdgeStyle;rounded=0;orthogonalLoop=1;jettySize=auto;html=1;strokeColor=#009900;" parent="1" source="x5Qx7wWfgq4q1o_DWIzA-42" target="ZLGVQ2rk_Wr_WkTqdJoq-7" edge="1">
          <mxGeometry relative="1" as="geometry">
            <mxPoint x="606.94" y="-722" as="targetPoint" />
            <Array as="points">
              <mxPoint x="584" y="-781" />
              <mxPoint x="351" y="-781" />
            </Array>
          </mxGeometry>
        </mxCell>
        <mxCell id="x5Qx7wWfgq4q1o_DWIzA-42" value="APP" style="shape=image;verticalLabelPosition=bottom;labelBackgroundColor=default;verticalAlign=top;aspect=fixed;imageAspect=0;image=https://logodownload.org/wp-content/uploads/2017/05/microsoft-edge-logo-00.png;clipPath=inset(16.33% 17% 16% 16.67% round 49%);fontStyle=1" parent="1" vertex="1">
          <mxGeometry x="572" y="-666" width="55.88" height="57" as="geometry" />
        </mxCell>
        <mxCell id="-V9h-_qufcQMwzrIH1RG-5" value="" style="image;sketch=0;aspect=fixed;html=1;points=[];align=center;fontSize=12;image=img/lib/mscae/Kubernetes.svg;" parent="1" vertex="1">
          <mxGeometry x="1195" y="-686" width="50" height="48" as="geometry" />
        </mxCell>
        <mxCell id="8N1gZI2geE5Co_WE50Yg-40" value="" style="edgeStyle=orthogonalEdgeStyle;rounded=0;orthogonalLoop=1;jettySize=auto;html=1;strokeColor=#009900;" parent="1" source="-V9h-_qufcQMwzrIH1RG-10" target="ZLGVQ2rk_Wr_WkTqdJoq-37" edge="1">
          <mxGeometry relative="1" as="geometry">
            <Array as="points">
              <mxPoint x="497" y="-165" />
            </Array>
          </mxGeometry>
        </mxCell>
        <mxCell id="-V9h-_qufcQMwzrIH1RG-10" value="" style="shape=image;verticalLabelPosition=bottom;labelBackgroundColor=default;verticalAlign=top;aspect=fixed;imageAspect=0;image=https://ih1.redbubble.net/image.883315883.8466/bg,f8f8f8-flat,750x,075,f-pad,750x1000,f8f8f8.jpg;clipPath=inset(26.33% 0% 27.67% 0.67%);" parent="1" vertex="1">
          <mxGeometry x="461" y="-411" width="57" height="35.2" as="geometry" />
        </mxCell>
        <mxCell id="N_ae5W9qRV80UMjD5rNb-89" value="" style="edgeStyle=orthogonalEdgeStyle;rounded=0;orthogonalLoop=1;jettySize=auto;html=1;strokeColor=#009900;" parent="1" source="nSMH6S4gf7WrHXCQg2CD-1" target="x5Qx7wWfgq4q1o_DWIzA-42" edge="1">
          <mxGeometry relative="1" as="geometry">
            <mxPoint x="1396.92" y="-106.5" as="targetPoint" />
            <Array as="points">
              <mxPoint x="1446" y="79" />
              <mxPoint x="1446" y="-801" />
              <mxPoint x="600" y="-801" />
            </Array>
          </mxGeometry>
        </mxCell>
        <mxCell id="-V9h-_qufcQMwzrIH1RG-13" value="Clients&#xa;Dashboards" style="shape=image;verticalLabelPosition=bottom;labelBackgroundColor=default;verticalAlign=top;aspect=fixed;imageAspect=0;image=https://blog.myetv.tv/wp-content/uploads/2021/02/1200px-Grafana_logo.svg-1004x1024.png;fontStyle=1;clipPath=inset(0.33% 13.61% 22.67% 12.93%);" parent="1" vertex="1">
          <mxGeometry x="976" y="53" width="42.08" height="45" as="geometry" />
        </mxCell>
        <mxCell id="8N1gZI2geE5Co_WE50Yg-32" value="" style="edgeStyle=orthogonalEdgeStyle;rounded=0;orthogonalLoop=1;jettySize=auto;html=1;" parent="1" source="k0CTzh7-vUOgCoUulJSG-51" target="N_ae5W9qRV80UMjD5rNb-95" edge="1">
          <mxGeometry relative="1" as="geometry">
            <mxPoint x="309" y="-345.97" as="targetPoint" />
            <Array as="points">
              <mxPoint x="323" y="-346" />
              <mxPoint x="323" y="-278" />
              <mxPoint x="266" y="-278" />
            </Array>
          </mxGeometry>
        </mxCell>
        <mxCell id="k0CTzh7-vUOgCoUulJSG-51" value="" style="shape=image;verticalLabelPosition=bottom;labelBackgroundColor=default;verticalAlign=top;aspect=fixed;imageAspect=0;image=https://uxwing.com/wp-content/themes/uxwing/download/file-and-folder-type/yaml-file-icon.png;" parent="1" vertex="1">
          <mxGeometry x="389" y="-372" width="49" height="52.06" as="geometry" />
        </mxCell>
        <mxCell id="ZLGVQ2rk_Wr_WkTqdJoq-1" value="" style="shape=image;verticalLabelPosition=bottom;labelBackgroundColor=default;verticalAlign=top;aspect=fixed;imageAspect=0;image=https://www.itopstimes.com/wp-content/uploads/2023/10/Screen-Shot-2023-10-13-at-9.49.43-AM.png;strokeColor=#FF0000;" parent="1" vertex="1">
          <mxGeometry x="1316" y="-308" width="60.73" height="65" as="geometry" />
        </mxCell>
        <mxCell id="ZLGVQ2rk_Wr_WkTqdJoq-78" value="" style="edgeStyle=orthogonalEdgeStyle;rounded=0;orthogonalLoop=1;jettySize=auto;html=1;strokeColor=#FF0000;" parent="1" source="N_ae5W9qRV80UMjD5rNb-137" target="ZLGVQ2rk_Wr_WkTqdJoq-68" edge="1">
          <mxGeometry relative="1" as="geometry">
            <mxPoint x="1308" y="-502" as="sourcePoint" />
          </mxGeometry>
        </mxCell>
        <mxCell id="r8kyTGd4MDTlxssYAJR3-3" value="" style="edgeStyle=orthogonalEdgeStyle;rounded=0;orthogonalLoop=1;jettySize=auto;html=1;strokeColor=#FF0000;" parent="1" source="ZLGVQ2rk_Wr_WkTqdJoq-7" target="r8kyTGd4MDTlxssYAJR3-2" edge="1">
          <mxGeometry relative="1" as="geometry" />
        </mxCell>
        <mxCell id="ZLGVQ2rk_Wr_WkTqdJoq-7" value="" style="sketch=0;pointerEvents=1;shadow=0;dashed=0;html=1;strokeColor=none;fillColor=#434445;aspect=fixed;labelPosition=center;verticalLabelPosition=bottom;verticalAlign=top;align=center;outlineConnect=0;shape=mxgraph.vvd.laptop;" parent="1" vertex="1">
          <mxGeometry x="324" y="-759" width="50" height="36" as="geometry" />
        </mxCell>
        <mxCell id="ZLGVQ2rk_Wr_WkTqdJoq-11" value="" style="shape=image;verticalLabelPosition=bottom;labelBackgroundColor=default;verticalAlign=top;aspect=fixed;imageAspect=0;image=https://www.marksei.com/wp-content/uploads/2017/05/OpenStack-Logo-Material-720x210.jpg;clipPath=inset(0% 43.67% 52.27% 41.33%);" parent="1" vertex="1">
          <mxGeometry x="101" y="-360" width="43.93" height="41" as="geometry" />
        </mxCell>
        <mxCell id="ZLGVQ2rk_Wr_WkTqdJoq-13" value="" style="shape=image;verticalLabelPosition=bottom;labelBackgroundColor=default;verticalAlign=top;aspect=fixed;imageAspect=0;image=https://cdn.freelogovectors.net/wp-content/uploads/2019/09/zabbix-logo.png;" parent="1" vertex="1">
          <mxGeometry x="101" y="-152" width="63" height="16.54" as="geometry" />
        </mxCell>
        <mxCell id="8N1gZI2geE5Co_WE50Yg-76" value="" style="edgeStyle=orthogonalEdgeStyle;rounded=0;orthogonalLoop=1;jettySize=auto;html=1;exitX=0.001;exitY=0.913;exitDx=0;exitDy=0;exitPerimeter=0;strokeColor=#6600CC;" parent="1" source="8N1gZI2geE5Co_WE50Yg-4" target="ZLGVQ2rk_Wr_WkTqdJoq-22" edge="1">
          <mxGeometry relative="1" as="geometry">
            <Array as="points">
              <mxPoint x="180" y="109" />
              <mxPoint x="180" y="-288" />
            </Array>
          </mxGeometry>
        </mxCell>
        <mxCell id="ZLGVQ2rk_Wr_WkTqdJoq-22" value="" style="image;sketch=0;aspect=fixed;html=1;points=[];align=center;fontSize=12;image=img/lib/mscae/Cache_Redis_Product.svg;" parent="1" vertex="1">
          <mxGeometry x="100" y="-306" width="44.05" height="37" as="geometry" />
        </mxCell>
        <mxCell id="N_ae5W9qRV80UMjD5rNb-18" value="" style="edgeStyle=orthogonalEdgeStyle;rounded=0;orthogonalLoop=1;jettySize=auto;html=1;strokeColor=#009900;" parent="1" source="ZLGVQ2rk_Wr_WkTqdJoq-24" target="N_ae5W9qRV80UMjD5rNb-17" edge="1">
          <mxGeometry relative="1" as="geometry">
            <mxPoint x="916.4700000000003" y="-497.52941176470586" as="sourcePoint" />
          </mxGeometry>
        </mxCell>
        <mxCell id="ZLGVQ2rk_Wr_WkTqdJoq-24" value="" style="shape=image;verticalLabelPosition=bottom;labelBackgroundColor=default;verticalAlign=top;aspect=fixed;imageAspect=0;image=https://dwglogo.com/wp-content/uploads/2017/11/1500px_Jenkins_logo.png;clipPath=inset(19.9% 30.67% 20.87% 34.67% round 49%);" parent="1" vertex="1">
          <mxGeometry x="887" y="-503" width="43.47" height="51" as="geometry" />
        </mxCell>
        <mxCell id="ZLGVQ2rk_Wr_WkTqdJoq-66" value="" style="edgeStyle=orthogonalEdgeStyle;rounded=0;orthogonalLoop=1;jettySize=auto;html=1;strokeColor=#009900;entryX=0;entryY=0.447;entryDx=0;entryDy=0;entryPerimeter=0;" parent="1" source="N_ae5W9qRV80UMjD5rNb-17" target="ZLGVQ2rk_Wr_WkTqdJoq-64" edge="1">
          <mxGeometry relative="1" as="geometry">
            <Array as="points">
              <mxPoint x="1019" y="-477" />
              <mxPoint x="1019" y="-477" />
            </Array>
            <mxPoint x="1010" y="-493.99534883720924" as="sourcePoint" />
            <mxPoint x="1027.896" y="-488.52" as="targetPoint" />
          </mxGeometry>
        </mxCell>
        <mxCell id="ZLGVQ2rk_Wr_WkTqdJoq-25" value="" style="shape=image;verticalLabelPosition=bottom;labelBackgroundColor=default;verticalAlign=top;aspect=fixed;imageAspect=0;image=https://blog.filador.fr/content/images/2020/12/argocd-logo.png;clipPath=inset(11.99% 33.33% 20.76% 33.33% round 50%);" parent="1" vertex="1">
          <mxGeometry x="974" y="-634" width="46.08" height="53" as="geometry" />
        </mxCell>
        <mxCell id="8N1gZI2geE5Co_WE50Yg-35" value="" style="edgeStyle=orthogonalEdgeStyle;rounded=0;orthogonalLoop=1;jettySize=auto;html=1;" parent="1" source="ZLGVQ2rk_Wr_WkTqdJoq-36" target="ZLGVQ2rk_Wr_WkTqdJoq-46" edge="1">
          <mxGeometry relative="1" as="geometry" />
        </mxCell>
        <mxCell id="ZLGVQ2rk_Wr_WkTqdJoq-36" value="" style="image;sketch=0;aspect=fixed;html=1;points=[];align=center;fontSize=12;image=img/lib/mscae/Docker.svg;clipPath=inset(0% 0% 30.95% 0%);" parent="1" vertex="1">
          <mxGeometry x="425" y="-74" width="51" height="29.58" as="geometry" />
        </mxCell>
        <mxCell id="8N1gZI2geE5Co_WE50Yg-37" value="" style="edgeStyle=orthogonalEdgeStyle;rounded=0;orthogonalLoop=1;jettySize=auto;html=1;strokeColor=#009900;" parent="1" source="ZLGVQ2rk_Wr_WkTqdJoq-37" target="N_ae5W9qRV80UMjD5rNb-35" edge="1">
          <mxGeometry relative="1" as="geometry">
            <Array as="points">
              <mxPoint x="450" y="-373" />
              <mxPoint x="435" y="-373" />
              <mxPoint x="435" y="-531" />
              <mxPoint x="739" y="-531" />
            </Array>
          </mxGeometry>
        </mxCell>
        <mxCell id="ZLGVQ2rk_Wr_WkTqdJoq-37" value="" style="shape=image;verticalLabelPosition=bottom;labelBackgroundColor=default;verticalAlign=top;aspect=fixed;imageAspect=0;image=https://www.avibeweb.com/images/imagebank/Blog/Docker/Docker_Hub_Logo.jpg;clipPath=inset(27.78% 71.33% 30.16% 4.33%);" parent="1" vertex="1">
          <mxGeometry x="425" y="-176" width="45.46" height="33" as="geometry" />
        </mxCell>
        <mxCell id="N_ae5W9qRV80UMjD5rNb-121" value="" style="edgeStyle=orthogonalEdgeStyle;rounded=0;orthogonalLoop=1;jettySize=auto;html=1;" parent="1" source="ZLGVQ2rk_Wr_WkTqdJoq-41" target="ZLGVQ2rk_Wr_WkTqdJoq-46" edge="1">
          <mxGeometry relative="1" as="geometry">
            <Array as="points" />
          </mxGeometry>
        </mxCell>
        <mxCell id="ZLGVQ2rk_Wr_WkTqdJoq-41" value="" style="shape=image;verticalLabelPosition=bottom;labelBackgroundColor=default;verticalAlign=top;aspect=fixed;imageAspect=0;image=https://www.docker.com/wp-content/uploads/2023/10/home-hero-scout.png;clipPath=inset(5.91% 10% 7.35% 10.33%);" parent="1" vertex="1">
          <mxGeometry x="432" y="60" width="38.52" height="39" as="geometry" />
        </mxCell>
        <mxCell id="N_ae5W9qRV80UMjD5rNb-122" value="" style="edgeStyle=orthogonalEdgeStyle;rounded=0;orthogonalLoop=1;jettySize=auto;html=1;" parent="1" source="ZLGVQ2rk_Wr_WkTqdJoq-46" target="8N1gZI2geE5Co_WE50Yg-4" edge="1">
          <mxGeometry relative="1" as="geometry">
            <mxPoint x="584.0571428571427" y="-142" as="targetPoint" />
            <Array as="points">
              <mxPoint x="437" y="-1" />
              <mxPoint x="437" y="-1" />
            </Array>
          </mxGeometry>
        </mxCell>
        <mxCell id="ZLGVQ2rk_Wr_WkTqdJoq-46" value="" style="shape=image;verticalLabelPosition=bottom;labelBackgroundColor=default;verticalAlign=top;aspect=fixed;imageAspect=0;image=https://logos-download.com/wp-content/uploads/2016/02/Ubuntu.png;clipPath=inset(2.67% 2.67% 3.33% 3% round 49%);" parent="1" vertex="1">
          <mxGeometry x="431" y="-16" width="40.14" height="40" as="geometry" />
        </mxCell>
        <mxCell id="ZLGVQ2rk_Wr_WkTqdJoq-61" value="" style="outlineConnect=0;gradientColor=none;html=1;whiteSpace=wrap;fontSize=12;fontStyle=0;strokeColor=#6600CC;fillColor=none;verticalAlign=top;align=center;fontColor=#858B94;dashed=1;spacingTop=3;" parent="1" vertex="1">
          <mxGeometry x="1074" y="-612" width="179" height="346" as="geometry" />
        </mxCell>
        <mxCell id="-V9h-_qufcQMwzrIH1RG-4" value="" style="aspect=fixed;sketch=0;html=1;dashed=0;whitespace=wrap;verticalLabelPosition=bottom;verticalAlign=top;fillColor=#2875E2;strokeColor=#ffffff;points=[[0.005,0.63,0],[0.1,0.2,0],[0.9,0.2,0],[0.5,0,0],[0.995,0.63,0],[0.72,0.99,0],[0.5,1,0],[0.28,0.99,0]];shape=mxgraph.kubernetes.icon2;kubernetesLabel=1;prIcon=ns" parent="1" vertex="1">
          <mxGeometry x="1094" y="-640" width="50" height="48" as="geometry" />
        </mxCell>
        <mxCell id="ZLGVQ2rk_Wr_WkTqdJoq-67" value="" style="aspect=fixed;sketch=0;html=1;dashed=0;whitespace=wrap;verticalLabelPosition=bottom;verticalAlign=top;fillColor=#2875E2;strokeColor=#ffffff;points=[[0.005,0.63,0],[0.1,0.2,0],[0.9,0.2,0],[0.5,0,0],[0.995,0.63,0],[0.72,0.99,0],[0.5,1,0],[0.28,0.99,0]];shape=mxgraph.kubernetes.icon2;kubernetesLabel=1;prIcon=netpol" parent="1" vertex="1">
          <mxGeometry x="1170" y="-300" width="50" height="48" as="geometry" />
        </mxCell>
        <mxCell id="ZLGVQ2rk_Wr_WkTqdJoq-81" value="" style="edgeStyle=orthogonalEdgeStyle;rounded=0;orthogonalLoop=1;jettySize=auto;html=1;strokeColor=#009900;" parent="1" source="ZLGVQ2rk_Wr_WkTqdJoq-68" target="ZLGVQ2rk_Wr_WkTqdJoq-69" edge="1">
          <mxGeometry relative="1" as="geometry">
            <mxPoint x="1159" y="-455" as="sourcePoint" />
            <mxPoint x="1138" y="-456" as="targetPoint" />
            <Array as="points" />
          </mxGeometry>
        </mxCell>
        <mxCell id="ZLGVQ2rk_Wr_WkTqdJoq-68" value="" style="aspect=fixed;sketch=0;html=1;dashed=0;whitespace=wrap;verticalLabelPosition=bottom;verticalAlign=top;fillColor=#2875E2;strokeColor=#ffffff;points=[[0.005,0.63,0],[0.1,0.2,0],[0.9,0.2,0],[0.5,0,0],[0.995,0.63,0],[0.72,0.99,0],[0.5,1,0],[0.28,0.99,0]];shape=mxgraph.kubernetes.icon2;kubernetesLabel=1;prIcon=svc" parent="1" vertex="1">
          <mxGeometry x="1186" y="-526" width="50" height="48" as="geometry" />
        </mxCell>
        <mxCell id="N_ae5W9qRV80UMjD5rNb-145" value="" style="edgeStyle=orthogonalEdgeStyle;rounded=0;orthogonalLoop=1;jettySize=auto;html=1;strokeColor=#009900;" parent="1" source="ZLGVQ2rk_Wr_WkTqdJoq-69" target="ZLGVQ2rk_Wr_WkTqdJoq-71" edge="1">
          <mxGeometry relative="1" as="geometry">
            <Array as="points">
              <mxPoint x="1143" y="-468" />
              <mxPoint x="1194" y="-468" />
              <mxPoint x="1194" y="-403" />
            </Array>
          </mxGeometry>
        </mxCell>
        <mxCell id="ZLGVQ2rk_Wr_WkTqdJoq-69" value="" style="aspect=fixed;sketch=0;html=1;dashed=0;whitespace=wrap;verticalLabelPosition=bottom;verticalAlign=top;fillColor=#2875E2;strokeColor=#ffffff;points=[[0.005,0.63,0],[0.1,0.2,0],[0.9,0.2,0],[0.5,0,0],[0.995,0.63,0],[0.72,0.99,0],[0.5,1,0],[0.28,0.99,0]];shape=mxgraph.kubernetes.icon2;kubernetesLabel=1;prIcon=deploy" parent="1" vertex="1">
          <mxGeometry x="1117" y="-526" width="50" height="48" as="geometry" />
        </mxCell>
        <mxCell id="ZLGVQ2rk_Wr_WkTqdJoq-70" value="" style="aspect=fixed;sketch=0;html=1;dashed=0;whitespace=wrap;verticalLabelPosition=bottom;verticalAlign=top;fillColor=#2875E2;strokeColor=#ffffff;points=[[0.005,0.63,0],[0.1,0.2,0],[0.9,0.2,0],[0.5,0,0],[0.995,0.63,0],[0.72,0.99,0],[0.5,1,0],[0.28,0.99,0]];shape=mxgraph.kubernetes.icon2;kubernetesLabel=1;prIcon=etcd" parent="1" vertex="1">
          <mxGeometry x="1118" y="-357" width="50" height="48" as="geometry" />
        </mxCell>
        <mxCell id="N_ae5W9qRV80UMjD5rNb-38" value="" style="edgeStyle=orthogonalEdgeStyle;rounded=0;orthogonalLoop=1;jettySize=auto;html=1;strokeColor=#6600CC;" parent="1" source="ZLGVQ2rk_Wr_WkTqdJoq-71" target="ZLGVQ2rk_Wr_WkTqdJoq-70" edge="1">
          <mxGeometry relative="1" as="geometry" />
        </mxCell>
        <mxCell id="ZLGVQ2rk_Wr_WkTqdJoq-71" value="" style="aspect=fixed;sketch=0;html=1;dashed=0;whitespace=wrap;verticalLabelPosition=bottom;verticalAlign=top;fillColor=#2875E2;strokeColor=#ffffff;points=[[0.005,0.63,0],[0.1,0.2,0],[0.9,0.2,0],[0.5,0,0],[0.995,0.63,0],[0.72,0.99,0],[0.5,1,0],[0.28,0.99,0]];shape=mxgraph.kubernetes.icon2;kubernetesLabel=1;prIcon=pod" parent="1" vertex="1">
          <mxGeometry x="1118" y="-425" width="50" height="48" as="geometry" />
        </mxCell>
        <mxCell id="ZLGVQ2rk_Wr_WkTqdJoq-72" value="" style="edgeStyle=orthogonalEdgeStyle;rounded=0;orthogonalLoop=1;jettySize=auto;html=1;strokeColor=#6600CC;" parent="1" source="ZLGVQ2rk_Wr_WkTqdJoq-70" target="N_ae5W9qRV80UMjD5rNb-136" edge="1">
          <mxGeometry relative="1" as="geometry">
            <mxPoint x="1234" y="-361" as="sourcePoint" />
            <mxPoint x="1316" y="-341.4166666666665" as="targetPoint" />
          </mxGeometry>
        </mxCell>
        <mxCell id="ZLGVQ2rk_Wr_WkTqdJoq-73" value="" style="edgeStyle=orthogonalEdgeStyle;rounded=0;orthogonalLoop=1;jettySize=auto;html=1;strokeColor=#FF0000;" parent="1" source="ZLGVQ2rk_Wr_WkTqdJoq-1" target="ZLGVQ2rk_Wr_WkTqdJoq-67" edge="1">
          <mxGeometry relative="1" as="geometry">
            <mxPoint x="1289" y="-162" as="sourcePoint" />
            <mxPoint x="1222" y="-336" as="targetPoint" />
            <Array as="points" />
          </mxGeometry>
        </mxCell>
        <mxCell id="ZLGVQ2rk_Wr_WkTqdJoq-96" value="" style="edgeStyle=orthogonalEdgeStyle;rounded=0;orthogonalLoop=1;jettySize=auto;html=1;strokeColor=#6600CC;" parent="1" target="ZLGVQ2rk_Wr_WkTqdJoq-71" edge="1">
          <mxGeometry relative="1" as="geometry">
            <mxPoint x="737" y="-613.9655172413792" as="sourcePoint" />
            <mxPoint x="1112" y="-349" as="targetPoint" />
            <Array as="points">
              <mxPoint x="693" y="-614" />
              <mxPoint x="693" y="-732" />
              <mxPoint x="1085" y="-732" />
              <mxPoint x="1085" y="-459" />
              <mxPoint x="1143" y="-459" />
            </Array>
          </mxGeometry>
        </mxCell>
        <mxCell id="ZLGVQ2rk_Wr_WkTqdJoq-99" value="" style="edgeStyle=orthogonalEdgeStyle;rounded=0;orthogonalLoop=1;jettySize=auto;html=1;strokeColor=#009900;" parent="1" source="N_ae5W9qRV80UMjD5rNb-125" target="8N1gZI2geE5Co_WE50Yg-1" edge="1">
          <mxGeometry relative="1" as="geometry">
            <mxPoint x="843.3699999999999" y="-602.9999999999998" as="sourcePoint" />
            <mxPoint x="954" y="-612" as="targetPoint" />
            <Array as="points">
              <mxPoint x="825" y="-607" />
              <mxPoint x="825" y="-607" />
            </Array>
          </mxGeometry>
        </mxCell>
        <mxCell id="ZLGVQ2rk_Wr_WkTqdJoq-98" value="" style="shape=image;verticalLabelPosition=bottom;labelBackgroundColor=default;verticalAlign=top;aspect=fixed;imageAspect=0;image=https://sigops.org/s/conferences/hotos/2021/img/vmware.jpeg;" parent="1" vertex="1">
          <mxGeometry x="720" y="-692" width="126" height="21.91" as="geometry" />
        </mxCell>
        <mxCell id="ZLGVQ2rk_Wr_WkTqdJoq-109" value="" style="edgeStyle=orthogonalEdgeStyle;rounded=0;orthogonalLoop=1;jettySize=auto;html=1;strokeColor=#FF8000;" parent="1" source="N_ae5W9qRV80UMjD5rNb-35" target="ZLGVQ2rk_Wr_WkTqdJoq-24" edge="1">
          <mxGeometry relative="1" as="geometry">
            <mxPoint x="815.2850000000001" y="-444" as="targetPoint" />
            <Array as="points" />
            <mxPoint x="810" y="-497" as="sourcePoint" />
          </mxGeometry>
        </mxCell>
        <mxCell id="8N1gZI2geE5Co_WE50Yg-39" value="" style="edgeStyle=orthogonalEdgeStyle;rounded=0;orthogonalLoop=1;jettySize=auto;html=1;strokeColor=#FF8000;" parent="1" source="ZLGVQ2rk_Wr_WkTqdJoq-107" target="N_ae5W9qRV80UMjD5rNb-95" edge="1">
          <mxGeometry relative="1" as="geometry">
            <mxPoint x="313.9999999999998" y="-278" as="targetPoint" />
            <Array as="points">
              <mxPoint x="413" y="-237" />
            </Array>
          </mxGeometry>
        </mxCell>
        <mxCell id="ZLGVQ2rk_Wr_WkTqdJoq-107" value="" style="shape=image;verticalLabelPosition=bottom;labelBackgroundColor=default;verticalAlign=top;aspect=fixed;imageAspect=0;image=https://cdn1.iconfinder.com/data/icons/jenkins/128/File-512.png;clipPath=inset(23% 31% 23.33% 30.67%);" parent="1" vertex="1">
          <mxGeometry x="394" y="-305" width="38.57" height="54" as="geometry" />
        </mxCell>
        <mxCell id="r8kyTGd4MDTlxssYAJR3-14" value="" style="edgeStyle=orthogonalEdgeStyle;rounded=0;orthogonalLoop=1;jettySize=auto;html=1;" parent="1" source="y0qvPJV9rAVOtY6p-ESk-3" target="r8kyTGd4MDTlxssYAJR3-13" edge="1">
          <mxGeometry relative="1" as="geometry">
            <Array as="points">
              <mxPoint x="412" y="-493" />
              <mxPoint x="412" y="-493" />
            </Array>
          </mxGeometry>
        </mxCell>
        <mxCell id="y0qvPJV9rAVOtY6p-ESk-3" value="" style="dashed=0;outlineConnect=0;html=1;align=center;labelPosition=center;verticalLabelPosition=bottom;verticalAlign=top;shape=mxgraph.weblogos.github" parent="1" vertex="1">
          <mxGeometry x="383" y="-525" width="46" height="43" as="geometry" />
        </mxCell>
        <mxCell id="N_ae5W9qRV80UMjD5rNb-2" value="" style="edgeStyle=orthogonalEdgeStyle;rounded=0;orthogonalLoop=1;jettySize=auto;html=1;" parent="1" source="jLODFZI8iJjH5nCVOGuu-3" target="WX0H0m8v-OIcrhO9ABCX-7" edge="1">
          <mxGeometry relative="1" as="geometry">
            <mxPoint x="637" y="-494" as="sourcePoint" />
            <mxPoint x="618.8863636363636" y="-474.5" as="targetPoint" />
            <Array as="points">
              <mxPoint x="663" y="-460" />
            </Array>
          </mxGeometry>
        </mxCell>
        <mxCell id="jLODFZI8iJjH5nCVOGuu-3" value="" style="shape=image;verticalLabelPosition=bottom;labelBackgroundColor=default;verticalAlign=top;aspect=fixed;imageAspect=0;image=https://cdn0.iconfinder.com/data/icons/file-types-64/512/136_txt_file_type_file_format_file_extension_document-1024.png;clipPath=inset(2.33% 7% 2.67% 7%);" parent="1" vertex="1">
          <mxGeometry x="637" y="-520" width="46.17" height="51" as="geometry" />
        </mxCell>
        <mxCell id="jLODFZI8iJjH5nCVOGuu-12" value="" style="shape=image;verticalLabelPosition=bottom;labelBackgroundColor=default;verticalAlign=top;aspect=fixed;imageAspect=0;image=https://cdn3.iconfinder.com/data/icons/design-thinking-96/24/project_management_report_setting_business_and_finance_document_gear_cog-512.png;clipPath=inset(5% 5% 5.33% 4.67%);" parent="1" vertex="1">
          <mxGeometry x="556" y="-298" width="46.35" height="46" as="geometry" />
        </mxCell>
        <mxCell id="bc6YIsDriBggi0cUGrPZ-3" value="" style="shape=image;verticalLabelPosition=bottom;labelBackgroundColor=default;verticalAlign=top;aspect=fixed;imageAspect=0;image=https://www.pngkey.com/png/full/98-985032_flask-logo-flask-python-icon.png;clipPath=inset(0% 0.64% 30.67% 0%);" parent="1" vertex="1">
          <mxGeometry x="591" y="-426" width="44.52" height="40" as="geometry" />
        </mxCell>
        <mxCell id="WX0H0m8v-OIcrhO9ABCX-10" value="" style="edgeStyle=orthogonalEdgeStyle;rounded=0;orthogonalLoop=1;jettySize=auto;html=1;" parent="1" source="bc6YIsDriBggi0cUGrPZ-14" target="WX0H0m8v-OIcrhO9ABCX-8" edge="1">
          <mxGeometry relative="1" as="geometry">
            <mxPoint x="513" y="-484.5" as="sourcePoint" />
            <mxPoint x="466" y="-486.0000000000001" as="targetPoint" />
            <Array as="points">
              <mxPoint x="495" y="-460" />
            </Array>
          </mxGeometry>
        </mxCell>
        <mxCell id="bc6YIsDriBggi0cUGrPZ-14" value="" style="shape=image;verticalLabelPosition=bottom;labelBackgroundColor=default;verticalAlign=top;aspect=fixed;imageAspect=0;image=https://miro.medium.com/v2/resize:fit:310/1*v9mRLYURwpm3vWzNBmWYTg.png;clipPath=inset(13.41% 38% 50.81% 38%);" parent="1" vertex="1">
          <mxGeometry x="476" y="-525" width="37.64" height="46" as="geometry" />
        </mxCell>
        <mxCell id="WX0H0m8v-OIcrhO9ABCX-5" value="" style="edgeStyle=orthogonalEdgeStyle;rounded=0;orthogonalLoop=1;jettySize=auto;html=1;exitX=0.536;exitY=1.257;exitDx=0;exitDy=0;exitPerimeter=0;" parent="1" source="bc6YIsDriBggi0cUGrPZ-16" target="WX0H0m8v-OIcrhO9ABCX-3" edge="1">
          <mxGeometry relative="1" as="geometry">
            <mxPoint x="574.36" y="-479.6111111111111" as="sourcePoint" />
            <mxPoint x="536" y="-480" as="targetPoint" />
            <Array as="points">
              <mxPoint x="577" y="-459" />
            </Array>
          </mxGeometry>
        </mxCell>
        <mxCell id="bc6YIsDriBggi0cUGrPZ-16" value="" style="shape=image;verticalLabelPosition=bottom;labelBackgroundColor=default;verticalAlign=top;aspect=fixed;imageAspect=0;image=https://velog.velcdn.com/images/juheesvt/post/d60e6668-f172-4349-b022-00b0368f6e42/image.png;clipPath=inset(34.62% 13.67% 35.21% 14%);" parent="1" vertex="1">
          <mxGeometry x="552" y="-507" width="46" height="10.81" as="geometry" />
        </mxCell>
        <mxCell id="8N1gZI2geE5Co_WE50Yg-45" value="" style="edgeStyle=orthogonalEdgeStyle;rounded=0;orthogonalLoop=1;jettySize=auto;html=1;" parent="1" source="WX0H0m8v-OIcrhO9ABCX-3" target="bc6YIsDriBggi0cUGrPZ-3" edge="1">
          <mxGeometry relative="1" as="geometry">
            <Array as="points">
              <mxPoint x="537" y="-439" />
              <mxPoint x="598" y="-439" />
            </Array>
          </mxGeometry>
        </mxCell>
        <mxCell id="WX0H0m8v-OIcrhO9ABCX-3" value="" style="shape=image;verticalLabelPosition=bottom;labelBackgroundColor=default;verticalAlign=top;aspect=fixed;imageAspect=0;image=data:image/png,iVBORw0KGgoAAAANSUhEUgAAABoAAAAbCAYAAABiFp9rAAAAAXNSR0IArs4c6QAAAARnQU1BAACxjwv8YQUAAAAJcEhZcwAADsMAAA7DAcdvqGQAAANKSURBVEhLvVY9TBNhGH7u2rv+ohRQEEiMihswkBB0Ek1MTIwuLiYmTk4m4qgJiw4ODi66qXEzDjoZF2NiWFQaBxV0UBA0oUYQqfLTH9re+bx3PXrXFlqI+iSX++6+73uf7/3/lGis1cR/gFp8/3PU1ijH6WVnSflSBfDxta32eTcmShowOoLIH++A2cJ3TxPM1iCU72naQoF/bAHq+yS0xzNcTLLY+oTViSwtClg914XVs/sBP0+u8CkYQKYABEUNwkfBpgnl6wq05wnodyaBKOc0ri1DJdEStWgOIDPcA+PgTuD3anFiAwixRtLpZYQvxKEmuafBq52XiJoYER2pR4O2Fiv54kSdaNRtsvOjUNM5j2ZeWppLNNkSieAXNdkTRerWAGV595eI6HjxiWWurZA4ELKuBmSHey2ZDlwakejMvvp84kbYTwtQTIRvBwyYfHcTB+VEiwZyJztth24G23Xo9z4hfGoEany+REYic3cEuROUSdkCWzIj1uiO2eFaLxoDCFx9C/3uJNSfKUldL/gjd7Sdsu1YK0o2rWS08qQcYhonbxwIyZU30J5IoppI3TyAwpFdXt+SwNwRKn64fCQZbyWjG7EAT/wRSLAScGyhgmQAxiBJ5rimHExmB+vbKqJBezhNH0wifDEO5eUca5peP4n4qa2KRsosF7tNRDPm+lpQ6G+Bj7UtdGMcoaFRkiQ4WYNEQFnKbKb44Sb6wZ8+l0vFjHujSF/uRb6/GeqXNHzvkpwwapMIGFj+8QUObJk2EQm0Z9/WImQNknwM0/SlXoZqB8CyUheJgBaRym61EcKudVLj6OTUg0NAtiwgBI5Js4zKMMf1VA4ePnr4KYPIzi1bIxY/dSaDwPUxlnnN+uWBmFEeiaJ6SCSR73/moBRrpVFUgW88CeU1M9wJ5a2Ae9VXc1YiuxthaSRaJTIIXaNWU0t2yd8s5IATiwgPxddM5qBEJGCzUuezVj+RvoKGKmasBvEhzaW+mEX09AhJKvdVb+XSZdt4RzjWbrdyOY7UwYpWztDl3UGZWi618jJNHFQnEhRvP0ZnEIW+Jqvoei4nvEOoDHHfhyT02xPcwINs+nLihhCm+VhRX20ptdqAwEFtor8C4A/250odYSyyigAAAABJRU5ErkJggg==;clipPath=inset(12.96% 11.54% 5.56% 7.69% round 49%);" parent="1" vertex="1">
          <mxGeometry x="524" y="-473" width="25.772727272727273" height="27" as="geometry" />
        </mxCell>
        <mxCell id="N_ae5W9qRV80UMjD5rNb-3" value="" style="edgeStyle=orthogonalEdgeStyle;rounded=0;orthogonalLoop=1;jettySize=auto;html=1;" parent="1" source="WX0H0m8v-OIcrhO9ABCX-7" target="bc6YIsDriBggi0cUGrPZ-3" edge="1">
          <mxGeometry relative="1" as="geometry">
            <Array as="points">
              <mxPoint x="623" y="-419" />
              <mxPoint x="623" y="-419" />
            </Array>
          </mxGeometry>
        </mxCell>
        <mxCell id="WX0H0m8v-OIcrhO9ABCX-7" value="" style="shape=image;verticalLabelPosition=bottom;labelBackgroundColor=default;verticalAlign=top;aspect=fixed;imageAspect=0;image=data:image/png,iVBORw0KGgoAAAANSUhEUgAAABoAAAAbCAYAAABiFp9rAAAAAXNSR0IArs4c6QAAAARnQU1BAACxjwv8YQUAAAAJcEhZcwAADsMAAA7DAcdvqGQAAANKSURBVEhLvVY9TBNhGH7u2rv+ohRQEEiMihswkBB0Ek1MTIwuLiYmTk4m4qgJiw4ODi66qXEzDjoZF2NiWFQaBxV0UBA0oUYQqfLTH9re+bx3PXrXFlqI+iSX++6+73uf7/3/lGis1cR/gFp8/3PU1ijH6WVnSflSBfDxta32eTcmShowOoLIH++A2cJ3TxPM1iCU72naQoF/bAHq+yS0xzNcTLLY+oTViSwtClg914XVs/sBP0+u8CkYQKYABEUNwkfBpgnl6wq05wnodyaBKOc0ri1DJdEStWgOIDPcA+PgTuD3anFiAwixRtLpZYQvxKEmuafBq52XiJoYER2pR4O2Fiv54kSdaNRtsvOjUNM5j2ZeWppLNNkSieAXNdkTRerWAGV595eI6HjxiWWurZA4ELKuBmSHey2ZDlwakejMvvp84kbYTwtQTIRvBwyYfHcTB+VEiwZyJztth24G23Xo9z4hfGoEany+REYic3cEuROUSdkCWzIj1uiO2eFaLxoDCFx9C/3uJNSfKUldL/gjd7Sdsu1YK0o2rWS08qQcYhonbxwIyZU30J5IoppI3TyAwpFdXt+SwNwRKn64fCQZbyWjG7EAT/wRSLAScGyhgmQAxiBJ5rimHExmB+vbKqJBezhNH0wifDEO5eUca5peP4n4qa2KRsosF7tNRDPm+lpQ6G+Bj7UtdGMcoaFRkiQ4WYNEQFnKbKb44Sb6wZ8+l0vFjHujSF/uRb6/GeqXNHzvkpwwapMIGFj+8QUObJk2EQm0Z9/WImQNknwM0/SlXoZqB8CyUheJgBaRym61EcKudVLj6OTUg0NAtiwgBI5Js4zKMMf1VA4ePnr4KYPIzi1bIxY/dSaDwPUxlnnN+uWBmFEeiaJ6SCSR73/moBRrpVFUgW88CeU1M9wJ5a2Ae9VXc1YiuxthaSRaJTIIXaNWU0t2yd8s5IATiwgPxddM5qBEJGCzUuezVj+RvoKGKmasBvEhzaW+mEX09AhJKvdVb+XSZdt4RzjWbrdyOY7UwYpWztDl3UGZWi618jJNHFQnEhRvP0ZnEIW+Jqvoei4nvEOoDHHfhyT02xPcwINs+nLihhCm+VhRX20ptdqAwEFtor8C4A/250odYSyyigAAAABJRU5ErkJggg==;clipPath=inset(12.96% 11.54% 5.56% 7.69% round 49%);" parent="1" vertex="1">
          <mxGeometry x="606" y="-475" width="25.772727272727273" height="27" as="geometry" />
        </mxCell>
        <mxCell id="8N1gZI2geE5Co_WE50Yg-46" value="" style="edgeStyle=orthogonalEdgeStyle;rounded=0;orthogonalLoop=1;jettySize=auto;html=1;" parent="1" source="WX0H0m8v-OIcrhO9ABCX-8" target="bc6YIsDriBggi0cUGrPZ-3" edge="1">
          <mxGeometry relative="1" as="geometry">
            <Array as="points">
              <mxPoint x="456" y="-435" />
              <mxPoint x="527" y="-435" />
              <mxPoint x="527" y="-409" />
            </Array>
          </mxGeometry>
        </mxCell>
        <mxCell id="WX0H0m8v-OIcrhO9ABCX-8" value="" style="shape=image;verticalLabelPosition=bottom;labelBackgroundColor=default;verticalAlign=top;aspect=fixed;imageAspect=0;image=data:image/png,iVBORw0KGgoAAAANSUhEUgAAABoAAAAbCAYAAABiFp9rAAAAAXNSR0IArs4c6QAAAARnQU1BAACxjwv8YQUAAAAJcEhZcwAADsMAAA7DAcdvqGQAAANKSURBVEhLvVY9TBNhGH7u2rv+ohRQEEiMihswkBB0Ek1MTIwuLiYmTk4m4qgJiw4ODi66qXEzDjoZF2NiWFQaBxV0UBA0oUYQqfLTH9re+bx3PXrXFlqI+iSX++6+73uf7/3/lGis1cR/gFp8/3PU1ijH6WVnSflSBfDxta32eTcmShowOoLIH++A2cJ3TxPM1iCU72naQoF/bAHq+yS0xzNcTLLY+oTViSwtClg914XVs/sBP0+u8CkYQKYABEUNwkfBpgnl6wq05wnodyaBKOc0ri1DJdEStWgOIDPcA+PgTuD3anFiAwixRtLpZYQvxKEmuafBq52XiJoYER2pR4O2Fiv54kSdaNRtsvOjUNM5j2ZeWppLNNkSieAXNdkTRerWAGV595eI6HjxiWWurZA4ELKuBmSHey2ZDlwakejMvvp84kbYTwtQTIRvBwyYfHcTB+VEiwZyJztth24G23Xo9z4hfGoEany+REYic3cEuROUSdkCWzIj1uiO2eFaLxoDCFx9C/3uJNSfKUldL/gjd7Sdsu1YK0o2rWS08qQcYhonbxwIyZU30J5IoppI3TyAwpFdXt+SwNwRKn64fCQZbyWjG7EAT/wRSLAScGyhgmQAxiBJ5rimHExmB+vbKqJBezhNH0wifDEO5eUca5peP4n4qa2KRsosF7tNRDPm+lpQ6G+Bj7UtdGMcoaFRkiQ4WYNEQFnKbKb44Sb6wZ8+l0vFjHujSF/uRb6/GeqXNHzvkpwwapMIGFj+8QUObJk2EQm0Z9/WImQNknwM0/SlXoZqB8CyUheJgBaRym61EcKudVLj6OTUg0NAtiwgBI5Js4zKMMf1VA4ePnr4KYPIzi1bIxY/dSaDwPUxlnnN+uWBmFEeiaJ6SCSR73/moBRrpVFUgW88CeU1M9wJ5a2Ae9VXc1YiuxthaSRaJTIIXaNWU0t2yd8s5IATiwgPxddM5qBEJGCzUuezVj+RvoKGKmasBvEhzaW+mEX09AhJKvdVb+XSZdt4RzjWbrdyOY7UwYpWztDl3UGZWi618jJNHFQnEhRvP0ZnEIW+Jqvoei4nvEOoDHHfhyT02xPcwINs+nLihhCm+VhRX20ptdqAwEFtor8C4A/250odYSyyigAAAABJRU5ErkJggg==;clipPath=inset(12.96% 11.54% 5.56% 7.69% round 49%);" parent="1" vertex="1">
          <mxGeometry x="443" y="-474" width="25.772727272727273" height="27" as="geometry" />
        </mxCell>
        <mxCell id="8N1gZI2geE5Co_WE50Yg-36" value="" style="edgeStyle=orthogonalEdgeStyle;rounded=0;orthogonalLoop=1;jettySize=auto;html=1;" parent="1" source="N_ae5W9qRV80UMjD5rNb-9" target="8N1gZI2geE5Co_WE50Yg-4" edge="1">
          <mxGeometry relative="1" as="geometry">
            <Array as="points">
              <mxPoint x="524" y="-110" />
              <mxPoint x="524" y="-110" />
            </Array>
          </mxGeometry>
        </mxCell>
        <mxCell id="N_ae5W9qRV80UMjD5rNb-9" value="" style="shape=image;verticalLabelPosition=bottom;labelBackgroundColor=default;verticalAlign=top;aspect=fixed;imageAspect=0;image=https://servervds.com/mag/wp-content/uploads/2020/09/apache.jpg;clipPath=inset(6.67% 6.67% 31.67% 6.33%);" parent="1" vertex="1">
          <mxGeometry x="423" y="-121" width="52.7" height="22.41" as="geometry" />
        </mxCell>
        <mxCell id="N_ae5W9qRV80UMjD5rNb-17" value="" style="shape=image;verticalLabelPosition=bottom;labelBackgroundColor=default;verticalAlign=top;aspect=fixed;imageAspect=0;image=https://www.civo.com/assets/public/developers/icons/pulumi-icon-33745961ed512997b163f4414fd7f6ba4953d4af48cff30b2a7735430549da1c.png;clipPath=inset(20.5% 22% 21% 22.5%);" parent="1" vertex="1">
          <mxGeometry x="982" y="-499" width="42.53" height="44.83" as="geometry" />
        </mxCell>
        <mxCell id="N_ae5W9qRV80UMjD5rNb-27" value="" style="edgeStyle=orthogonalEdgeStyle;rounded=0;orthogonalLoop=1;jettySize=auto;html=1;strokeColor=#6600CC;exitX=0.25;exitY=1;exitDx=0;exitDy=0;" parent="1" target="N_ae5W9qRV80UMjD5rNb-21" edge="1">
          <mxGeometry relative="1" as="geometry">
            <mxPoint x="1156.25" y="-244" as="sourcePoint" />
            <mxPoint x="1382" y="-205" as="targetPoint" />
            <Array as="points">
              <mxPoint x="1156" y="-219" />
              <mxPoint x="1156" y="-206" />
            </Array>
          </mxGeometry>
        </mxCell>
        <mxCell id="N_ae5W9qRV80UMjD5rNb-29" value="" style="edgeStyle=orthogonalEdgeStyle;rounded=0;orthogonalLoop=1;jettySize=auto;html=1;strokeColor=#009900;" parent="1" source="N_ae5W9qRV80UMjD5rNb-21" target="x5Qx7wWfgq4q1o_DWIzA-42" edge="1">
          <mxGeometry relative="1" as="geometry">
            <mxPoint x="1493.02" y="-65" as="targetPoint" />
            <Array as="points">
              <mxPoint x="1391" y="-206" />
              <mxPoint x="1391" y="-761" />
              <mxPoint x="669" y="-761" />
              <mxPoint x="669" y="-637" />
            </Array>
          </mxGeometry>
        </mxCell>
        <mxCell id="N_ae5W9qRV80UMjD5rNb-21" value="" style="shape=image;verticalLabelPosition=bottom;labelBackgroundColor=default;verticalAlign=top;aspect=fixed;imageAspect=0;image=https://d0.awsstatic.com/partner-network/partner-logos/600x400_Dynatrace_Logo.png;clipPath=inset(26% 41% 43% 39.67%);" parent="1" vertex="1">
          <mxGeometry x="1324" y="-229" width="43.02" height="46" as="geometry" />
        </mxCell>
        <mxCell id="8N1gZI2geE5Co_WE50Yg-27" value="" style="edgeStyle=orthogonalEdgeStyle;rounded=0;orthogonalLoop=1;jettySize=auto;html=1;" parent="1" source="N_ae5W9qRV80UMjD5rNb-31" target="r8kyTGd4MDTlxssYAJR3-8" edge="1">
          <mxGeometry relative="1" as="geometry">
            <mxPoint x="129.99" y="-396" as="sourcePoint" />
            <mxPoint x="129.00052631578956" y="-340" as="targetPoint" />
            <Array as="points">
              <mxPoint x="263" y="-389" />
              <mxPoint x="263" y="-389" />
            </Array>
          </mxGeometry>
        </mxCell>
        <mxCell id="N_ae5W9qRV80UMjD5rNb-31" value="" style="rounded=0;whiteSpace=wrap;html=1;" parent="1" vertex="1">
          <mxGeometry x="86" y="-542" width="215" height="145" as="geometry" />
        </mxCell>
        <mxCell id="N_ae5W9qRV80UMjD5rNb-35" value="" style="shape=image;verticalLabelPosition=bottom;labelBackgroundColor=default;verticalAlign=top;aspect=fixed;imageAspect=0;image=https://cdn1.iconfinder.com/data/icons/jenkins/128/File-512.png;clipPath=inset(23% 31% 23.33% 30.67%);" parent="1" vertex="1">
          <mxGeometry x="719" y="-505" width="38.57" height="54" as="geometry" />
        </mxCell>
        <mxCell id="N_ae5W9qRV80UMjD5rNb-39" value="" style="image;aspect=fixed;html=1;points=[];align=center;fontSize=12;image=img/lib/azure2/devops/Azure_DevOps.svg;" parent="1" vertex="1">
          <mxGeometry x="106" y="-524" width="43" height="43" as="geometry" />
        </mxCell>
        <mxCell id="N_ae5W9qRV80UMjD5rNb-40" value="" style="image;sketch=0;aspect=fixed;html=1;points=[];align=center;fontSize=12;image=img/lib/mscae/Azure_Repos.svg;" parent="1" vertex="1">
          <mxGeometry x="177" y="-526" width="38.7" height="43" as="geometry" />
        </mxCell>
        <mxCell id="N_ae5W9qRV80UMjD5rNb-111" value="" style="edgeStyle=orthogonalEdgeStyle;rounded=0;orthogonalLoop=1;jettySize=auto;html=1;strokeColor=#009900;" parent="1" source="N_ae5W9qRV80UMjD5rNb-31" target="N_ae5W9qRV80UMjD5rNb-59" edge="1">
          <mxGeometry relative="1" as="geometry">
            <mxPoint x="580" y="218" as="targetPoint" />
            <Array as="points">
              <mxPoint x="64" y="-469" />
              <mxPoint x="64" y="294" />
            </Array>
            <mxPoint x="586" y="202" as="sourcePoint" />
          </mxGeometry>
        </mxCell>
        <mxCell id="N_ae5W9qRV80UMjD5rNb-41" value="" style="image;sketch=0;aspect=fixed;html=1;points=[];align=center;fontSize=12;image=img/lib/mscae/Azure_Pipelines.svg;" parent="1" vertex="1">
          <mxGeometry x="244" y="-525" width="40" height="40" as="geometry" />
        </mxCell>
        <mxCell id="N_ae5W9qRV80UMjD5rNb-42" value="" style="edgeStyle=orthogonalEdgeStyle;rounded=0;orthogonalLoop=1;jettySize=auto;html=1;strokeColor=#007FFF;" parent="1" source="x5Qx7wWfgq4q1o_DWIzA-1" target="N_ae5W9qRV80UMjD5rNb-31" edge="1">
          <mxGeometry relative="1" as="geometry">
            <mxPoint x="395" y="-583" as="sourcePoint" />
            <mxPoint x="391" y="-48" as="targetPoint" />
            <Array as="points">
              <mxPoint x="193" y="-583" />
            </Array>
          </mxGeometry>
        </mxCell>
        <mxCell id="N_ae5W9qRV80UMjD5rNb-46" value="" style="rounded=1;arcSize=10;dashed=0;fillColor=none;gradientColor=none;strokeWidth=2;" parent="1" vertex="1">
          <mxGeometry x="628" y="178" width="633" height="674" as="geometry" />
        </mxCell>
        <mxCell id="N_ae5W9qRV80UMjD5rNb-47" value="" style="dashed=0;html=1;shape=mxgraph.aws3.cloud;fillColor=#F58536;gradientColor=none;dashed=0;" parent="1" vertex="1">
          <mxGeometry x="626" y="166" width="52" height="36" as="geometry" />
        </mxCell>
        <mxCell id="N_ae5W9qRV80UMjD5rNb-51" value="Region" style="sketch=0;outlineConnect=0;gradientColor=none;html=1;whiteSpace=wrap;fontSize=12;fontStyle=0;shape=mxgraph.aws4.group;grIcon=mxgraph.aws4.group_region;strokeColor=#879196;fillColor=none;verticalAlign=top;align=left;spacingLeft=30;fontColor=#879196;dashed=1;" parent="1" vertex="1">
          <mxGeometry x="653" y="212" width="572" height="609" as="geometry" />
        </mxCell>
        <mxCell id="N_ae5W9qRV80UMjD5rNb-52" value="" style="rounded=1;arcSize=10;dashed=1;strokeColor=#F59D56;fillColor=none;gradientColor=none;dashPattern=8 4;strokeWidth=2;" parent="1" vertex="1">
          <mxGeometry x="677" y="236" width="524" height="561" as="geometry" />
        </mxCell>
        <mxCell id="N_ae5W9qRV80UMjD5rNb-54" value="" style="rounded=1;arcSize=10;dashed=0;fillColor=none;gradientColor=none;strokeWidth=2;" parent="1" vertex="1">
          <mxGeometry x="793" y="261" width="379" height="458" as="geometry" />
        </mxCell>
        <mxCell id="N_ae5W9qRV80UMjD5rNb-55" value="" style="dashed=0;html=1;shape=mxgraph.aws3.virtual_private_cloud;fillColor=#F58536;gradientColor=none;dashed=0;" parent="1" vertex="1">
          <mxGeometry x="813" y="241" width="52" height="36" as="geometry" />
        </mxCell>
        <mxCell id="N_ae5W9qRV80UMjD5rNb-56" value="" style="rounded=1;arcSize=10;dashed=0;fillColor=none;gradientColor=none;strokeWidth=2;" parent="1" vertex="1">
          <mxGeometry x="906" y="303" width="250" height="387" as="geometry" />
        </mxCell>
        <mxCell id="N_ae5W9qRV80UMjD5rNb-57" value="" style="dashed=0;html=1;shape=mxgraph.aws3.permissions;fillColor=#D9A741;gradientColor=none;dashed=0;" parent="1" vertex="1">
          <mxGeometry x="916" y="284" width="30" height="35" as="geometry" />
        </mxCell>
        <mxCell id="N_ae5W9qRV80UMjD5rNb-58" value="" style="rounded=1;arcSize=10;dashed=1;strokeColor=#ff0000;fillColor=none;gradientColor=none;dashPattern=8 4;strokeWidth=2;" parent="1" vertex="1">
          <mxGeometry x="933" y="336" width="199.5" height="199.5" as="geometry" />
        </mxCell>
        <mxCell id="N_ae5W9qRV80UMjD5rNb-68" value="" style="edgeStyle=orthogonalEdgeStyle;rounded=0;orthogonalLoop=1;jettySize=auto;html=1;strokeColor=#009900;" parent="1" source="N_ae5W9qRV80UMjD5rNb-59" target="N_ae5W9qRV80UMjD5rNb-67" edge="1">
          <mxGeometry relative="1" as="geometry" />
        </mxCell>
        <mxCell id="N_ae5W9qRV80UMjD5rNb-59" value="" style="outlineConnect=0;dashed=0;verticalLabelPosition=bottom;verticalAlign=top;align=center;html=1;shape=mxgraph.aws3.cloudformation;fillColor=#759C3E;gradientColor=none;" parent="1" vertex="1">
          <mxGeometry x="710" y="258" width="64" height="63" as="geometry" />
        </mxCell>
        <mxCell id="N_ae5W9qRV80UMjD5rNb-73" value="" style="edgeStyle=orthogonalEdgeStyle;rounded=0;orthogonalLoop=1;jettySize=auto;html=1;strokeColor=#009900;" parent="1" source="N_ae5W9qRV80UMjD5rNb-66" target="N_ae5W9qRV80UMjD5rNb-71" edge="1">
          <mxGeometry relative="1" as="geometry">
            <mxPoint x="739.9955555555555" y="435" as="sourcePoint" />
            <mxPoint x="744" y="525" as="targetPoint" />
          </mxGeometry>
        </mxCell>
        <mxCell id="N_ae5W9qRV80UMjD5rNb-66" value="" style="sketch=0;outlineConnect=0;fontColor=#232F3E;gradientColor=none;fillColor=#E7157B;strokeColor=none;dashed=0;verticalLabelPosition=bottom;verticalAlign=top;align=center;html=1;fontSize=12;fontStyle=0;aspect=fixed;pointerEvents=1;shape=mxgraph.aws4.stack;" parent="1" vertex="1">
          <mxGeometry x="719" y="438" width="46.19" height="45" as="geometry" />
        </mxCell>
        <mxCell id="N_ae5W9qRV80UMjD5rNb-69" value="" style="edgeStyle=orthogonalEdgeStyle;rounded=0;orthogonalLoop=1;jettySize=auto;html=1;strokeColor=#009900;" parent="1" source="N_ae5W9qRV80UMjD5rNb-67" target="N_ae5W9qRV80UMjD5rNb-66" edge="1">
          <mxGeometry relative="1" as="geometry" />
        </mxCell>
        <mxCell id="N_ae5W9qRV80UMjD5rNb-67" value="" style="outlineConnect=0;dashed=0;verticalLabelPosition=bottom;verticalAlign=top;align=center;html=1;shape=mxgraph.aws3.codecommit;fillColor=#759C3E;gradientColor=none;" parent="1" vertex="1">
          <mxGeometry x="714" y="347" width="56" height="63" as="geometry" />
        </mxCell>
        <mxCell id="N_ae5W9qRV80UMjD5rNb-81" value="" style="edgeStyle=orthogonalEdgeStyle;rounded=0;orthogonalLoop=1;jettySize=auto;html=1;strokeColor=#009900;" parent="1" source="N_ae5W9qRV80UMjD5rNb-70" target="N_ae5W9qRV80UMjD5rNb-54" edge="1">
          <mxGeometry relative="1" as="geometry">
            <mxPoint x="707" y="733.75" as="sourcePoint" />
            <mxPoint x="790" y="694" as="targetPoint" />
            <Array as="points">
              <mxPoint x="776" y="692" />
              <mxPoint x="776" y="692" />
            </Array>
          </mxGeometry>
        </mxCell>
        <mxCell id="N_ae5W9qRV80UMjD5rNb-85" value="" style="edgeStyle=orthogonalEdgeStyle;rounded=0;orthogonalLoop=1;jettySize=auto;html=1;strokeColor=#009900;" parent="1" source="N_ae5W9qRV80UMjD5rNb-70" target="N_ae5W9qRV80UMjD5rNb-83" edge="1">
          <mxGeometry relative="1" as="geometry">
            <mxPoint x="740.5" y="794" as="targetPoint" />
            <Array as="points">
              <mxPoint x="740" y="757" />
            </Array>
          </mxGeometry>
        </mxCell>
        <mxCell id="N_ae5W9qRV80UMjD5rNb-70" value="" style="outlineConnect=0;dashed=0;verticalLabelPosition=bottom;verticalAlign=top;align=center;html=1;shape=mxgraph.aws3.codedeploy;fillColor=#759C3E;gradientColor=none;" parent="1" vertex="1">
          <mxGeometry x="717" y="671" width="49" height="43" as="geometry" />
        </mxCell>
        <mxCell id="N_ae5W9qRV80UMjD5rNb-74" value="" style="edgeStyle=orthogonalEdgeStyle;rounded=0;orthogonalLoop=1;jettySize=auto;html=1;strokeColor=#009900;" parent="1" source="N_ae5W9qRV80UMjD5rNb-71" target="N_ae5W9qRV80UMjD5rNb-72" edge="1">
          <mxGeometry relative="1" as="geometry" />
        </mxCell>
        <mxCell id="N_ae5W9qRV80UMjD5rNb-71" value="" style="outlineConnect=0;dashed=0;verticalLabelPosition=bottom;verticalAlign=top;align=center;html=1;shape=mxgraph.aws3.codepipeline;fillColor=#759C3E;gradientColor=none;" parent="1" vertex="1">
          <mxGeometry x="717" y="511" width="49" height="55" as="geometry" />
        </mxCell>
        <mxCell id="N_ae5W9qRV80UMjD5rNb-75" value="" style="edgeStyle=orthogonalEdgeStyle;rounded=0;orthogonalLoop=1;jettySize=auto;html=1;strokeColor=#009900;" parent="1" source="N_ae5W9qRV80UMjD5rNb-72" target="N_ae5W9qRV80UMjD5rNb-70" edge="1">
          <mxGeometry relative="1" as="geometry" />
        </mxCell>
        <mxCell id="N_ae5W9qRV80UMjD5rNb-72" value="" style="outlineConnect=0;dashed=0;verticalLabelPosition=bottom;verticalAlign=top;align=center;html=1;shape=mxgraph.aws3.codebuild;fillColor=#759C3E;gradientColor=none;" parent="1" vertex="1">
          <mxGeometry x="718" y="596" width="47" height="45" as="geometry" />
        </mxCell>
        <mxCell id="N_ae5W9qRV80UMjD5rNb-78" value="EC2 instance contents" style="points=[[0,0],[0.25,0],[0.5,0],[0.75,0],[1,0],[1,0.25],[1,0.5],[1,0.75],[1,1],[0.75,1],[0.5,1],[0.25,1],[0,1],[0,0.75],[0,0.5],[0,0.25]];outlineConnect=0;gradientColor=none;html=1;whiteSpace=wrap;fontSize=12;fontStyle=0;container=1;pointerEvents=0;collapsible=0;recursiveResize=0;shape=mxgraph.aws4.group;grIcon=mxgraph.aws4.group_ec2_instance_contents;strokeColor=#D86613;fillColor=none;verticalAlign=top;align=left;spacingLeft=30;fontColor=#D86613;dashed=0;" parent="1" vertex="1">
          <mxGeometry x="961" y="355" width="152" height="164" as="geometry" />
        </mxCell>
        <mxCell id="N_ae5W9qRV80UMjD5rNb-79" value="" style="rounded=1;arcSize=10;dashed=1;strokeColor=#ff0000;fillColor=none;gradientColor=none;dashPattern=8 4;strokeWidth=2;" parent="1" vertex="1">
          <mxGeometry x="936" y="556" width="199.5" height="102" as="geometry" />
        </mxCell>
        <mxCell id="N_ae5W9qRV80UMjD5rNb-82" value="" style="outlineConnect=0;dashed=0;verticalLabelPosition=bottom;verticalAlign=top;align=center;html=1;shape=mxgraph.aws3.rds;fillColor=#2E73B8;gradientColor=none;" parent="1" vertex="1">
          <mxGeometry x="959" y="576" width="60" height="58" as="geometry" />
        </mxCell>
        <mxCell id="N_ae5W9qRV80UMjD5rNb-83" value="" style="outlineConnect=0;dashed=0;verticalLabelPosition=bottom;verticalAlign=top;align=center;html=1;shape=mxgraph.aws3.s3;fillColor=#E05243;gradientColor=none;" parent="1" vertex="1">
          <mxGeometry x="870" y="729" width="57" height="57" as="geometry" />
        </mxCell>
        <mxCell id="8N1gZI2geE5Co_WE50Yg-34" value="" style="edgeStyle=orthogonalEdgeStyle;rounded=0;orthogonalLoop=1;jettySize=auto;html=1;" parent="1" source="N_ae5W9qRV80UMjD5rNb-95" target="ZLGVQ2rk_Wr_WkTqdJoq-36" edge="1">
          <mxGeometry relative="1" as="geometry">
            <mxPoint x="221.20000000000005" y="-209.14499999999998" as="targetPoint" />
            <Array as="points">
              <mxPoint x="270" y="-57" />
            </Array>
          </mxGeometry>
        </mxCell>
        <mxCell id="N_ae5W9qRV80UMjD5rNb-95" value="" style="shape=image;verticalLabelPosition=bottom;labelBackgroundColor=default;verticalAlign=top;aspect=fixed;imageAspect=0;image=https://static-00.iconduck.com/assets.00/file-type-terraform-icon-1821x2048-mbxeegff.png;" parent="1" vertex="1">
          <mxGeometry x="253" y="-259" width="28.2" height="31.71" as="geometry" />
        </mxCell>
        <mxCell id="N_ae5W9qRV80UMjD5rNb-96" value="" style="shape=image;verticalLabelPosition=bottom;labelBackgroundColor=default;verticalAlign=top;aspect=fixed;imageAspect=0;image=https://creazilla-store.fra1.digitaloceanspaces.com/icons/3254231/prometheus-icon-md.png;clipPath=inset(0% 0% 0% 0.17% round 49%);" parent="1" vertex="1">
          <mxGeometry x="1039" y="57" width="47.64" height="47.88" as="geometry" />
        </mxCell>
        <mxCell id="N_ae5W9qRV80UMjD5rNb-115" value="" style="shape=image;verticalLabelPosition=bottom;labelBackgroundColor=default;verticalAlign=top;aspect=fixed;imageAspect=0;image=https://cdn.freebiesupply.com/logos/thumbs/2x/vagrant-logo.png;clipPath=inset(0% 20% 17.56% 18.67%);" parent="1" vertex="1">
          <mxGeometry x="250" y="-317" width="33.02" height="33.29" as="geometry" />
        </mxCell>
        <mxCell id="N_ae5W9qRV80UMjD5rNb-117" value="" style="shape=image;verticalLabelPosition=bottom;labelBackgroundColor=default;verticalAlign=top;aspect=fixed;imageAspect=0;image=https://static-00.iconduck.com/assets.00/consul-icon-253x256-x7gbz0b2.png;clipPath=inset(0% 0% 0% 0.99% round 49%);" parent="1" vertex="1">
          <mxGeometry x="252" y="-357" width="29.49" height="30.13" as="geometry" />
        </mxCell>
        <mxCell id="N_ae5W9qRV80UMjD5rNb-125" value="" style="shape=image;verticalLabelPosition=bottom;labelBackgroundColor=default;verticalAlign=top;aspect=fixed;imageAspect=0;image=https://static-00.iconduck.com/assets.00/harbor-icon-2034x2048-hl34ycc9.png;clipPath=inset(0% 0% 0% 0.34% round 49%);" parent="1" vertex="1">
          <mxGeometry x="803" y="-627" width="38.61" height="39" as="geometry" />
        </mxCell>
        <mxCell id="N_ae5W9qRV80UMjD5rNb-136" value="" style="shape=image;verticalLabelPosition=bottom;labelBackgroundColor=default;verticalAlign=top;aspect=fixed;imageAspect=0;image=https://b2discourse.pi-hole.net/optimized/3X/9/f/9f56ec283e4a1298953b844103024a1c7147474a_2_500x500.png;clipPath=inset(10.67% 2% 11.33% 2.33%);" parent="1" vertex="1">
          <mxGeometry x="1322" y="-350" width="40.47" height="33" as="geometry" />
        </mxCell>
        <mxCell id="N_ae5W9qRV80UMjD5rNb-137" value="" style="shape=image;verticalLabelPosition=bottom;labelBackgroundColor=default;verticalAlign=top;aspect=fixed;imageAspect=0;image=https://mvallim.github.io/kubernetes-under-the-hood/documentation/images/metallb-logo.png;clipPath=inset(15.17% 75% 17.42% 6% round 49%);" parent="1" vertex="1">
          <mxGeometry x="1314" y="-528" width="50.35" height="53" as="geometry" />
        </mxCell>
        <mxCell id="N_ae5W9qRV80UMjD5rNb-146" value="" style="edgeStyle=orthogonalEdgeStyle;rounded=0;orthogonalLoop=1;jettySize=auto;html=1;strokeColor=#6600CC;" parent="1" source="N_ae5W9qRV80UMjD5rNb-144" target="ZLGVQ2rk_Wr_WkTqdJoq-71" edge="1">
          <mxGeometry relative="1" as="geometry">
            <Array as="points" />
          </mxGeometry>
        </mxCell>
        <mxCell id="N_ae5W9qRV80UMjD5rNb-144" value="" style="shape=image;verticalLabelPosition=bottom;labelBackgroundColor=default;verticalAlign=top;aspect=fixed;imageAspect=0;image=https://p.kindpng.com/picc/s/352-3529349_transparent-sql-png-sql-server-logo-png-png.png;" parent="1" vertex="1">
          <mxGeometry x="984" y="-425" width="45.24" height="49.28" as="geometry" />
        </mxCell>
        <mxCell id="N_ae5W9qRV80UMjD5rNb-150" value="" style="edgeStyle=orthogonalEdgeStyle;rounded=0;orthogonalLoop=1;jettySize=auto;html=1;strokeColor=#FF0000;" parent="1" source="N_ae5W9qRV80UMjD5rNb-148" target="ZLGVQ2rk_Wr_WkTqdJoq-7" edge="1">
          <mxGeometry relative="1" as="geometry">
            <mxPoint x="418.2449999999999" y="-747" as="targetPoint" />
            <Array as="points">
              <mxPoint x="416" y="-741" />
            </Array>
          </mxGeometry>
        </mxCell>
        <mxCell id="N_ae5W9qRV80UMjD5rNb-148" value="" style="shape=image;verticalLabelPosition=bottom;labelBackgroundColor=default;verticalAlign=top;aspect=fixed;imageAspect=0;image=https://gremlin.awsworkshop.io/images/gremlin_mascot.png;" parent="1" vertex="1">
          <mxGeometry x="397" y="-755" width="53.05" height="29" as="geometry" />
        </mxCell>
        <mxCell id="N_ae5W9qRV80UMjD5rNb-153" value="Elastic Load Balancing" style="sketch=0;outlineConnect=0;fontColor=#232F3E;gradientColor=none;strokeColor=#ffffff;fillColor=#232F3E;dashed=0;verticalLabelPosition=middle;verticalAlign=bottom;align=center;html=1;whiteSpace=wrap;fontSize=10;fontStyle=1;spacing=3;shape=mxgraph.aws4.productIcon;prIcon=mxgraph.aws4.elastic_load_balancing;" parent="1" vertex="1">
          <mxGeometry x="816" y="305" width="58" height="75" as="geometry" />
        </mxCell>
        <mxCell id="N_ae5W9qRV80UMjD5rNb-155" value="" style="edgeStyle=orthogonalEdgeStyle;rounded=0;orthogonalLoop=1;jettySize=auto;html=1;strokeColor=#009900;" parent="1" source="N_ae5W9qRV80UMjD5rNb-154" target="N_ae5W9qRV80UMjD5rNb-144" edge="1">
          <mxGeometry relative="1" as="geometry" />
        </mxCell>
        <mxCell id="N_ae5W9qRV80UMjD5rNb-154" value="" style="shape=image;verticalLabelPosition=bottom;labelBackgroundColor=default;verticalAlign=top;aspect=fixed;imageAspect=0;image=https://brandslogos.com/wp-content/uploads/images/large/ansible-logo.png;clipPath=inset(0% 0.41% 19.33% 0% round 49%);" parent="1" vertex="1">
          <mxGeometry x="985" y="-298" width="41.88" height="41.71" as="geometry" />
        </mxCell>
        <mxCell id="N_ae5W9qRV80UMjD5rNb-156" value="" style="image;aspect=fixed;html=1;points=[];align=center;fontSize=12;image=img/lib/azure2/other/Azure_A.svg;" parent="1" vertex="1">
          <mxGeometry x="236" y="-465" width="51.97" height="49" as="geometry" />
        </mxCell>
        <mxCell id="r8kyTGd4MDTlxssYAJR3-5" value="" style="edgeStyle=orthogonalEdgeStyle;rounded=0;orthogonalLoop=1;jettySize=auto;html=1;strokeColor=#FF0000;" parent="1" source="r8kyTGd4MDTlxssYAJR3-2" target="N_ae5W9qRV80UMjD5rNb-78" edge="1">
          <mxGeometry relative="1" as="geometry">
            <mxPoint x="2" y="389.6" as="targetPoint" />
            <Array as="points">
              <mxPoint x="268" y="-820" />
              <mxPoint x="1471" y="-820" />
              <mxPoint x="1471" y="382" />
              <mxPoint x="1180" y="382" />
              <mxPoint x="1180" y="426" />
            </Array>
          </mxGeometry>
        </mxCell>
        <mxCell id="r8kyTGd4MDTlxssYAJR3-2" value="" style="shape=image;verticalLabelPosition=bottom;labelBackgroundColor=default;verticalAlign=top;aspect=fixed;imageAspect=0;image=data:image/png,iVBORw0KGgoAAAANSUhEUgAAADgAAAA3CAYAAABZ0InLAAAAAXNSR0IArs4c6QAAAARnQU1BAACxjwv8YQUAAAAJcEhZcwAADsMAAA7DAcdvqGQAABFYSURBVGhD7ZppcJVlssc7Z8tCEkIghAQCIQs7hE2CIm6X0VIRURi9wlVmHBWX8pM1VbeuVdZYZY1+4HrHba46paUM6LAjoLJdQUEJBMIWwr6TACELIZzs5Ez/+uQNJzGEgOjUnZqueuqc857nPG//n+7+d/fznrDI6LhAVWW5/LOKq+n1n1b+BfD/u/wL4I2UQCDQPH4p+dlY1O/3yzfffCOZmZly8uRJCQ8P1xEtGRlpEhcXKy5XWNNMVSLs8vsbLT8LwEuXLsm6devkzTfflF69esmJEyckIiJCYmLiZPqM30h29k3SST+DEXAO2J8D6A0B2NjYKBcvXjRgSHFxsbzzzjsyf/58aWhokJqaGgXhMpDTHn9GHv+PadIzOVE8bpd4vV6JiorUV3czwBsJ9IYA3Lt3r3z//fcGEjl16pR8/fXXcujQIamrq7NrCIr37z9S7r33HunZM0ljUdRd42TUmFGSkZ4qURHhOucywBsB9CcDrK6uNldcuHChVFZW2rWqqiopKyszcK0JxeuNku7dEyQyMkItHpDOnTurVR+XKQ9NluSkRLM0LssA4E8GCcDrEXVLG2vXrg2MHTs24PP5QHLNw+PxBG677VeBJV+sDJwtLgtUVlYFqmrqAnX1DQF1+eb7XK9ckwV1vnz33Xdy+vRpizdi78svv5RVq1ZJRUXFddN/dHScPPjQVMm+6SYJj+kkXrdXMtN6y6CB/SU2trNa8/rd9poAQvcvvPCCnDt3TnTnLeZgyPPnz9vnmJgYI41Qqa2tNZJRC1uqwAURNgMCunDhgtTX10tCQqIkJ/eUyNhYaahrkBHDsmTGjCckK2uo/tZ73W7bYYDE2vvvvy+vv/663HnnnRIfHy/ffvutEQkKDho0SO6++24jjVApLCqSXTt3Krn0l969e9tGIAAsLy+XDRs2GEmxCcwZP368bliFHDt2Rh5+eIr8+teTJTExQTfOI263uwXQjkjwblcRlNm+fbssWLBA0tLS5HdPPSVFhYWyadMm+y46OloeeeQRue+++8y6kAzStWtXiYyKst9mZmSYUlgM98aabBIbggccP35crzfKqFGjlIQS5dNP50hOzibpP6CfZEeNlpjoKAWpCntIJ7Z8h0C6vb6IP7z8X//Z9LFtKS0tlY8++kh++OEHefbZZ+WWm2+WRYsWWWoAzF133dXsuouWLrXrOxQUsXqzzh06bJhZefXqNbJ27f/Jtm3bZP/+/VYEpKdnSFFRoaWW8+fL1VUT5NZbx6mVRPLycnUD3dIrpY/myk5qwcvW66gVO1SLcvO8vDyLL9wQ+sd6WAMLAjAlJcXcL1rj8NixY+a+S5YssffxXbqoglHSpUu8nCs5Jxt1A1avXm1rJCR0k4EDB0qnTp3MTbds2WKxPWDAAI09jxTsKdA4LxR/dY1U19RLfQPkFrDBva8mPwKItQ4fPiwHDx60ceDAATl7ttQIAWudPn3GgCQnJzfH0yGdj3KaLuSFmTNl0gMPSN++fSUpKVl32mXfde/eXd14qkybNl3ZcZD9npisra3Te5aZhRHmUfGwedSzdXrfM8WlGuvHVJ+j+npUDh49JiVl5arTJQPZHtAWLgrtf/XVVzJnzhxzR3YzJydHCgr2q0vtVRY9YTe97bbx6i4e2bFjhyX3k2rh4VnDDRRx161bN61UelqsOZXM1q1b7f3AAQM1jvvKaE0Jt9xyi+zZky9Lly4xhiYlzNBaNTW1j+mxefNmCXO5NQWVy76CfNm5I0/X2SKbczdbDKf06i1ujclQae22PwI4d+5cmT17trkjCuEufn+lVR5YNz8/X1L69NEb+OSgWpe4u6A5sKam2siGOQDro3POnDljvwcsMQcTx8bGGLF01nFKQX3xxRcWk3hHRkamjBkzRo4cOSrLl68wfahZNUuohav0Hn45evSQbMvdpmumyNCsLPF6fFoxqAUVV1vk0yJNoNjLL7+sDPapzJo1yxQjgeNmAH7vvT/LmjWrJVWZtLuSwQllvkJlU9yXGBo+fLiBxPUeUDfFmjBlUlJSM7vi8itXrrT0wcYQBmwKYNgUYrm8/LzOL5YJEybIxIkTLX5xQ+6BJyxevEzuvnei/PY3M6RLXGdLIR4dXo9L3Kor+ByQbZIMX44YMVJGjhxpANl5lL/nnnssPvZr3tqgFQ3UDjgE14U9qWogJOKT35DbqDczNE0MGTLErpM21q5ZY2EAcMAhrLdx40ZzWzZq3LhxpgMxXKYxl5qaauvFxkbJJY3Zi5XVctFfLdUax+hBbds6HlvkwdYBC7Dly5drhRKrFUWW5UAUhMq50dmzZ40lHYJwpEitQ/xQvbD7jqAE1x2LIayH1fAW5jMHoI710YHOpESJqK/GblCUuGobNP6rxaexiEF82noFtBDQ6lO/v+yi7SZ6Ei/KcFNGMMmGGa2/9NJL6q5rLF4Rvnc2h/w3b948SwOQgSNsxJEjRyw2HYCJiYkydepUueOOO8zSkBYkxxqEBmGDlc+VlEltTZCwAgGX8kOj+PVzdG29RGiQXopotDXJm6HSoTzYWrpoXqPiINZwJSoYSjUsgKA0FsalSObOgGWZB8nYrut81mEuZESKwCWpST2eljWt9R7NonWsgiFN1OsG8J682JZcF8BQAeDTTz8tzz33nCqYpIq7zBLUq08++aRVPs545plnrLKJ1YIagJAP86hJ3333XUtLrd39SgJzaiNlwIKhhWWbvgyRDgFkAczvuFVrwRKTJk1Si6ZaQUxczp8/Xz788EP54IMPmgfFOq5LzmMtPGDEiBGagqIMJJ1HW8JmAKmxMdiiOUCCLw5vtIFOpUMAS0pKLOGT2J3E3VqwWmxspAIkPuqMIYmljz/+uHmQflgDVkSgfVosNqU9AUBlZYXs3LlDdu/ebe+DoC6TyZWkQwBJ0m+//bZ88sknzZ1CewKxABgAkZGRLQbu2bpnbE8gGn5DGqIoWLZsmRSeLRK1ZdOM1tLSkj9KE20J7QxW7IiQJ3E7ciCAgu51WWBFTgWwZEcEQoLE0tPT7bcUBuerahRecF1HZXdRsXi04nL59Lo6RKDpvgYQit+3b59ROIOFQoV8BAvieljTkbYchGrEIRNcEdJwNs6rsQrDDtP26bXXXjPrXEko/TgtIE7JwRTy5F8Ok0vefk9KCk/JjrytkpGepp1HhvQo2CcR2/MUnFpWyceU09saQPLSG2+8YRUIlQvBHmpNqB2lyUevvPJK01WNIWVQCutgegjCJTWQJ48fPyHr16+z0zVnLdILZJStyqao4u0BLCkpNTBsKGHRq1eKPProI/ZdQ0OtFOzOlWOH90u/AUPl0X9/VJIS4iQya4C4lcXDGoPrcl97t2LFClusX79+pqDTBpmoqVGMXadHc+IH5YYOHWpJmrwFuTjXIQ3ck9+FDtyNzfBoJ6Ltqs1H8CZ+F+rOFBXEMNfZeNyaDUaYl5mZJpn9+sjJ4wdka+4WKeyaIBX33if+SROl+uGJUjOF8UDQgtA3pdLzzz9vpRmlEkIRm6mgY9VSKBwq3AT3YTPi47u0sAY7l5TUQ7Kzs1t4A+TDcURormMdvIA6lVcHZEJCd7n//vttUyn3qHAcsuGehMBILRLmKlMfOLBXC/9T2gB0U+8MaNEdPLtBDCAt0GOPPSajR4+28ssRkvhTmqyxGlUG8ekIcZqbm2udARvDQ5ZQYU06+lByIpafeOIJrT17N10JAqRFIukTv46H4AUAo/qZMWOGxT/eRQmHsFlZ6lVbtQralLtLys7TFGgeVVwB8YmvCaQBRFncAQbkhnzmwIejCjafTS0uLlHmy7Mb4Sq4zPr1621DcG0IATB06qxBwc0ckrpjQbyEIw/mINS5OTlbDARz8vMLrPc8evSofUfOCw+PML1YorR0u+bCXdbtI4BEb2+YR+q1+K7W2tStLZOFmNetr/reZqo4SrBrWI7j+DD9oW1Jk1RVBY8RCgoK5NVXXzWwuCAHUk4FA0uyltfr07iLN2Vg6aqqatu40GqI48JZs/7blGdd7h0Z6dO6tNLW4BRvwYLF+tlvv+vUKVrvR+MbzMVsJCOgOnJWU1tXL74Gr4Qri3IdnZoBIsQROYzFmICgnDOZneU0rUePHhYfxCVz+Q7lUYj3SLrS90MPTbbYwXU4amidS9mM22+/3dyOzmPIkJFGXM690ae8vMwOqPy6QdnZo2xTqWhCJeDS4ltBAdLOaSi8dQ3WaQbIBxbkBtx48ODBZmo6cF4hFJSgN8MlaZcgC3pC+kTcCLZzyIZ4woW6diWNeK0WRdFQIW5nzpxpRTab9+CDD8qUKVPMPUkNEBKdPUcYxedKZdr06VJd5ddwOdu0QlCwNsM5bWvEJRgql6lPBSuQLni2R/7iJp999pksXrzYPjvCZrBgriqG4rAunx3he+KHYnvjxg3WtLYnjj78Dpdft269/O1v8zQH7jMPQkgrLnKczmG0Fu7urGOA7UorgHyBxTjTxO+5GUyJZejXQoW57DpH76EduiOFhUGS4WifdVqLc3CLy/n9FxVIMHXU1zeYDpy9UICw6a3lSiDbkmaAoRboqFz7L4KCy+OeuDabAyBnA6+mN0U8vyWMnHhvT1pY8JcSzj+dBhiah3ywZHsSsOb2khUEL774oqWb1sVHW/IPAYiyxDfFOIRFgUEZFypYMtQNL6iF8/fssdgmD19tQxz5hwCsqLgg//OnP8lbb71lRTUVjnOeA6jYzrFWtoW2W0WnirQs+8y6kD/+8XWL76uRF9IMEHqF9tsK6hstuFrJuRJj5iC5XCYN0s2t48ZZyqDC4Tr8EB/fWcaNGyuTJ0+2Q+XMzH72nenbDn80A8TsHKGTdH8JkFcSiIPek7KOcxr6VBpuqqv09EztDYdbriZ97Nq1W05oKVjXzkGVJXoS8pYtm+X3vw8+p6MUgtXoJgDLYqQNyqnrYdtrEdyOgoARfMJUranmoHnXX/7ykQKNaZqpnqA8XlZaIkm90ixHOhJKxHZ1woRf2RFDly7J6vfd9IpbVq1aaecf57SCKCw8bRXMOvV7J6cBlKqF4bjXTxVnTaogWi0eZ48Zc5PGY1e1rDYDqlun6O4Ksru9xsQk6tzBatnB1kq5Nbdam6T6oBPDLLhw4SJlpXp1hYvy3p8/lYULPpfZcz433+aMKaDXZ//1c6lo1KJZmQ+LogzH6zxzoEi+ESAJE0KENRkIBXx+/m6JS/BqRz9DMtPTbRP4H1gYgNRePHDxaPdAH8i/pwyoAWxyUfze42kUT7hXxo4fq4rHS1V9nbkFBQq1HQVsVbVf5v/1f6VUyYHcxTM+jhKIFyj/WmOX+aQLvIL3y5atkLztO1s88/NX+rUUPCW9UgcaCHfTnxG8ANF5gOE0gWvhWvNyjO9ze5pctsmC7D6TIpWqs0cMloH901XhWr2xxp+CbGgIHvoCuOjYccnZtk7mao3aTysKqpITJ4JPmfiPGk1pR4VSbO3atc39X1hYrHijlTDcwfoTE7i0/embNlIyMjMklr+pKCiA+NQYcIQP0ArGpfp7fB6J0Ou+CDaB0GmyIBZvbHQp2TjdtEuq9X1NrYKra5CGS406gs/GH3t8upZWe2TpkuXqmsE8ZaWtcs9hrTs5+YL+6ekADTE5hTufL2j7xCPrurpaBXZci/l5TS7vktvvvEuyRmabmzXquuaCvAbCJEqJkL9hRkb4JFxHZGS4phTt/XSDPWo9m6vgfdrk+hQ4ZzrGDzwA9V8oM1fETbAUPVWtWutSPY+gebihQ0EqPvs+Z2OOnD5zVq1cL3X6HQ9A6nXe4gVzVZmLkjVsiBSrRfJ37ZI0zWWpOnhYSmuV2b+//Slhc06OkkWy3Dr+35REEggpGTB4oCQm97BDKY8qF3S9oCUgD5dLAaiVABdlIH3i1c/MDRKeTbT3HpsfJn8HMR8QG2TNrAUAAAAASUVORK5CYII=;clipPath=inset(0% 0% 0% 0%);" parent="1" vertex="1">
          <mxGeometry x="244" y="-765" width="47.86" height="47.00535714285715" as="geometry" />
        </mxCell>
        <mxCell id="r8kyTGd4MDTlxssYAJR3-7" value="" style="shape=image;verticalLabelPosition=bottom;labelBackgroundColor=default;verticalAlign=top;aspect=fixed;imageAspect=0;image=data:image/png,iVBORw0KGgoAAAANSUhEUgAAACgAAAAzCAYAAADl70o1AAAAAXNSR0IArs4c6QAAAARnQU1BAACxjwv8YQUAAAAJcEhZcwAADsMAAA7DAcdvqGQAAApPSURBVGhDzZhZjJ11Gcbf851tzjbnzNZZ2umUTpkKilpFAVNQQ7jRC72ziRcQExMvBLfIBXEP0RgvJNxUMEYL2siaiEtCjEpKiAIpW0uBbtOh0+l09pmz7/ye7zvjKdNpxLQf039y5jvzbf/n/77P87zv/wSaDFsdjYZZgGPA8f6/AkYbSW7J7MBjZoeeNSvmWic3frQBVktmR18wexaQy3Nm5wV2I0cbYDJjNjRqNv2G2eKU2fhrZjOnzWrV1g0bM9oAg2GzeMKsQvSmj5s9dDcp32+WJ/UbOBxr1M3KRYSBOuJps3DILJE0qy+TaiJZq7Ru3Zjh2MG/m/3lAbOVeS/FPXxOvARoAAqcFrB2uPx8fzjq2BvPmT2z12x2wqxryKx7wOzUfzhejXDgXxbg9Zp3d7lg9uLT3P9Hs/lp75zPw7GRD/IXWxk/6J2JxuHdGbOdnzQrAW7mhKdwiaWYNTvzJgD3saBx736fh+N6XijoAVRKE6i5uWKWgo/ls/jjjBfBh79n9tt7APgW54h2Nd96hb8DgHDNoYLkFz2+bdtlFkMkU4dRNBFrALrJ9Z03Apj/54hcfYHFsLD1+HmZh2OTR0hrP5MCpALHNpPy1CZSeBSgvV6FKQNm6zXcDsCoVD5sNokViZ8+D8fmSdnYzUSpDKiTAMALwxEu8f+WD3lAs+c8bgYAOrjNrBeAbx0wW8DIfR6OlYnQNbcAEE5NIwBZSKzPM+5UN/ZzCnFwj0CnABYBqIO/Z/HIiv88dCyCQGqotEoFKcIt8W3sNoRDKhcBV0EoDa5HOsy2o+wVollUreZcnSjrfh+HY11bMWaaBCNCshNNumM3EZNwiFK402yJowQxMMa5SbM0EY4BeB5KFFG8j8Nx03j2VbN+xJEnMivYSieiCSKYRMqrLBP/NitwrYP0GqofvZ50w9XTLCw3673Jp0GKY0SBSbZ+lMkg/TIfh/SGiVK8iy6nB2t5Hc0ALMq9Efwxgg0F8cYC6a5Sx30cjnVD/ACTGzZTxTZcA6ZxGL6JtKp6ENEKnwapTw+iYpQ9g5gqXAvA3wZAfewdHRvFgBWZc/SB8sIqqW0y6TCCqKJeicEB8Ao8lAX1YDNzmHga7obgbRYRSWQ+DccGMeAoAPJMlCaai1QKGXMKHjaJbN92vtNEnH6eqMmo4WENtY9+ChoQuVnAlpQBf4ZjcUQSxtdkK307iSSCKVH2QqhUkesEXAwlK2plFKsoqnardzT+L9LVSPk+DcdCUdL2Eb4BMgigUmvCDkD1wLcSaa4ROX2a8K6fiGdGMHUthEga9uPWZH946Jg66as/D+HxvSweVyd6agRUMTZdxzlSLtUqmmq/MtAgvRmhvMJ5VK5OR0B9ahy8PcnwDQAkagEi1EHKZ7AVt/XCaspEdDO+F0UQM2ykmgCRNSmiWkAF0MvqcPxJswdQ3YuDvSQB1Ik6J/5JVMRDgBgK7fsAoIjgMo1FDZW7DQU8TBDBGgZelg0RSR+GBzDMhGqhgkRJYslRwuoYcBIlpwBcQOF19X+cUwQ3E/E4aV/CD1XDxU2farIH0CEaQ/hhBbuo8qkzaZ2IprbAOfYmcy8DnkVoVEltP6KKIyLxMwhQqbvKAnwYHkAJZROKrcA3qTfE6aVjTE7L1UEacwDp+xhRgpcr7FGU+hDPaIvaRQOxTM+ofYwPwwOo0haj5qon7L3WE8o0OzuVvRAgm0Stj2bCiFKOFkyVJsI9URYjHy2xmIo/TUMLIENWEsacJYAgkSlgOW79pZJE6WpkyDXS7/IQvg3QhbuNBvepsqgj94GHbYAxItGNWvN0MwFMV0BUm7uxkjh75QV4qEhrE1VH2QM0EzJ2RS7EotTZiMOXebQBRildEkQejqV3cIXJCzQIHaReLVaJ7500CmWAqNqIEmq54myskih9jp5RXL0sQ1XJq0xtgEFKngRRJSJDnyYq3LDUMmbVXm1NBbyMGErYjn7kDPOMzFzRz9MNVQD//w61dDk4PPEbs8Pf4vNt9t6PMI/H6TZA9XbimgMwbZoCKmFESh6XRjiq2TXVZZky6VdT2/1xoivVa3FE1OF4weB98lRRocTi8njs7L/Mjv3c7NWvmr1yh9kRQE3spVH5E9eegk7PAJC5GYF3/QQ896LZoXtpEihtZ/8KAI7XftcTyJGfesoVP6+6nXvwzfzbAJb/QQdFOoWgIgCtUoUK+vVBokI8RYBlD3nR1/81fFNUkejUbPC4O9wjfzLwe9s3mP/mNQBLROe1H/FC+CYPzHyYnRxgwnBwCsAy6xjtl4CEoYNUq2jq/ixVRZUoQ1RXADP1KOdlSWSghl1J6XXKpPHMfwHxRd9XgQVxhRjv7rkVW/sC9BlbA1B8mFdjSiWJQH51KwmEIWOWQgOkVZHKw5kEL1Lqzj4JV4l8CfV30IaNsnJFb+J+7gP06lgF435v/QlnEBhB6NzFXPQDqkpRjh3af2vjFlsDUEMWojInM9alMLzUyqb/BjcOAJQoi8A7f8jLsJ9xgMxwrQ4/E/SKYz9mQTxzEkoso2zx0uF5dyPGgpPYVhLTF12C3BdhnxOB87quORVhYZAIAX0hwAr8Ofdn0oTvVeHKwBepLp+BvP9g0l+QNkiuCFz3IGUOs576Par7Hc+R5gQTb78HUVEWz+wjgkewIbatMbIgMAIeYVHaa4saEp0bEOYpjfM5znfaNwUowS6zd886ANU6vU6altjzitDDqGzkax7h30RtOfglgCPcMwQ/C/jmAqrUJFH8sPc2D5QUK84pakqvfqHQItQV6eflEgKrQIs6ZbQhjhIY/WqmXzEknAzvGfzOhQCboA+8/CVIr8rBpfQnzHaQNnHy5M+8NMSJSCcKT7Pz09N6ub4olSEEFaRkFuBplkUKlK4LYJXFN7VrVNTUvgHM4L3Sque1EA0dEsw78M11IigRHMafcuw5oig2s5uV7PF4kqdhFQip2lHvSKpkpSXUmnuJI9GMQvDMZwEEmKn7OA9IKVlA9G7ZlAtGR551cIsA75IPi4cRthMxlVeEk7xpHYAai4hBHhXG01xFicSQXemQl5VJTVm/0QA+Qs848wfU/zigUG8Kfxz8OkBR9Nvfhyrw2QXDEIigjJ20S7HuYhFJVLYFN3UuJPfgnTpyfX2A6vtUulT2lAZFJcaWtEjaZhFFgT1LgxT1E+muz6HwXwFwPwsglTEajoG7AA+HplDyClVBwgihWgcflWoF3gWgzgmr0XeJaDWS542LA5yAdwVqsYSSoJkdupMUEqHJn3DE3/SybsxUYBafAODDAESZcdLT9xUiifLz+t2biuFGByCu3RCl1ei5YNrVdr1xEYBw5eiX4Q8+JkVpgtFfcx4eTVFDi1IyL04qnXezCBRcFGj4JA5F6bLDGK7LPV6v8wYYVwQtIbzHsT5AjdM/IDIUb71U6Rn5JZPCxWVZCnbgsG+OkKoEnqeIqOwJyJoUXeq4OMACUSqhWq1YYJLs5MQTCUXRC+inEdL8P1J0qePiAK+Q4e/yL3mYvQP/7yXLnTgGlAAAAABJRU5ErkJggg==;" parent="1" vertex="1">
          <mxGeometry x="1104.003529411765" y="58.00117647058829" width="40" height="51" as="geometry" />
        </mxCell>
        <mxCell id="r8kyTGd4MDTlxssYAJR3-12" value="" style="edgeStyle=orthogonalEdgeStyle;rounded=0;orthogonalLoop=1;jettySize=auto;html=1;strokeColor=#FF0000;" parent="1" source="ZLGVQ2rk_Wr_WkTqdJoq-13" target="x5Qx7wWfgq4q1o_DWIzA-42" edge="1">
          <mxGeometry relative="1" as="geometry">
            <mxPoint x="605" y="-109.48888888888882" as="sourcePoint" />
            <Array as="points">
              <mxPoint x="40" y="-144" />
              <mxPoint x="40" y="-595" />
              <mxPoint x="380" y="-595" />
              <mxPoint x="380" y="-677" />
              <mxPoint x="550" y="-677" />
              <mxPoint x="550" y="-636" />
            </Array>
          </mxGeometry>
        </mxCell>
        <mxCell id="r8kyTGd4MDTlxssYAJR3-15" value="" style="edgeStyle=orthogonalEdgeStyle;rounded=0;orthogonalLoop=1;jettySize=auto;html=1;" parent="1" source="r8kyTGd4MDTlxssYAJR3-13" target="k0CTzh7-vUOgCoUulJSG-51" edge="1">
          <mxGeometry relative="1" as="geometry">
            <Array as="points">
              <mxPoint x="408" y="-386" />
              <mxPoint x="408" y="-386" />
            </Array>
          </mxGeometry>
        </mxCell>
        <mxCell id="r8kyTGd4MDTlxssYAJR3-13" value="" style="shape=image;verticalLabelPosition=bottom;labelBackgroundColor=default;verticalAlign=top;aspect=fixed;imageAspect=0;image=data:image/png,iVBORw0KGgoAAAANSUhEUgAAACUAAAAkCAYAAAAOwvOmAAAAAXNSR0IArs4c6QAAAARnQU1BAACxjwv8YQUAAAAJcEhZcwAADsMAAA7DAcdvqGQAAAo+SURBVFhHtVgLcFTlGT3ZbJJ9JNk8yHsTkpBAXiQ80wTUWkEEhKJlFCrqlMpI69TWTh/TqTIyYy2O06pDnVpRh05BQdFWkaEKQYTwCI/GkATIk7yfu0k2m91k39vz3TwmYoLTKTnDDZu7997/u993vvOdPwF+AmPw8aPT7YPd6cWI2wuPb/SrIFUAtMGB0IeoEaJWISBAOQ2v14u6ujqcPHkSW7duhVarHf3i/8REUBJAz6AT5c0WnKnvw7UuG4ZcHl4RgAgGlJsYhjuzZmFhsgGx4SETgc0ElKAkoMYeOw5caMfxWrOy6MKkMOQlhkNiruwYQnnbIFxeH+5Ii8L276UhJix4xgIL8LFmjb12vFvWhqp2K+7LjcWa/DhE6YMRpA5AUKAKXiWLDnxe1YvDFT3IN4bh6XvnYBYDmwmorCNunLhuQtmNAWxYEI9HioywjnhwtLIbF3luwO5mRgKQGKnFA4sTsWFRPCo6rDhS0QUPMzcTULX3j6CK5ZlHzqzKi0Urf3/jVDP+eKwROz6pwZ8+q4dc4yDxI/VBWJEdg/ykcJSwzJ0Wx9hjbi9U7XxwD4/c+FCFS5ZhN8wk/B2pEdi4MAGVLOmzH13Dp191M4NupWSFaREYdvpQ22kbe8zthcrm8iI4SIUsBiVlklb0k8CJUVr89J40vPiDbEUK/nqqBe+cboFw26ALQiA/9NtdykNuN1SiTQFcQcPAboaIRXqMHg8XJiFCq0bDWBnVJL8EJffOBFQaLuCmWLb1f50fHo8PNV1DCqfkiA4NwqNLkiiiagw5PNQ1QMcMzgRUojchzNIVdtQISxnEFARTwcsaB7DzcA3ONlmwKicGf34oD8WZURjmNa0DI/DzupTo26PgN0M1O1qHHGM4mvtGcJWklnKJcvcxGymROrz1aL6iSQZ2nujVdSr9oUudSGBTZFNcZwIBbq50pq4Pe042I4ol2nbXbGTGhcLB+ug4XjQ8hP0SkAT9+hc34Obvv1udgSzKyExAGTNeEra0tg+7SxqhUqkoBfEonhOFUG0QrwAF1IXzjf3YV9aOcE0QflRsxDoKrWiny+OFky8gyq8JCkQgyyodOh3k5WRcOV0+BLC3tLxH7p08siYGstvrRzXn296zrThHHgXz4VpyjZfDTufg9PmwgPPwN6syMDchFCarEx+Xd+H4VRPs5JmeGV1MbfvxnbOnHdjiPk5TdN871wbTsAuB5G4m6fLEXanI5ehSjd30NesiH2zkUjXL9GF5Jy42D6IoORz5KQbkUsVzGJSamaxqH2RWb6DBNIKCxFAYqWm9Qy5U8KVkZj69Ig3fJS8nwzzkxKufN+JYjRk5cXpkJ4QpGb7UNAAbX3rb8hRsZgXUDFRcwDfAlvf//Vybf9Vr5/0fXGgfOzuKZpPd/9v3q/3rdpf5j1V1+30y0Qk3rUZFi8W/6Y1L/i1vXvZ3WRzKeQHL73/5aJ1/2a5S/+sljX43yyKQW3utDv8z71X6i3ad9p+v71POf1MxCUmiBNzBcXOU5anpHFLOiwGspnRUU78eLzRiRU6sMgWcFNRrzF6TyY5fslOtHFV7qf5SAxFYk82Fc5SYdbkxeOqedKhpFAVSlRN8/lOcHBoS7CCtk2BK9VOC4hEWrEIvLcvPDlRhMc1dPLlyvdtGLxWCBbMNqKM8SPAtVPq/nWxC6iw9fkKvlcXSnGdZ3uQ5IbOYx34GMJdd3WN1wGx1Kdr4h09rYba5sYRcXEMz8G+6FcG0kiyB5fHhW5clK070FLvzfNNop+UbDXyYC2/RTTSahpXA5nF2/uLedC4WqCzYzpc5eLlTeZaYyEAZY/z3ymcNONXQjySDhoG68cL6eTBSK+MNIWy2USs0msdpIKURcX2GHbf/ySXY81gBfrg0CTanR/HqG5ckKk9IjtLh1/dlIJnXOigRkt0iZnLfE4uwb9sivLAhCxq+psXuUVxrOieBlR370oPZnBLRIB9xloFGiAQR3xIUL2AaghlABBU9k9komhOJYZbig0sdil//BxfetTEb6SzNILlUUt2LFlqhleSbdKWR5jCT3ZZoCMY5LiyC/Mqm+Xj14VwUpkcqdvtS8wCukLf30/UKbh0UD3EDE58ZYA5VfFNhIsqoZa8dvwE7Xaq4Bhnee0tbsP9iB4pTI/F9ejF5KTniWCoheD0bYfv+SjSb7YgJDUHngAOHeP2zn9QijtPkgcUJo2tJCyqfJmGYIvfxV104TS7tZM3jIzRj34zaGTGCJVd78faZVogf0zKTToqvlPR+EvaxZUaawZCxO0bhYOeWcSq8dLQeFpZfR455+CwveVSYEoFfcWwlMavKi0wX1L8Y1CnOxJ3r5yr+fDLkDhd50Em3UN5igZljSPgwn4M9PSZUIbo8/GZ4GPgAlVwEs40GQMaL3COGQMcGGb9nyqBkHPyTI6SUmXp+3VwkkRs3YzywAWbN6fZwLAUqjlQXwgF+CzAuRZ9GmDkJIpTXy4iajKkzxZJIpo5RN3asmYsMEnUy5I2vUkTfpkA2kCdDDE7Lt85kV62eH4f1Y3yaDFnFxJ3Rkev96OX/EpTMukhNILJjdViZGTFxz5REF25EshwmutEvxwRtHKLqpXVmPM+djpnzbiV3N08uT8Zackncxp7SVrzLgTsZlCn0UNc+rDKjzeJCWqQGd6cbUJwSRtcRiNJmKw5eMSt2STBlpgQN3DHvYSbM5MDvScIMtrxAPNWLR+qgYuDPrc2k8GnZoQHKOOlgN73DDqxh9p5bnYmlbHnBoMOLQ5Vm9FGntiyMQbRerXSyLO0k28s7bPiicRDrcyKxVNyCctcUMPJtivnQFu6e/3KiCRfYOUPcYske0cFXF08luhVKnz7+x4/0WD0e+Y4RoeTXkSvd4MBVsmQjR6V0WbFaRa/EEok1koqEMVMFCXolYxdbR7ds0wYVwoVW5MzCz1eko41dtuNwLbbvu6IMzXCWdk5sKKp7hnG83sJMeFDebsOXN6x0r8FIjdagU+YdAznTZMUhls1FHiYxIBlJkyG/6kn2nBgtPZZbOTdtUHJxGBeXXbMo9kOLEuDiG8vMkwer+aZ+UkDSL17TRzcmLlTIG0jPJfwShrhpDiVTwpGbAxqHnBbHOv5XgG9VdClNJrOymWV5eVMeHiepJQPCuew4Le6eY1DaOi9ej7tIXpmL9fwunhmL1KlRRDJvnD8LGi7aQ0cwFUZI8OruYcRwlAluGdQ4ZP6FadRIjdGhiDwzhKhwgLOPhg968kMyINuyPlrk91leB7OztiBeEUfRoMTwYMRzK1fVbUcjRXN8Eys/h9nN/2HpB0a8WGwcbaZpu2862JmJkmsm7Cb5Zdu1nF5IbEuLyAfFdoTfP8hNxZZlKRO7biF7x6ALH5FbkpXZkSHUNA1Hkw+VXcOcCB4YaV02F0QrA/t/DkquHmQXXm624DgdgThRJ1cVjmXQuoh4LsuIUgg/GeKp2ixOVHTZUUtvL8QXGFj6gkQ98ln+KJYbAP4L5f0g/gOjrfoAAAAASUVORK5CYII=;" parent="1" vertex="1">
          <mxGeometry x="386" y="-448" width="43" height="41.84" as="geometry" />
        </mxCell>
        <mxCell id="AvjPUPnIdQfhMVvMriVI-1" value="" style="edgeStyle=orthogonalEdgeStyle;rounded=0;orthogonalLoop=1;jettySize=auto;html=1;strokeColor=#6600CC;" parent="1" source="N_ae5W9qRV80UMjD5rNb-78" target="nSMH6S4gf7WrHXCQg2CD-1" edge="1">
          <mxGeometry relative="1" as="geometry">
            <mxPoint x="1040" y="307" as="sourcePoint" />
            <mxPoint x="1033.9999999999995" y="78" as="targetPoint" />
            <Array as="points">
              <mxPoint x="1046" y="190" />
              <mxPoint x="1046" y="190" />
            </Array>
          </mxGeometry>
        </mxCell>
        <mxCell id="8N1gZI2geE5Co_WE50Yg-1" value="" style="shape=image;verticalLabelPosition=bottom;labelBackgroundColor=default;verticalAlign=top;aspect=fixed;imageAspect=0;image=data:image/png,iVBORw0KGgoAAAANSUhEUgAAACcAAAAzCAYAAAAU5BG4AAAAAXNSR0IArs4c6QAAAARnQU1BAACxjwv8YQUAAAAJcEhZcwAADsMAAA7DAcdvqGQAAA33SURBVGhDzZgJrJ1lmcf/39nvvrV36e3ldqGCpexYyIhkpJWoUQZEE0nGsGVMxBiDmQVZMjLj6IwhI2OiDssYRIOiGBwVcaHEDBiVAZG2IrWU9l663rZ3384+v/97zrnlXi69vbMk87Tf/c753vd73/+z/Z/nPVEZ0f9T+V8BV2KFEn+K3KNIivMnHqsO/g/kvwWuWJImciWNzJQ0zn06XwJgpLAS4CLu9clIzelI7XVxNXFPxBhYpiwLXAFQhycK2jOaVyoZV1tjTDE2LRlQdU4Q5gnLFQtlHR0tsEmk9W1xdTXFlwXylMHtY5OXjua0oTeN66L5YJYSthidKmpssqiNK1PqboxXB04uJwXngclsSTuGcqpjwdb6OLF1YqwGsHavLeTvCxd1LBYJysMjBbUlY1rfnlAdrj+ZvCk4B/cRNN03nld7cxI34j6eOc47klK2KI0yyfPyIM4zWFsoCZJ0nKTgHjOq14nnjLJuMVfWBgC2ZWIB+GKyKLgQWyywfwotmxJKsJHfZx1lmV3HKxNkxVCuADjGFi7OHC+aYKAuEVOG95PRCRAOu5Hpoma4zmhPkTTE7iIA3wDOmThEfOznxUbcmEqQabxILIv4156ZooayBLn/sVs57vjhc7kUFCj5mYGUmOMYYHWeqCGZUD38kgSFNzRQW3CW9TauSKkVgAtlHjh/MD0M4Mp0Jq50Kib+q539Z3Hb8VxRh/Cn3VWKJxQr5tVy4A9KD+1Vojhb4btYGtMkNbX+Ao139Ckq5hQDZIltUoBrSsTxAIsCztY6OlFUxLqbOtNviMF54KbzZe0dw1W81YAmFWCRporEHpY0QC9oyzQP7dPKF3+g7he/o9i+/6ws4JWcMMTj5Nuu07GNl2v43K2aaOlSvJAPwwlQNabiqgOgref1DgzntAJqOnMlwfw6mQNnrY8CYABTdzQnsA6BnwAwET84U9AMdy9UjMXVvfd59f/wDmV2bKuAaV1JFjRVfGUGHpmFpQ9KDdL4Rddr8M9u0/HudfMANgEwgyV5A6Ypa+BwThf2pOe5dw7cJNmz63hODY0JJQmyVoCZnwZmi5qiAnjfEsAax4/ovC+ej7WOSZdeQ6rmpYGdFZBxNHcI5phMMqk4Ig0f1/RlH9TOG76qbF0zG5YCwBSathKHJmWvPYFhCoTUhfBoTQJMT85iGcaUxO9Um+DS44CaJnX9ssVxdvY9fYrtBVjfBukt50kbzpJwmwpYK0ziSnF55VQ7cdGl+hce1Zqffln5lAewCFeezJvmsml8NWExig/Pw5QgAVwRn45Dtiua48Ertqzjb4S6aeBhDsC6Xtup5Ct86VqLdVjlN7j1d8/hxsNolalM9Ave3SAtKdyNtOz4vjqO7A3WD4LGUwVTUXUHvjdDB65ENQngMJBeGy/hzligDSfNGBbLArpqNBUSCb31p3dT0fkSxwJe8whID78Uxp2hJ4TBQDHcbfbMaUoP/E49P/sqSp6Y5zjP8cdLGWN9KtLgWC58tsQmYNXfDM4oT4p5HYMrMOrMrAGz2KL6j4dwUz+TsBoLKYW1EkS9wc4TxqKqBSJikkxkAyVHBpUsZQOYMMSGdm0NjY0zhceeO5DVFDkQOzRewGpF2ppYmOMsZTyAq6GzKxqmRyvWOj4gDWKx4QNoMcaKgHi9FhZr4jIzy7yJfbh9b3Czp8UMBioK07hy0BRP5qSZFmv/WD6EWcx9mctLHeAsfsGWy3H5szktns/qzJ9/G67hwYbrpM2fkFa9H7cC4uCraIRZagBjPCvNSMcAFCdZzrxeOu8mqe0cNe3eq45XtgdL1fziuwm6Jg3ORsSPomf2zZQPTha0sS8DQ5vBpRm03jdN+WFemUS4+N7blX7oC9ITr6rct7YCGo2j3z4tfR46mRqWzljvrMHNAN0OsLf+qfSFf1e5Efrw/IkxRT/8uvS5T2r3fU/r8MaLKW/FAGJFOhGqh+dNQl17DmZ1cV9dJSEsFbzcrURVE1PHqj88q9TjJ4Dt2rVL27Zt04FDh1S+8DLprx5m9dNwHfSS4r1BgF14pXT3j1RuaNb27dv11FNPaWgWAr7qRunWf9aqx+5R/ehRlV3GvE/4WxVbBDT+OzdqOqmJ2xwPlsjQ7ie/rejj96rc2ROeffr227V161Z97cEHCR3idNMl0mW4bYz48xKEpq67TeVMHTqWdMstt2jLli165FsPK6pvVHnjZjUcfE6Nh6CVauzNCRsU8ZorkTE6QsKaObLAd2vhwu52x1KagOVX9vCwwk9tHR1a3d+v+gay1FIHtzS2VtQsQcQ8Lq/sDau7+LS0tmrNunWqrzcHIbhZPefC+tmqlSpJaLHDZpyN1e8+AgS2npolNPlsgib0QpJ4cpSGJqYm2NhsXtZdd96p+++7T39+7bXhe+ix6E6CVhEKgC/KkhCMmSr+7jOf0QP336+rr746KK8cE3BpROnyHP+rRFtFxmjXvKxxxTbQ1m4m+Aq4wGLvpljUyRsVCxq9lEUf/5qi2ekwvrq3V+++4gp1dVGyrM0fd0i/egwG9Wq8ZMr7AYHPuwa3adMmbbn8crW3U8rMnYcGVMgd1eyKVaHOZvCIgVhKGCCHnhdRX5vpbGMrGuI6jSrf25AIcQf3BSM0QohpGsZ9F23Fdbjt3r+HT00ZlWaRD4oGdiv65j9Jr/xS6lyHC7DcGkrbI/+g6LF/C+BOzAfYzmelOz6kw9d8VmMr+4xGDT7geh6SxaVrW5PqpSvKUA1CV2JruV16lcrbyWADc+HCQCej+Dk5O6E/+dc74TS6jy3XMtgICR+RtlExxrDcaQCzS31GdDczO8nLtEyXkJ3nXWo9yOI/YtF/1NDHvq5XLvuAislkCHjTiDsTW2+Qg9TmbppOVx8kgPOHsdmSXuDotxo3x5npQ4wL/wHa6ALfc4mktt6MlvZujsudjWt63WpWIdgNLAjLxblKJNIR6MVzeU1DGOCD1+mlv3hQsQL1E45rT3ECozO25MjS4eGC3t5fbSAQvxbEPt4IopFJWmq+U0HUk+Y4SHaEkuOUclOJh0W2qgtuqzsdEHWVLJoT5hUMlBjrgZjXrCFQmfsWHjW0UQq5484MJTFV5TnfBjHMWZ3za/QcOC/nI12JhspaOPb2ozVJjC2IF9s3jftcz4toFy6+5HYzCZflphiDHrLjfKeeura6YhQwcQFf+z13JDxOomgznbA95HAbpvvu5Myy8JAz71sr1utvSWpyygcSZzo8hdkb3VUYXAt8V202xIFGGTjrLGpt79sY309CACp5SFr7DkBAJyRUkBJuQJeosVMJMtSHHHfCNkiuUNYo55aNC6xmmQfOWnSAvh1XjlJvQ0HmmRdr9kr1uNU+t5jdx7drpOt0jd5K03njI9J7Pyt96pc68InvApauhZNXkDJ+Z3ocZRwmPjtYcnTfhzganN2VCkfQhTIPnMUmX0VH3EIgjGNuAzQlYFCQE/w1cAncRTI8ThZ/7q6/1ZP5lfr12vfo0ZeO6tabP1qZ537PYsvVr1KiszewgBWehTaOY7ENsEMH5+M3QlsEnKUOLfpaiAG4bphez/zniflugtvutfjOieui1Wv0xN1f1Lved5VuvOlGfejqq9Sx88csQgZE5hWkRBym2pRvXRXem+SwMg1N9dMCdXPVytdCWRScxQfcfsi5i1IxNlHSKHFYbOvGVdUJFvr7M1fV64Fr1uvjpyd1wdSA7tzco3veQXaiWAhcS5lEwZXZVF1QtozVDKwn/CRWmbKYzPHcm4nXPwZBj+CZxh1Pq/dL76QROKM6ilhr1zqsQVekjH9QieNTPs/J1C5Nrt6sl296Qq1tLeqk1DVxvKsWhjeVk+CuiJm7kxK3hpNRmw/KFc48IVYNAvfhIxMajwXALPF6pbJjOn1sj/qbY2pGmaWAWZYEFwTjpvfvVv3Df435qs8Win8LM3PUEub1ku5UanCXWp98SMlxqsbJnTUnJ3crTK4Xfy397Dtc/1LZ/FzoJE+Z4BSlONVhSWH5iEA9vieUsAD+w3dJ76FG91FBqlViMVky5pQDxDSFvICvXAVupmS5A0ljwhxt71IAi7w/BTlfAJgbUNAK0yWHGOAYcDJZ2q0p+Ky1g/aBTG3AYo45n5A2XU4SDFY2r/aCc1JACVcHk7A7aA+30B23YfUO+kDOFksBs5xazNXEHYSrjBuBdPXk7qphADWABtYMH5qkc3ul9RyCQmeyvK0sy3uj9iuST/Nx2N9v17cA1sFYjY4i4Nqxsif6tx1IOtxjS1tqoSwTHBt4DxvJZwDTgWOnVuAdvqGOsqzBeF4zQH2nH1yuLB9c2m4EjOMvVAu7lA85ulC7tEipSgbfV1Z3vPr+f245Z5p9VKQtaiOwbQwDyb1G6wLoTjLZUgaw23YbtImm0zF3ck5YVE4N3DRHw92/lX78FekFPq//MCWM7POG1EthMK07Xzr7igrgAqja6f0MqpsDD/VeT3AGeeZ70sDvK+udgpwaOLszw2m5gxPTXQC86i+lnzxAMjDWTctuEF1w33oA2qNjWPbt13Aq4/PLz0t/84x00zeqcceWoXQtbcpTA5fGOqtpgS65Ujr/3dIB2D4Bso/9AsAEPF+VJnt9rrDn9z8lbb0BRT4vPfZp6VlaqIYVnD3OwYpUBSu6aAc3X5auEAslD+nOUDHsGv9GtxOrHBuQruAY2HeW9KMv4f5bIemPSGfQrm+4AAIGWIaKYlC1BvQUZPngamLSzeNPjnlBbF3zoIFnCUInhIH4ee134GWJ9F/oXaAWlCYx1QAAAABJRU5ErkJggg==;" parent="1" vertex="1">
          <mxGeometry x="984" y="-633" width="38.59" height="50.46" as="geometry" />
        </mxCell>
        <mxCell id="8N1gZI2geE5Co_WE50Yg-4" value="" style="rounded=0;whiteSpace=wrap;html=1;fillColor=#E6E6E6;" parent="1" vertex="1">
          <mxGeometry x="529" y="-191" width="244" height="328" as="geometry" />
        </mxCell>
        <mxCell id="8N1gZI2geE5Co_WE50Yg-5" value="" style="shape=image;verticalLabelPosition=bottom;labelBackgroundColor=default;verticalAlign=top;aspect=fixed;imageAspect=0;image=https://logodownload.org/wp-content/uploads/2018/03/nginx-logo-1.png;" parent="1" vertex="1">
          <mxGeometry x="595" y="-172" width="37.1" height="42.56" as="geometry" />
        </mxCell>
        <mxCell id="8N1gZI2geE5Co_WE50Yg-6" value="" style="shape=image;verticalLabelPosition=bottom;labelBackgroundColor=default;verticalAlign=top;aspect=fixed;imageAspect=0;image=https://logos-marcas.com/wp-content/uploads/2020/09/Oracle-Logo.png;clipPath=inset(39.35% 0.67% 37.57% 1%);" parent="1" vertex="1">
          <mxGeometry x="580" y="-116" width="62" height="8.19" as="geometry" />
        </mxCell>
        <mxCell id="8N1gZI2geE5Co_WE50Yg-13" value="" style="edgeStyle=orthogonalEdgeStyle;rounded=0;orthogonalLoop=1;jettySize=auto;html=1;strokeColor=#FF8000;" parent="1" source="jLODFZI8iJjH5nCVOGuu-12" target="8N1gZI2geE5Co_WE50Yg-5" edge="1">
          <mxGeometry relative="1" as="geometry">
            <Array as="points">
              <mxPoint x="573" y="-151" />
            </Array>
            <mxPoint x="577" y="-403" as="sourcePoint" />
            <mxPoint x="592.1000000000001" y="-310.97142857142865" as="targetPoint" />
          </mxGeometry>
        </mxCell>
        <mxCell id="8N1gZI2geE5Co_WE50Yg-14" value="" style="shape=image;verticalLabelPosition=bottom;labelBackgroundColor=default;verticalAlign=top;aspect=fixed;imageAspect=0;image=data:image/png,iVBORw0KGgoAAAANSUhEUgAAADgAAAAxCAYAAACPiWrWAAAAAXNSR0IArs4c6QAAAARnQU1BAACxjwv8YQUAAAAJcEhZcwAADsMAAA7DAcdvqGQAAAyTSURBVGhDzZoJVFRHFob/183SCMouKKgEVNxgXMCVxN0oyRyNTiaLGaPJMUZn5iRjPFkmJpLEY8wkJiZjosaoGZdoDHFXRBkliiKIIIsLm9ossjU7tL2+mluPhzRH1IYmOt85j26qquvVrXtv1b31nsAIPACRmnwUn4GP3/0ZwxaMA7R6pMWkAy6OmD1zJKaGBuDVoYGwVyjkX/z/YJWARlFEv00xUBdooFkxFya9Ebszb2BjQhauns8Fak1Yv+o5DPB2haNSCWcHO3h2cYSXswqOdkq5l0eDVQKaqcnL+85h58FkZK6ej0E+blAIAgqrG7DvWgHeOHABSMgGJg2kHgUEuTphYg8PhPp4YERQD4zu7S21fxQoowj5+z3hg/N1csSWY5dQ19URY/29yTrt4erkgFG9vDE+oDtquzmgD/3vbW+H6tt6xF8uQMz2RGypq4G/i5OkWW/6fNhiWqVBjllkWJN4Be/M/AFv7ZmPTx4fAif7FvPTGU3Qm0Vo6bOGfPSaphb7r5dgW3wmkHYLobOG4a1JoXimnz+60uQ8NLiA1lJ7W88ifzrFMDmKxeeXMLNIy48M/1at1TGDiQxaxmA2s//mFLHJm2MZnvuM4emVbGV8OsutqJXaPwys1mAzavK7gG8Ooh/5WdJrkXCnxYRjJO2tTbwKA31fOiqYtGsnlfPuNY16HCVfnX8gGaBF6akXI7Bq+ggM9nWH8vf2TS5ge9l9KZ8h4B/syBX1HS0aSVsfnUpn+NNqlq+plcos4ZpNLihnPTceZRi4lIWsO8Ti8oqZycIKfg86JOCt2kaGBWvZs7viSbCWAdbeNrDB38ewvDYE5HBhcqgufBeZ+Zj3aHPdyRLUpb+rkB0S0ERCTfjxOMOK7a18jg8zr6KGaQ2mpoI24BovqGlk0/adY4hYzvBZNEtUl8m1nU+HBOScuV7KMPYDllVSJZdYD1cYFzJ4+0kG/zfZuB+OscKaBrm2c+mwgFxzWLWb/XF7XKvV1Fq4FVwtq2aPbTrGMOpdtnRvAqvTGeTazqPDwaO9UoGVo4Nx6JOjyCyplkutR6kQ0NfLFb9MHw6MDsSXOxNw5FqhXNt52BQdvxAaCIR44/W4VOhNZrnUeuxIyP7eblj3XARQ3Yh5x1OlbagzsSpUuxd8D7T3c8e2lUdQEOCGyAAfGnT75syBgnFvFxWSHBQo2E/7ZE8PCv18JAvpDGzuZWl4MIa/Ohbb9iSgTmeUS62Hb/O9XJ2xenwIENQda0+mI0dT11TZCdgsoBOlRl4qii27OEDVwdSIaz3QsxtmRQwCKCU7QTFsZ9EpdpBcWI55k4dKGUZH8SJznz2oD1CpRXT6DdRQRtIZ2CxgpVaHmiu38EHEYJ4KdhgVxa7h/l5wnTkcSfFZiL5SINfYhs0C0oYv+U4QmZgt8Lnp4+6Cr58gX9SbsPFiLqoo7bIVmwU8mV+CAT7uNmmvGa7FUF8PICwIKRk3kFKkkWs6js0CXq2sgx9l8pZQ8IwLhRU8SpJLrIPPUYC7M1ZFDASySrE1JRcN+vavzJbYLKCRidKZTTMmyvy3p+Vj5MEkNFJ2315cVQ6Y2q8n8Hh/7D6VgdicYrmmY9gsYLB7N2Q13Jb/A0rrtHglOoFsN7NDIRw//wn0dMXH44cARVXYlnUD9TZo0WYBp/TtAQ35CoXbZJLA9apaIJNWwAYtXj95CRRUyy2th2tx3GO+tHj54GBiNk7dKMXtDlgDx2YBJwT2AHLLkVpcKS00KTTrMBph/+QwZOxNwWkaXHvhgXiorzvemzUaSC/CzO+OYN7+c4ihYJxyTbmVddgsID/cxZi+CD+aTP7IcLa4ghyR4dspwwBfFyw7d1nSbnvxoI1/UVhfLP9wDtC1C6J/OY/IFbswb89vOJFbbP3i05Q12cZXZ7JIgiVs/+VChi9+YRj/PsuvrGPbMm4w9FnGTuQUyi3bB88zKxt1LLmwgv2apWYrYi8yvLOVIXIlW3z4vFVJcrtP1dpC06DDkC2xKEvOA8hUMa4/dFF/Ib8x42VacA6m5qIo6iX4UVDdEfgI+dZTR1rL19RgB+2R//7+JEY8GYKvZoRjTJ/usLtX9iGJ2QnkVNSwqNgUNp4y9Ji8YqmMayC7vIYN+O4Q+/BEqlRmK/yAqrReS9aiZk6f/8ow70u2Ljmn1dmQJZ0mID+0qNLqWBGZjdHiZvxoIpuEX7j3HDuVd0sutR1aVVlakYa99OsZhte/Yx+ezWLVWr1c20KnCXg/+Kxzf0m4WcqKbTxc4n3pSLh6g4kV8D6LKthTe04zPLOarbuQLU2oJZ3ig9bA79JgMKK8XgtnSqt8aWVsD43026SCCmzNuokd6nKgjIIINcWq5VqK0t2AHp7YNHMU5g0LgoOFPz40ATn8TkaRn90IrQZhDTkVtXjx5wRcPHwe8HQBwoPx9fAghPfyhjMFBipKvLt3UUlBgmXg/1AFtAX+1Go9Bd/L/rUXGOCHn+ZOxKxgP+lM537PN2ze6B8WXSiVmhXsj6lzxgAJeXhxaxw2UVBPC4vcom2UdjtmR53+pgz80pYa4BvSBQ7Oj/ax871wdXTAlAAfaCnBTonLwLHYVBzVGxDi5Yrebi5t5qRC5U39HRNVuSigclNCoby3yh813KOqdAbE5ZXg+diLQEwGMLQ39r06BZHBve72be6DlvCnRfc7iNfTHifSUv2o4VtFSZ2WxWQXMI8vohkG/pPtSMu/6zFCq0VmxrY4HEvLg6+fJ/Y/PxFhPT2lyL6ZN2Mu4OvYFHIIFeIWTMPEvj0f/HKBSNF/aTJMFz8Hq8mSC2WUKij8pkIxYhnY5a0QC48AugIwON2pF9xCoRgwF7B3BqM+4BcBZdi7TfUEf/CqadThwBU1vr9cgLUT/oCIQJ+WcUliyoSv3s2weB3DtBXszQOJUmTSTEZJJcOMKOmRGaYsZ1EnLkqbLp+wtvQplfM/ukpm3ASm/5ZuVaemEERjcVVSfRUTr/zIdIvAjIenM9ZAgblUV8HE0mRm2u7DDPR7duUHpnuP2sQvlu/QgnQbObJZn3iVpRdTvzKtDVZkmDx+MODvhrXJ2dDIJ9XUAT4+TbNvMGPt05SjGUToKY9VVzViAmn9p1QKsi0w0KwuP34RkbviSQtKmBvI2d0GUNrTixzd0+LyoHXcnkatg2hPX70iAGc/uc4LQtc+QMACiPyg24Ea8LWvjV2NK4u/jxPS0wMvDA1EoGdXuaaNbaKv0h7zKSJAfDbU5TWSCVTdNiA6KQcY7I8wf7o5CcwfnGgh4vSaGPx2s0z+dRM88l91KQ/HjqfBDAfYDVsMU+Y1mPbNgDluIV2LYD77PljRKWpNAxbkQQt8OBYmz//nzzr4oYDg0KqqLfh+yDd6ywPouwS8WdeIL6aFAaMCMXVjDEpon9mank+r1VVsmDsB7hQxSDckFPzmznYgx24qkGkaLp9WmnI7JyjHrYHT3xNhF/IaFH2mQen3OMVe16HfMAliyqe0/pPW7gcX7AHC3Yu7BOQ7hBOpe8HEECApHylFlXh7fSytQAPw7NDHYLhzZCCQpprCrvth5mcyJCR6kFX0nQ2h37PAwJegCHsfAqWHYuGnUJDZKaSXMqg/bQXEa7shZm4G01LMqSTN8RlroDxT8hgd/3M3IlVqMklDJ4D6lpO4pnc9LODHfjoKbJcMDcJW766YsyYaKCjH6lcmw5k0Jg240Qi92QRnPj/n67GFzHfOkADJbDkGPiD+nM8kwl6g9jePgZlaBibQd6Y+BHMqLY7j/gZm0EMkWcxpH0DwCIZQnwzd5q9gN1C2BpoIpuoORRB1GfcjlG4jILj0pDp5cpWOpJXuQN11oOQUBMdu5O9NVtFqmxi18yTGenbD8ieGwN3JEUsOJ2HjBfK9bs64PG+y9LIdD3oHbjyKDdPDsDCsPxILK/AKbR85ZTVNo+H35FrOUgMUXRg3LIBwYCSYLpfquMHwyw6CigTpPQeK4W9Is8+u7YKY8x+IjbQNURNB4QNzdRkEEtz+z99CCF0CVnYBYvo6sEpqY6qi+1ElEyF0GU5bySII3cPA6m/SJA0CPGhRI1oJyJ/SCuSo/OEjHyetvtAZzdJeyIPa5jLKnqkNRTzUljJK6dNMvTQHQDw6VL29Gbitg/mbxVBw82m5TRPSAkKLAV8CJaie75n8kmE1OTCf+SvEkrOwjzwOIWCKJBCZQ1N/zV3yPgRujLyM6rm9S5NJH5YCtpdsWmVHrj8svW7ZCtKgk7MKq6eOwMJRwXJhB6ChMZMRgkjmraRBc19+gM+3BvgfJBS8RJKR1XQAAAAASUVORK5CYII=;" parent="1" vertex="1">
          <mxGeometry x="103" y="-259" width="40" height="35" as="geometry" />
        </mxCell>
        <mxCell id="8N1gZI2geE5Co_WE50Yg-15" value="DB" style="shape=image;verticalLabelPosition=bottom;labelBackgroundColor=default;verticalAlign=top;aspect=fixed;imageAspect=0;image=https://brandlogos.net/wp-content/uploads/2021/11/postgresql-logo.png;clipPath=inset(16.67% 17.33% 18% 20.33%);fontStyle=1" parent="1" vertex="1">
          <mxGeometry x="686" y="29" width="41.03" height="43" as="geometry" />
        </mxCell>
        <mxCell id="8N1gZI2geE5Co_WE50Yg-16" value="" style="edgeStyle=orthogonalEdgeStyle;rounded=0;orthogonalLoop=1;jettySize=auto;html=1;" parent="1" source="8N1gZI2geE5Co_WE50Yg-5" target="bc6YIsDriBggi0cUGrPZ-3" edge="1">
          <mxGeometry relative="1" as="geometry">
            <Array as="points" />
            <mxPoint x="592.1000000000001" y="-318.97142857142865" as="sourcePoint" />
            <mxPoint x="667" y="-401" as="targetPoint" />
          </mxGeometry>
        </mxCell>
        <mxCell id="8N1gZI2geE5Co_WE50Yg-21" value="" style="edgeStyle=orthogonalEdgeStyle;rounded=0;orthogonalLoop=1;jettySize=auto;html=1;strokeColor=#6600CC;" parent="1" source="8N1gZI2geE5Co_WE50Yg-18" target="8N1gZI2geE5Co_WE50Yg-15" edge="1">
          <mxGeometry relative="1" as="geometry">
            <mxPoint x="714.4000000000001" y="-44" as="sourcePoint" />
            <mxPoint x="714" y="21" as="targetPoint" />
            <Array as="points">
              <mxPoint x="665" y="-35" />
              <mxPoint x="665" y="13" />
              <mxPoint x="704" y="13" />
            </Array>
          </mxGeometry>
        </mxCell>
        <mxCell id="8N1gZI2geE5Co_WE50Yg-24" value="" style="edgeStyle=orthogonalEdgeStyle;rounded=0;orthogonalLoop=1;jettySize=auto;html=1;strokeColor=#FF0000;" parent="1" source="8N1gZI2geE5Co_WE50Yg-18" target="8N1gZI2geE5Co_WE50Yg-23" edge="1">
          <mxGeometry relative="1" as="geometry">
            <Array as="points">
              <mxPoint x="607" y="-48" />
            </Array>
          </mxGeometry>
        </mxCell>
        <mxCell id="0Z5ukygupV2G_xP_c3lc-3" value="" style="edgeStyle=orthogonalEdgeStyle;rounded=0;orthogonalLoop=1;jettySize=auto;html=1;entryX=0;entryY=0.403;entryDx=0;entryDy=0;entryPerimeter=0;strokeColor=#FF0000;" edge="1" parent="1" source="8N1gZI2geE5Co_WE50Yg-4" target="0Z5ukygupV2G_xP_c3lc-1">
          <mxGeometry relative="1" as="geometry">
            <mxPoint x="806.81" y="-44.5" as="targetPoint" />
            <Array as="points">
              <mxPoint x="824" y="-93" />
              <mxPoint x="824" y="-93" />
            </Array>
          </mxGeometry>
        </mxCell>
        <mxCell id="8N1gZI2geE5Co_WE50Yg-18" value="Pub/Sub" style="shape=image;verticalLabelPosition=bottom;labelBackgroundColor=default;verticalAlign=top;aspect=fixed;imageAspect=0;image=https://seeklogo.com/images/R/rabbitmq-logo-25641A76DE-seeklogo.com.png;fontStyle=1" parent="1" vertex="1">
          <mxGeometry x="688" y="-65" width="38.81" height="41" as="geometry" />
        </mxCell>
        <mxCell id="8N1gZI2geE5Co_WE50Yg-20" value="" style="edgeStyle=orthogonalEdgeStyle;rounded=0;orthogonalLoop=1;jettySize=auto;html=1;strokeColor=#FF0000;" parent="1" source="8N1gZI2geE5Co_WE50Yg-19" target="8N1gZI2geE5Co_WE50Yg-18" edge="1">
          <mxGeometry relative="1" as="geometry">
            <Array as="points">
              <mxPoint x="749" y="-155" />
              <mxPoint x="749" y="-83" />
            </Array>
          </mxGeometry>
        </mxCell>
        <mxCell id="8N1gZI2geE5Co_WE50Yg-19" value="Data&#xa;Producer" style="shape=image;verticalLabelPosition=bottom;labelBackgroundColor=default;verticalAlign=top;aspect=fixed;imageAspect=0;image=https://brandslogos.com/wp-content/uploads/images/large/python-logo.png;fontStyle=1" parent="1" vertex="1">
          <mxGeometry x="679" y="-173" width="36.93" height="36.78" as="geometry" />
        </mxCell>
        <mxCell id="8N1gZI2geE5Co_WE50Yg-25" value="" style="edgeStyle=orthogonalEdgeStyle;rounded=0;orthogonalLoop=1;jettySize=auto;html=1;strokeColor=#6600CC;" parent="1" source="8N1gZI2geE5Co_WE50Yg-23" target="8N1gZI2geE5Co_WE50Yg-15" edge="1">
          <mxGeometry relative="1" as="geometry">
            <Array as="points">
              <mxPoint x="659" y="40" />
              <mxPoint x="659" y="40" />
            </Array>
          </mxGeometry>
        </mxCell>
        <mxCell id="8N1gZI2geE5Co_WE50Yg-44" value="" style="edgeStyle=orthogonalEdgeStyle;rounded=0;orthogonalLoop=1;jettySize=auto;html=1;strokeColor=#009900;" parent="1" source="8N1gZI2geE5Co_WE50Yg-23" target="-V9h-_qufcQMwzrIH1RG-10" edge="1">
          <mxGeometry relative="1" as="geometry">
            <mxPoint x="479" y="-405" as="targetPoint" />
            <Array as="points">
              <mxPoint x="544" y="49" />
              <mxPoint x="544" y="-387" />
            </Array>
          </mxGeometry>
        </mxCell>
        <mxCell id="8N1gZI2geE5Co_WE50Yg-75" value="" style="edgeStyle=orthogonalEdgeStyle;rounded=0;orthogonalLoop=1;jettySize=auto;html=1;strokeColor=#009900;" parent="1" source="8N1gZI2geE5Co_WE50Yg-15" target="8N1gZI2geE5Co_WE50Yg-23" edge="1">
          <mxGeometry relative="1" as="geometry" />
        </mxCell>
        <mxCell id="8N1gZI2geE5Co_WE50Yg-23" value="API&#xa;HTTP" style="shape=image;verticalLabelPosition=bottom;labelBackgroundColor=default;verticalAlign=top;aspect=fixed;imageAspect=0;image=https://brandslogos.com/wp-content/uploads/images/large/python-logo.png;fontStyle=1" parent="1" vertex="1">
          <mxGeometry x="591" y="32" width="36.93" height="36.78" as="geometry" />
        </mxCell>
        <mxCell id="8N1gZI2geE5Co_WE50Yg-43" value="" style="edgeStyle=orthogonalEdgeStyle;rounded=0;orthogonalLoop=1;jettySize=auto;html=1;strokeColor=#FF0000;" parent="1" target="8N1gZI2geE5Co_WE50Yg-19" edge="1">
          <mxGeometry relative="1" as="geometry">
            <mxPoint x="646" y="-406" as="sourcePoint" />
            <mxPoint x="635" y="72" as="targetPoint" />
            <Array as="points">
              <mxPoint x="697" y="-406" />
            </Array>
          </mxGeometry>
        </mxCell>
        <mxCell id="8N1gZI2geE5Co_WE50Yg-53" value="" style="edgeStyle=orthogonalEdgeStyle;rounded=0;orthogonalLoop=1;jettySize=auto;html=1;strokeColor=#009900;" parent="1" source="8N1gZI2geE5Co_WE50Yg-4" target="8N1gZI2geE5Co_WE50Yg-51" edge="1">
          <mxGeometry relative="1" as="geometry">
            <mxPoint x="771" y="-141" as="sourcePoint" />
            <mxPoint x="1039" y="-141" as="targetPoint" />
            <Array as="points">
              <mxPoint x="906" y="-130" />
              <mxPoint x="906" y="-130" />
            </Array>
          </mxGeometry>
        </mxCell>
        <mxCell id="8N1gZI2geE5Co_WE50Yg-55" value="" style="edgeStyle=orthogonalEdgeStyle;rounded=0;orthogonalLoop=1;jettySize=auto;html=1;strokeColor=#6600CC;" parent="1" source="8N1gZI2geE5Co_WE50Yg-51" target="x5Qx7wWfgq4q1o_DWIzA-42" edge="1">
          <mxGeometry relative="1" as="geometry">
            <mxPoint x="1111" y="-124.5" as="targetPoint" />
            <Array as="points">
              <mxPoint x="1419" y="-130" />
              <mxPoint x="1419" y="-783" />
              <mxPoint x="620" y="-783" />
            </Array>
          </mxGeometry>
        </mxCell>
        <mxCell id="8N1gZI2geE5Co_WE50Yg-51" value="" style="shape=image;verticalLabelPosition=bottom;labelBackgroundColor=default;verticalAlign=top;aspect=fixed;imageAspect=0;image=https://res.cloudinary.com/lumigo-production/w_190,h_190,c_fit/dpr_auto,w_auto,q_auto:eco/wp-website/2024/01/zipkin-logo.png;" parent="1" vertex="1">
          <mxGeometry x="1041" y="-165.23000000000002" width="49" height="49" as="geometry" />
        </mxCell>
        <mxCell id="8N1gZI2geE5Co_WE50Yg-56" value="" style="shape=image;verticalLabelPosition=bottom;labelBackgroundColor=default;verticalAlign=top;aspect=fixed;imageAspect=0;image=https://uxwing.com/wp-content/themes/uxwing/download/file-and-folder-type/yaml-file-icon.png;" parent="1" vertex="1">
          <mxGeometry x="723" y="-304" width="49" height="52.06" as="geometry" />
        </mxCell>
        <mxCell id="8N1gZI2geE5Co_WE50Yg-61" value="" style="edgeStyle=orthogonalEdgeStyle;rounded=0;orthogonalLoop=1;jettySize=auto;html=1;strokeColor=#FF0000;" parent="1" source="8N1gZI2geE5Co_WE50Yg-59" target="N_ae5W9qRV80UMjD5rNb-144" edge="1">
          <mxGeometry relative="1" as="geometry" />
        </mxCell>
        <mxCell id="8N1gZI2geE5Co_WE50Yg-59" value="" style="shape=image;verticalLabelPosition=bottom;labelBackgroundColor=default;verticalAlign=top;aspect=fixed;imageAspect=0;image=https://forwardsecurity.com/wp-content/uploads/2021/01/owasp-zap-logo.png;clipPath=inset(0% 15% 0% 17% round 49%);" parent="1" vertex="1">
          <mxGeometry x="881" y="-424" width="55.74" height="47" as="geometry" />
        </mxCell>
        <mxCell id="8N1gZI2geE5Co_WE50Yg-64" value="" style="edgeStyle=orthogonalEdgeStyle;rounded=0;orthogonalLoop=1;jettySize=auto;html=1;strokeColor=#FF8000;" parent="1" source="8N1gZI2geE5Co_WE50Yg-56" target="N_ae5W9qRV80UMjD5rNb-154" edge="1">
          <mxGeometry relative="1" as="geometry">
            <mxPoint x="772" y="-278" as="sourcePoint" />
            <mxPoint x="999" y="-278" as="targetPoint" />
          </mxGeometry>
        </mxCell>
        <mxCell id="8N1gZI2geE5Co_WE50Yg-65" value="" style="edgeStyle=orthogonalEdgeStyle;rounded=0;orthogonalLoop=1;jettySize=auto;html=1;strokeColor=#FF0000;" parent="1" source="8N1gZI2geE5Co_WE50Yg-63" target="8N1gZI2geE5Co_WE50Yg-4" edge="1">
          <mxGeometry relative="1" as="geometry">
            <Array as="points">
              <mxPoint x="719" y="-171" />
              <mxPoint x="719" y="-171" />
            </Array>
          </mxGeometry>
        </mxCell>
        <mxCell id="8N1gZI2geE5Co_WE50Yg-63" value="" style="shape=image;verticalLabelPosition=bottom;labelBackgroundColor=default;verticalAlign=top;aspect=fixed;imageAspect=0;image=https://iexcel-technologies.com/wp-content/uploads/2023/07/Jmeter.jpg;clipPath=inset(13.33% 11.67% 13.33% 14%);" parent="1" vertex="1">
          <mxGeometry x="804" y="-186.12" width="40.3" height="39.76" as="geometry" />
        </mxCell>
        <mxCell id="8N1gZI2geE5Co_WE50Yg-69" value="" style="edgeStyle=orthogonalEdgeStyle;rounded=0;orthogonalLoop=1;jettySize=auto;html=1;strokeColor=#FF0000;" parent="1" source="8N1gZI2geE5Co_WE50Yg-18" target="8N1gZI2geE5Co_WE50Yg-67" edge="1">
          <mxGeometry relative="1" as="geometry">
            <mxPoint x="949" y="-4.999999999999773" as="sourcePoint" />
            <Array as="points">
              <mxPoint x="873" y="-35" />
              <mxPoint x="873" y="-35" />
            </Array>
          </mxGeometry>
        </mxCell>
        <mxCell id="8N1gZI2geE5Co_WE50Yg-70" value="" style="edgeStyle=orthogonalEdgeStyle;rounded=0;orthogonalLoop=1;jettySize=auto;html=1;strokeColor=#6600CC;" parent="1" source="8N1gZI2geE5Co_WE50Yg-67" target="8N1gZI2geE5Co_WE50Yg-15" edge="1">
          <mxGeometry relative="1" as="geometry">
            <mxPoint x="702" y="26" as="targetPoint" />
            <Array as="points">
              <mxPoint x="878" y="-21" />
              <mxPoint x="878" y="35" />
            </Array>
          </mxGeometry>
        </mxCell>
        <mxCell id="0Z5ukygupV2G_xP_c3lc-5" value="" style="edgeStyle=orthogonalEdgeStyle;rounded=0;orthogonalLoop=1;jettySize=auto;html=1;strokeColor=#FF0000;" edge="1" parent="1" source="8N1gZI2geE5Co_WE50Yg-67" target="0Z5ukygupV2G_xP_c3lc-1">
          <mxGeometry relative="1" as="geometry">
            <mxPoint x="1158.1599999999999" y="-31" as="targetPoint" />
            <Array as="points">
              <mxPoint x="1098" y="-21" />
              <mxPoint x="1098" y="-93" />
            </Array>
          </mxGeometry>
        </mxCell>
        <mxCell id="8N1gZI2geE5Co_WE50Yg-67" value="Ingest&#xa;Service" style="shape=image;verticalLabelPosition=bottom;labelBackgroundColor=default;verticalAlign=top;aspect=fixed;imageAspect=0;image=https://seeklogo.com/images/E/elastic-logstash-logo-EC5646BB13-seeklogo.com.png;fontStyle=1" parent="1" vertex="1">
          <mxGeometry x="1039" y="-44" width="39.16" height="44" as="geometry" />
        </mxCell>
        <mxCell id="8N1gZI2geE5Co_WE50Yg-71" value="" style="edgeStyle=orthogonalEdgeStyle;rounded=0;orthogonalLoop=1;jettySize=auto;html=1;strokeColor=#009900;" parent="1" source="8N1gZI2geE5Co_WE50Yg-15" target="-V9h-_qufcQMwzrIH1RG-13" edge="1">
          <mxGeometry relative="1" as="geometry">
            <mxPoint x="727.03" y="64" as="sourcePoint" />
            <mxPoint x="974" y="64" as="targetPoint" />
            <Array as="points">
              <mxPoint x="857" y="62" />
              <mxPoint x="857" y="62" />
            </Array>
          </mxGeometry>
        </mxCell>
        <mxCell id="8N1gZI2geE5Co_WE50Yg-74" style="edgeStyle=orthogonalEdgeStyle;rounded=0;orthogonalLoop=1;jettySize=auto;html=1;strokeColor=#6600CC;" parent="1" source="-V9h-_qufcQMwzrIH1RG-13" target="8N1gZI2geE5Co_WE50Yg-15" edge="1">
          <mxGeometry relative="1" as="geometry">
            <mxPoint x="997" y="105" as="sourcePoint" />
            <mxPoint x="686" y="51" as="targetPoint" />
            <Array as="points">
              <mxPoint x="708" y="70" />
              <mxPoint x="708" y="70" />
            </Array>
          </mxGeometry>
        </mxCell>
        <mxCell id="0Z5ukygupV2G_xP_c3lc-1" value="HDFS" style="shape=image;verticalLabelPosition=bottom;labelBackgroundColor=default;verticalAlign=top;aspect=fixed;imageAspect=0;image=https://i.pinimg.com/736x/d5/64/32/d564328a375317ef161e79aa5292648c.jpg;fontStyle=1" vertex="1" parent="1">
          <mxGeometry x="1050" y="-107.81" width="18.18" height="36.78" as="geometry" />
        </mxCell>
        <mxCell id="0Z5ukygupV2G_xP_c3lc-6" value="" style="shape=image;verticalLabelPosition=bottom;labelBackgroundColor=default;verticalAlign=top;aspect=fixed;imageAspect=0;image=https://www.svgrepo.com/download/354039/mariadb.svg;clipPath=inset(35% 55.33% 35.67% 0%);" vertex="1" parent="1">
          <mxGeometry x="737" y="-626" width="46.4" height="30.47" as="geometry" />
        </mxCell>
      </root>
    </mxGraphModel>
  </diagram>
</mxfile>
